SplineFontDB: 3.0
FontName: Chathura-Thin
FullName: Chathura Thin
FamilyName: Chathura
Weight: Thin
Copyright: Copyright (c) 2015 by Aditya Fonts. All rights reserved.
Version: 1.00 2015
ItalicAngle: 0
UnderlinePosition: -613
UnderlineWidth: 20
Ascent: 800
Descent: 200
InvalidEm: 0
sfntRevision: 0x00010000
LayerCount: 2
Layer: 0 1 "Back" 1
Layer: 1 1 "Fore" 0
XUID: [1021 73 2087734359 7214598]
FSType: 0
OS2Version: 3
OS2_WeightWidthSlopeOnly: 0
OS2_UseTypoMetrics: 1
CreationTime: 1374624000
ModificationTime: 1439792178
PfmFamily: 17
TTFWeight: 100
TTFWidth: 5
LineGap: 0
VLineGap: 0
Panose: 2 0 6 0 0 0 0 0 0 0
OS2TypoAscent: 895
OS2TypoAOffset: 0
OS2TypoDescent: -310
OS2TypoDOffset: 0
OS2TypoLinegap: 448
OS2WinAscent: 895
OS2WinAOffset: 0
OS2WinDescent: 653
OS2WinDOffset: 0
HheadAscent: 895
HheadAOffset: 0
HheadDescent: -653
HheadDOffset: 0
OS2SubXSize: 700
OS2SubYSize: 650
OS2SubXOff: 0
OS2SubYOff: 200
OS2SupXSize: 700
OS2SupYSize: 650
OS2SupXOff: 0
OS2SupYOff: 500
OS2StrikeYSize: 50
OS2StrikeYPos: 250
OS2CapHeight: 0
OS2XHeight: 0
OS2Vendor: 'AAD '
OS2CodePages: 00000003.00000000
OS2UnicodeRanges: 80200003.00000000.00000000.00000000
Lookup: 4 0 0 "'akhn' Akhand in Telugu lookup 0" { "'akhn' Akhand in Telugu lookup 0 subtable"  } ['akhn' ('telu' <'dflt' > ) ]
Lookup: 4 0 0 "'blwf' Below Base Forms in Telugu lookup 1" { "'blwf' Below Base Forms in Telugu lookup 1 subtable"  } ['blwf' ('telu' <'dflt' > ) ]
Lookup: 4 0 0 "'blwf' Below Base Forms in Telugu lookup 2" { "'blwf' Below Base Forms in Telugu lookup 2 subtable"  } ['blwf' ('telu' <'dflt' > ) ]
Lookup: 4 0 0 "'blwf' Below Base Forms in Telugu lookup 3" { "'blwf' Below Base Forms in Telugu lookup 3 subtable"  } ['blwf' ('telu' <'dflt' > ) ]
Lookup: 4 0 0 "'abvs' Above Base Substitutions in Telugu lookup 4" { "'abvs' Above Base Substitutions in Telugu lookup 4 subtable"  } ['abvs' ('telu' <'dflt' > ) ]

StartChar: .notdef
Encoding: 65536 -1 0
Width: 800
GlyphClass: 2
Flags: W
LayerCount: 2
Back
Fore
SplineSet
700 700 m 1,0,-1
 700 0 l 1,1,-1
 100 0 l 1,2,-1
 100 700 l 1,3,-1
 700 700 l 1,0,-1
650 650 m 1,4,-1
 150 650 l 1,5,-1
 150 50 l 1,6,-1
 650 50 l 1,7,-1
 650 650 l 1,4,-1
EndSplineSet
EndChar

StartChar: exclam
Encoding: 33 33 4
Width: 149
GlyphClass: 2
Flags: W
LayerCount: 2
Back
Fore
SplineSet
63 148 m 2,0,1
 57 148 57 148 55.5 153 c 128,-1,2
 54 158 54 158 54 164 c 0,3,4
 53 189 53 189 52 221 c 0,5,6
 51 248 51 248 51 286 c 128,-1,7
 51 324 51 324 51 371 c 2,8,-1
 51 428 l 2,9,10
 51 430 51 430 52.5 432 c 128,-1,11
 54 434 54 434 61 434 c 2,12,-1
 81 434 l 2,13,14
 88 434 88 434 89.5 432 c 128,-1,15
 91 430 91 430 91 428 c 2,16,-1
 90 371 l 1,17,-1
 87 259 l 2,18,19
 86 245 86 245 86 227.5 c 128,-1,20
 86 210 86 210 86 195 c 2,21,-1
 86 159 l 2,22,23
 86 154 86 154 81.5 151 c 128,-1,24
 77 148 77 148 73 148 c 2,25,-1
 63 148 l 2,0,1
78 0 m 2,26,-1
 61 0 l 2,27,28
 51 0 51 0 51 5 c 2,29,-1
 51 77 l 2,30,31
 51 79 51 79 52.5 81 c 128,-1,32
 54 83 54 83 61 83 c 2,33,-1
 78 83 l 2,34,35
 85 83 85 83 86.5 81 c 128,-1,36
 88 79 88 79 88 77 c 2,37,-1
 88 5 l 2,38,39
 88 3 88 3 86.5 1.5 c 128,-1,40
 85 0 85 0 78 0 c 2,26,-1
EndSplineSet
EndChar

StartChar: quotedbl
Encoding: 34 34 5
Width: 218
GlyphClass: 2
Flags: W
LayerCount: 2
Back
Fore
SplineSet
158 323 m 2,0,1
 158 318 158 318 155 318 c 2,2,-1
 152 318 l 2,3,4
 150 318 150 318 150 323 c 2,5,-1
 146 449 l 2,6,7
 146 454 146 454 150 454 c 2,8,-1
 161 454 l 2,9,10
 162 454 162 454 162 449 c 2,11,-1
 158 323 l 2,0,1
59 323 m 2,12,13
 59 318 59 318 57 318 c 2,14,-1
 54 318 l 2,15,16
 52 318 52 318 52.5 319.5 c 128,-1,17
 53 321 53 321 53 323 c 2,18,-1
 46 449 l 2,19,20
 46 454 46 454 49 454 c 2,21,-1
 61 454 l 2,22,23
 64 454 64 454 64 449 c 2,24,-1
 59 323 l 2,12,13
EndSplineSet
EndChar

StartChar: numbersign
Encoding: 35 35 6
Width: 458
GlyphClass: 2
Flags: W
LayerCount: 2
Back
Fore
SplineSet
408 298 m 2,0,-1
 341 298 l 1,1,-1
 294 135 l 1,2,-1
 362 135 l 2,3,4
 367 135 367 135 367 132 c 2,5,-1
 367 122 l 2,6,7
 367 117 367 117 362 117 c 2,8,-1
 289 117 l 1,9,-1
 258 8 l 2,10,11
 257 6 257 6 256 3 c 128,-1,12
 255 0 255 0 251 0 c 2,13,-1
 244 0 l 2,14,15
 239 0 239 0 239.5 4 c 128,-1,16
 240 8 240 8 241 10 c 2,17,-1
 271 117 l 1,18,-1
 131 117 l 1,19,-1
 100 8 l 2,20,21
 98 5 98 5 97 2.5 c 128,-1,22
 96 0 96 0 93 0 c 2,23,-1
 84 0 l 2,24,25
 80 0 80 0 80.5 3.5 c 128,-1,26
 81 7 81 7 82 11 c 2,27,-1
 112 117 l 1,28,-1
 50 117 l 2,29,30
 44 117 44 117 44 122 c 2,31,-1
 44 132 l 2,32,33
 44 135 44 135 50 135 c 2,34,-1
 117 135 l 1,35,-1
 164 298 l 1,36,-1
 96 298 l 2,37,38
 91 298 91 298 91 302 c 2,39,-1
 91 312 l 2,40,41
 91 317 91 317 96 317 c 2,42,-1
 169 317 l 1,43,-1
 200 426 l 2,44,45
 203 434 203 434 209 434 c 2,46,-1
 214 434 l 2,47,48
 216 434 216 434 218 431.5 c 128,-1,49
 220 429 220 429 218 426 c 2,50,-1
 187 317 l 1,51,-1
 327 317 l 1,52,-1
 358 426 l 2,53,54
 362 434 362 434 366 434 c 2,55,-1
 371 434 l 2,56,57
 375 434 375 434 375 431.5 c 128,-1,58
 375 429 375 429 375 427 c 2,59,-1
 375 422 l 1,60,-1
 346 317 l 1,61,-1
 408 317 l 2,62,63
 414 317 414 317 414 312 c 2,64,-1
 414 302 l 2,65,66
 414 298 414 298 408 298 c 2,0,-1
182 298 m 1,67,-1
 136 135 l 1,68,-1
 276 135 l 1,69,-1
 322 298 l 1,70,-1
 182 298 l 1,67,-1
EndSplineSet
EndChar

StartChar: dollar
Encoding: 36 36 7
Width: 335
GlyphClass: 2
Flags: W
LayerCount: 2
Back
Fore
SplineSet
186 -1 m 1,0,-1
 186 -60 l 2,1,2
 186 -67 186 -67 182 -67 c 2,3,-1
 173 -67 l 2,4,5
 169 -67 169 -67 169 -60 c 2,6,-1
 169 0 l 1,7,-1
 142 0 l 2,8,9
 101 0 101 0 77.5 23 c 128,-1,10
 54 46 54 46 54 92 c 2,11,-1
 54 115 l 2,12,13
 54 121 54 121 58 121 c 2,14,-1
 68 121 l 2,15,16
 72 121 72 121 72 115 c 2,17,-1
 72 92 l 2,18,19
 72 57 72 57 88 38.5 c 128,-1,20
 104 20 104 20 142 20 c 2,21,-1
 195 20 l 2,22,23
 230 20 230 20 247.5 39 c 128,-1,24
 265 58 265 58 265 92 c 2,25,-1
 265 140 l 2,26,27
 265 180 265 180 248 195.5 c 128,-1,28
 231 211 231 211 193 211 c 2,29,-1
 145 211 l 2,30,31
 100 211 100 211 77 229 c 128,-1,32
 54 247 54 247 54 297 c 2,33,-1
 54 344 l 2,34,35
 54 389 54 389 77.5 412 c 128,-1,36
 101 435 101 435 142 435 c 2,37,-1
 169 435 l 1,38,-1
 169 495 l 2,39,40
 169 501 169 501 173 501 c 2,41,-1
 182 501 l 2,42,43
 186 501 186 501 186 495 c 2,44,-1
 186 435 l 1,45,46
 281 428 281 428 281 344 c 2,47,-1
 281 323 l 2,48,49
 281 321 281 321 281 318.5 c 128,-1,50
 281 316 281 316 278 316 c 2,51,-1
 268 316 l 2,52,53
 265 316 265 316 265 323 c 2,54,-1
 265 344 l 2,55,56
 265 378 265 378 247.5 397 c 128,-1,57
 230 416 230 416 195 416 c 2,58,-1
 142 416 l 2,59,60
 107 416 107 416 89.5 397 c 128,-1,61
 72 378 72 378 72 344 c 2,62,-1
 72 297 l 2,63,64
 72 259 72 259 89 244 c 128,-1,65
 106 229 106 229 142 229 c 2,66,-1
 195 229 l 2,67,68
 239 229 239 229 260 208.5 c 128,-1,69
 281 188 281 188 281 141 c 2,70,-1
 281 92 l 2,71,72
 281 5 281 5 186 -1 c 1,0,-1
EndSplineSet
EndChar

StartChar: percent
Encoding: 37 37 8
Width: 479
GlyphClass: 2
Flags: W
LayerCount: 2
Back
Fore
SplineSet
125 239 m 2,0,-1
 115 239 l 2,1,2
 75 239 75 239 56 258.5 c 128,-1,3
 37 278 37 278 37 322 c 2,4,-1
 37 355 l 2,5,6
 37 398 37 398 56 417.5 c 128,-1,7
 75 437 75 437 115 437 c 2,8,-1
 125 437 l 2,9,10
 165 437 165 437 183.5 417.5 c 128,-1,11
 202 398 202 398 202 355 c 2,12,-1
 202 322 l 2,13,14
 202 278 202 278 183 258.5 c 128,-1,15
 164 239 164 239 125 239 c 2,0,-1
365 0 m 2,16,-1
 355 0 l 2,17,18
 315 0 315 0 296 19.5 c 128,-1,19
 277 39 277 39 277 83 c 2,20,-1
 277 116 l 2,21,22
 277 159 277 159 296 178.5 c 128,-1,23
 315 198 315 198 355 198 c 2,24,-1
 365 198 l 2,25,26
 405 198 405 198 423.5 179 c 128,-1,27
 442 160 442 160 442 116 c 2,28,-1
 442 83 l 2,29,30
 442 39 442 39 423.5 19.5 c 128,-1,31
 405 0 405 0 365 0 c 2,16,-1
159 8 m 1,32,-1
 152 0 l 1,33,-1
 149 0 l 1,34,-1
 143 0 l 2,35,36
 138 0 138 0 138.5 3.5 c 128,-1,37
 139 7 139 7 140 9 c 2,38,-1
 323 428 l 2,39,40
 323 430 323 430 326 433 c 0,41,42
 327 434 327 434 331 434 c 2,43,-1
 336 434 l 2,44,45
 341 434 341 434 340.5 430.5 c 128,-1,46
 340 427 340 427 338 424 c 2,47,-1
 159 8 l 1,32,-1
183 354 m 2,48,49
 183 390 183 390 170.5 404.5 c 128,-1,50
 158 419 158 419 125 419 c 2,51,-1
 115 419 l 2,52,53
 82 419 82 419 69 405 c 128,-1,54
 56 391 56 391 56 354 c 2,55,-1
 56 322 l 2,56,57
 56 285 56 285 69.5 272 c 128,-1,58
 83 259 83 259 115 259 c 2,59,-1
 125 259 l 2,60,61
 158 259 158 259 170.5 272.5 c 128,-1,62
 183 286 183 286 183 322 c 2,63,-1
 183 354 l 2,48,49
423 115 m 2,64,65
 423 150 423 150 410.5 164.5 c 128,-1,66
 398 179 398 179 365 179 c 2,67,-1
 355 179 l 2,68,69
 322 179 322 179 309 165 c 128,-1,70
 296 151 296 151 296 115 c 2,71,-1
 296 84 l 2,72,73
 296 48 296 48 309 33 c 128,-1,74
 322 18 322 18 355 18 c 2,75,-1
 365 18 l 2,76,77
 399 18 399 18 411 33.5 c 128,-1,78
 423 49 423 49 423 84 c 2,79,-1
 423 115 l 2,64,65
EndSplineSet
EndChar

StartChar: ampersand
Encoding: 38 38 9
Width: 379
GlyphClass: 2
Flags: W
LayerCount: 2
Back
Fore
SplineSet
290 0 m 1,0,-1
 265 30 l 1,1,2
 262 16 262 16 247 8 c 128,-1,3
 232 0 232 0 223 0 c 2,4,-1
 60 0 l 2,5,6
 41 0 41 0 24 16.5 c 128,-1,7
 7 33 7 33 7 63 c 2,8,-1
 7 187 l 2,9,10
 7 199 7 199 10 211.5 c 128,-1,11
 13 224 13 224 19.5 234.5 c 128,-1,12
 26 245 26 245 37 251.5 c 128,-1,13
 48 258 48 258 65 258 c 1,14,15
 49 261 49 261 40.5 268.5 c 128,-1,16
 32 276 32 276 28 284.5 c 128,-1,17
 24 293 24 293 23.5 300.5 c 128,-1,18
 23 308 23 308 23 310 c 2,19,-1
 23 367 l 2,20,21
 23 386 23 386 37.5 402 c 128,-1,22
 52 418 52 418 83 418 c 2,23,-1
 144 418 l 2,24,25
 169 418 169 418 186.5 407.5 c 128,-1,26
 204 397 204 397 204 373 c 2,27,-1
 204 300 l 2,28,29
 204 284 204 284 189 268 c 128,-1,30
 174 252 174 252 145 252 c 2,31,-1
 99 252 l 1,32,33
 133 213 133 213 168.5 172.5 c 128,-1,34
 204 132 204 132 254 72 c 1,35,-1
 254 156 l 1,36,-1
 272 156 l 1,37,-1
 272 52 l 1,38,-1
 316 0 l 1,39,-1
 290 0 l 1,0,-1
183 363 m 2,40,41
 183 376 183 376 178 387 c 128,-1,42
 173 398 173 398 151 398 c 2,43,-1
 77 398 l 2,44,45
 58 398 58 398 51 385.5 c 128,-1,46
 44 373 44 373 44 361 c 2,47,-1
 44 307 l 2,48,49
 44 284 44 284 56 277.5 c 128,-1,50
 68 271 68 271 81 271 c 2,51,-1
 151 271 l 2,52,53
 172 271 172 271 177.5 283.5 c 128,-1,54
 183 296 183 296 183 309 c 2,55,-1
 183 363 l 2,40,41
78 249 m 1,56,57
 48 248 48 248 38 226.5 c 128,-1,58
 28 205 28 205 28 179 c 2,59,-1
 28 63 l 2,60,61
 28 61 28 61 29 53.5 c 128,-1,62
 30 46 30 46 34 38.5 c 128,-1,63
 38 31 38 31 47 25 c 128,-1,64
 56 19 56 19 73 19 c 2,65,-1
 210 19 l 2,66,67
 221 19 221 19 236 25 c 128,-1,68
 251 31 251 31 252 46 c 1,69,70
 206 100 206 100 165 148 c 128,-1,71
 124 196 124 196 78 249 c 1,56,57
EndSplineSet
EndChar

StartChar: quotesingle
Encoding: 39 39 10
Width: 117
GlyphClass: 2
Flags: W
LayerCount: 2
Back
Fore
SplineSet
71 327 m 2,0,1
 71 325 71 325 70 321.5 c 128,-1,2
 69 318 69 318 64 318 c 2,3,-1
 58 318 l 2,4,5
 53 318 53 318 51.5 321.5 c 128,-1,6
 50 325 50 325 50 327 c 2,7,-1
 45 444 l 2,8,9
 45 454 45 454 54 454 c 2,10,-1
 70 454 l 2,11,12
 75 454 75 454 76.5 450 c 128,-1,13
 78 446 78 446 78 444 c 2,14,-1
 71 327 l 2,0,1
EndSplineSet
EndChar

StartChar: parenleft
Encoding: 40 40 11
Width: 187
GlyphClass: 2
Flags: W
LayerCount: 2
Back
Fore
SplineSet
127 -69 m 2,0,-1
 118 -69 l 2,1,2
 44 -69 44 -69 44 22 c 2,3,-1
 44 342 l 2,4,5
 44 387 44 387 64.5 409 c 128,-1,6
 85 431 85 431 121 431 c 2,7,-1
 130 431 l 2,8,9
 136 431 136 431 136 425 c 2,10,-1
 136 422 l 2,11,12
 136 416 136 416 130 416 c 2,13,-1
 121 416 l 2,14,15
 81 416 81 416 69 394 c 128,-1,16
 57 372 57 372 57 340 c 2,17,-1
 57 23 l 2,18,19
 57 8 57 8 59 -6 c 128,-1,20
 61 -20 61 -20 67.5 -30.5 c 128,-1,21
 74 -41 74 -41 86 -47.5 c 128,-1,22
 98 -54 98 -54 118 -54 c 2,23,-1
 127 -54 l 2,24,25
 129 -54 129 -54 132.5 -55 c 128,-1,26
 136 -56 136 -56 136 -61 c 2,27,-1
 136 -64 l 2,28,29
 136 -68 136 -68 132.5 -68.5 c 128,-1,30
 129 -69 129 -69 127 -69 c 2,0,-1
EndSplineSet
EndChar

StartChar: parenright
Encoding: 41 41 12
Width: 179
GlyphClass: 2
Flags: W
LayerCount: 2
Back
Fore
SplineSet
136 22 m 2,0,1
 136 -69 136 -69 62 -69 c 2,2,-1
 53 -69 l 2,3,4
 51 -69 51 -69 47.5 -68.5 c 128,-1,5
 44 -68 44 -68 44 -64 c 2,6,-1
 44 -61 l 2,7,8
 44 -56 44 -56 47.5 -55 c 128,-1,9
 51 -54 51 -54 53 -54 c 2,10,-1
 62 -54 l 2,11,12
 82 -54 82 -54 94 -47.5 c 128,-1,13
 106 -41 106 -41 112.5 -30.5 c 128,-1,14
 119 -20 119 -20 121 -6 c 128,-1,15
 123 8 123 8 123 23 c 2,16,-1
 123 340 l 2,17,18
 123 372 123 372 111 394 c 128,-1,19
 99 416 99 416 59 416 c 2,20,-1
 50 416 l 2,21,22
 44 416 44 416 44 422 c 2,23,-1
 44 425 l 2,24,25
 44 431 44 431 50 431 c 2,26,-1
 59 431 l 2,27,28
 95 431 95 431 115.5 409 c 128,-1,29
 136 387 136 387 136 342 c 2,30,-1
 136 22 l 2,0,1
EndSplineSet
EndChar

StartChar: asterisk
Encoding: 42 42 13
Width: 275
GlyphClass: 2
Flags: W
LayerCount: 2
Back
Fore
SplineSet
218 379 m 1,0,-1
 217 379 l 1,1,-1
 221 369 l 2,2,3
 223 365 223 365 220.5 363.5 c 128,-1,4
 218 362 218 362 216 361 c 0,5,6
 202 357 202 357 189 353 c 128,-1,7
 176 349 176 349 150 341 c 1,8,9
 157 332 157 332 162 324.5 c 128,-1,10
 167 317 167 317 171.5 310.5 c 128,-1,11
 176 304 176 304 181 296.5 c 128,-1,12
 186 289 186 289 193 280 c 1,13,-1
 193 279 l 2,14,15
 192 277 192 277 192 277 c 1,16,-1
 182 270 l 2,17,18
 180 269 180 269 178 271 c 0,19,20
 174 276 174 276 171 280.5 c 128,-1,21
 168 285 168 285 164.5 292 c 128,-1,22
 161 299 161 299 155.5 309 c 128,-1,23
 150 319 150 319 141 334 c 1,24,25
 130 317 130 317 123 307 c 128,-1,26
 116 297 116 297 111.5 290.5 c 128,-1,27
 107 284 107 284 103.5 279.5 c 128,-1,28
 100 275 100 275 97 270 c 0,29,30
 95 268 95 268 94 268 c 0,31,32
 91 271 91 271 89 272 c 256,33,34
 87 273 87 273 85 275 c 0,35,36
 82 277 82 277 81.5 279 c 128,-1,37
 81 281 81 281 82 282 c 0,38,39
 97 299 97 299 106.5 310 c 128,-1,40
 116 321 116 321 132 339 c 1,41,-1
 57 363 l 2,42,43
 55 363 55 363 55 367 c 2,44,-1
 59 378 l 2,45,46
 60 381 60 381 64 381 c 0,47,48
 83 373 83 373 100 366 c 128,-1,49
 117 359 117 359 134 351 c 1,50,51
 132 371 132 371 130.5 390 c 128,-1,52
 129 409 129 409 129 429 c 0,53,54
 129 434 129 434 133 434 c 2,55,-1
 143 434 l 2,56,57
 147 434 147 434 147 429 c 0,58,59
 147 409 147 409 146.5 390.5 c 128,-1,60
 146 372 146 372 146 352 c 1,61,62
 174 363 174 363 188 369 c 128,-1,63
 202 375 202 375 213 380 c 0,64,65
 215 381 215 381 217 379 c 2,66,-1
 218 379 l 1,0,-1
EndSplineSet
EndChar

StartChar: plus
Encoding: 43 43 14
Width: 365
GlyphClass: 2
Flags: W
LayerCount: 2
Back
Fore
SplineSet
319 208 m 2,0,-1
 191 208 l 1,1,-1
 191 78 l 2,2,3
 191 71 191 71 186 71 c 2,4,-1
 179 71 l 2,5,6
 174 71 174 71 175 79 c 2,7,-1
 175 208 l 1,8,-1
 45 208 l 2,9,10
 43 208 43 208 42 210 c 128,-1,11
 41 212 41 212 41 213 c 2,12,-1
 41 220 l 2,13,14
 41 225 41 225 45 225 c 2,15,-1
 175 225 l 1,16,-1
 175 356 l 2,17,18
 175 362 175 362 179 362 c 2,19,-1
 186 362 l 2,20,21
 191 362 191 362 191 356 c 2,22,-1
 191 225 l 1,23,-1
 319 225 l 2,24,25
 324 225 324 225 324 220 c 2,26,-1
 324 213 l 2,27,28
 324 208 324 208 319 208 c 2,0,-1
EndSplineSet
EndChar

StartChar: comma
Encoding: 44 44 15
Width: 126
GlyphClass: 2
Flags: W
LayerCount: 2
Back
Fore
SplineSet
60 69 m 2,0,1
 64 69 64 69 64.5 47 c 128,-1,2
 65 25 65 25 63 -1 c 128,-1,3
 61 -27 61 -27 58.5 -49 c 128,-1,4
 56 -71 56 -71 55 -71 c 2,5,-1
 50 -71 l 2,6,7
 47 -71 47 -71 47 -69 c 128,-1,8
 47 -67 47 -67 47 -66 c 2,9,-1
 40 61 l 2,10,11
 39 69 39 69 47 69 c 2,12,-1
 60 69 l 2,0,1
EndSplineSet
EndChar

StartChar: hyphen
Encoding: 45 45 16
Width: 231
GlyphClass: 2
Flags: W
LayerCount: 2
Back
Fore
SplineSet
200 200 m 2,0,-1
 200 184 l 2,1,2
 200 180 200 180 198 178 c 128,-1,3
 196 176 196 176 188 176 c 2,4,-1
 41 176 l 2,5,6
 31 176 31 176 31 185 c 2,7,-1
 31 200 l 2,8,9
 31 208 31 208 41 208 c 2,10,-1
 188 208 l 2,11,12
 200 208 200 208 200 200 c 2,0,-1
EndSplineSet
EndChar

StartChar: period
Encoding: 46 46 17
Width: 116
GlyphClass: 2
Flags: W
LayerCount: 2
Back
Fore
SplineSet
59 0 m 2,0,-1
 43 0 l 2,1,2
 36 0 36 0 36 6 c 2,3,-1
 36 86 l 2,4,5
 36 93 36 93 43 93 c 2,6,-1
 59 93 l 2,7,8
 66 93 66 93 66 86 c 2,9,-1
 66 6 l 2,10,11
 66 0 66 0 59 0 c 2,0,-1
EndSplineSet
EndChar

StartChar: slash
Encoding: 47 47 18
Width: 236
GlyphClass: 2
Flags: W
LayerCount: 2
Back
Fore
SplineSet
50 -21 m 0,0,1
 48 -27 48 -27 45 -27 c 2,2,-1
 36 -27 l 2,3,4
 31 -28 31 -28 31.5 -26 c 128,-1,5
 32 -24 32 -24 34 -18 c 2,6,-1
 186 427 l 2,7,8
 189 434 189 434 192 434 c 2,9,-1
 200 434 l 2,10,11
 203 434 203 434 203 431 c 0,12,13
 202 428 202 428 195 407.5 c 128,-1,14
 188 387 188 387 177 354.5 c 128,-1,15
 166 322 166 322 152.5 282 c 128,-1,16
 139 242 139 242 125 200 c 0,17,18
 92 102 92 102 50 -21 c 0,0,1
EndSplineSet
EndChar

StartChar: zero
Encoding: 48 48 19
Width: 308
GlyphClass: 2
Flags: W
LayerCount: 2
Back
Fore
SplineSet
183 0 m 2,0,-1
 121 0 l 2,1,2
 85 0 85 0 62.5 22.5 c 128,-1,3
 40 45 40 45 40 85 c 2,4,-1
 40 320 l 2,5,6
 40 360 40 360 62.5 382 c 128,-1,7
 85 404 85 404 121 404 c 2,8,-1
 183 404 l 2,9,10
 221 404 221 404 242.5 382 c 128,-1,11
 264 360 264 360 264 320 c 2,12,-1
 264 85 l 2,13,14
 264 45 264 45 242.5 22.5 c 128,-1,15
 221 0 221 0 183 0 c 2,0,-1
250 319 m 2,16,17
 250 352 250 352 233.5 370.5 c 128,-1,18
 217 389 217 389 183 389 c 2,19,-1
 121 389 l 2,20,21
 88 389 88 389 71.5 370 c 128,-1,22
 55 351 55 351 55 319 c 2,23,-1
 55 86 l 2,24,25
 55 54 55 54 71 34.5 c 128,-1,26
 87 15 87 15 121 15 c 2,27,-1
 183 15 l 2,28,29
 218 15 218 15 234 34.5 c 128,-1,30
 250 54 250 54 250 86 c 2,31,-1
 250 319 l 2,16,17
EndSplineSet
EndChar

StartChar: one
Encoding: 49 49 20
Width: 184
GlyphClass: 2
Flags: W
LayerCount: 2
Back
Fore
SplineSet
29 339 m 2,0,-1
 29 343 l 2,1,2
 29 349 29 349 30.5 351 c 128,-1,3
 32 353 32 353 35 355 c 2,4,-1
 120 402 l 2,5,6
 123 404 123 404 128 404 c 2,7,-1
 134 404 l 2,8,9
 137 404 137 404 137.5 400.5 c 128,-1,10
 138 397 138 397 138 396 c 2,11,-1
 138 3 l 2,12,13
 138 2 138 2 137 1 c 0,14,15
 135 0 135 0 135 0 c 1,16,-1
 128 0 l 2,17,18
 126 0 126 0 126 4 c 2,19,-1
 126 391 l 1,20,-1
 35 339 l 2,21,22
 33 338 33 338 31 337.5 c 128,-1,23
 29 337 29 337 29 339 c 2,0,-1
EndSplineSet
EndChar

StartChar: two
Encoding: 50 50 21
Width: 285
GlyphClass: 2
Flags: W
LayerCount: 2
Back
Fore
SplineSet
247 0 m 2,0,-1
 41 0 l 2,1,2
 38 0 38 0 38 4 c 2,3,-1
 38 57 l 2,4,5
 38 83 38 83 47.5 101.5 c 128,-1,6
 57 120 57 120 75 134 c 2,7,-1
 200 228 l 2,8,9
 234 254 234 254 234 295 c 2,10,-1
 234 321 l 2,11,12
 234 353 234 353 217.5 371 c 128,-1,13
 201 389 201 389 167 389 c 2,14,-1
 115 389 l 2,15,16
 82 389 82 389 65.5 371 c 128,-1,17
 49 353 49 353 49 321 c 2,18,-1
 49 292 l 2,19,20
 49 286 49 286 46 286 c 2,21,-1
 37 286 l 2,22,23
 35 286 35 286 35 292 c 2,24,-1
 35 321 l 2,25,26
 35 364 35 364 57.5 384 c 128,-1,27
 80 404 80 404 115 404 c 2,28,-1
 167 404 l 2,29,30
 204 404 204 404 225.5 384 c 128,-1,31
 247 364 247 364 247 321 c 2,32,-1
 247 294 l 2,33,34
 247 244 247 244 209 215 c 2,35,-1
 83 120 l 2,36,37
 51 96 51 96 51 59 c 2,38,-1
 51 20 l 2,39,40
 51 15 51 15 58 15 c 2,41,-1
 247 15 l 2,42,43
 249 15 249 15 249 11 c 2,44,-1
 249 4 l 2,45,46
 249 0 249 0 247 0 c 2,0,-1
EndSplineSet
EndChar

StartChar: three
Encoding: 51 51 22
Width: 297
GlyphClass: 2
Flags: W
LayerCount: 2
Back
Fore
SplineSet
174 0 m 2,0,-1
 121 0 l 2,1,2
 83 0 83 0 61.5 20 c 128,-1,3
 40 40 40 40 40 83 c 2,4,-1
 40 114 l 2,5,6
 40 119 40 119 42 119 c 2,7,-1
 52 119 l 2,8,9
 54 119 54 119 54 114 c 2,10,-1
 54 83 l 2,11,12
 54 51 54 51 70.5 33 c 128,-1,13
 87 15 87 15 121 15 c 2,14,-1
 174 15 l 2,15,16
 207 15 207 15 223.5 33 c 128,-1,17
 240 51 240 51 240 83 c 2,18,-1
 240 128 l 2,19,20
 240 160 240 160 223.5 178 c 128,-1,21
 207 196 207 196 174 196 c 2,22,-1
 136 196 l 2,23,24
 133 196 133 196 133 200 c 2,25,-1
 133 207 l 2,26,27
 133 210 133 210 136 210 c 2,28,-1
 174 210 l 2,29,30
 207 210 207 210 223.5 228.5 c 128,-1,31
 240 247 240 247 240 279 c 2,32,-1
 240 321 l 2,33,34
 240 353 240 353 223.5 371 c 128,-1,35
 207 389 207 389 174 389 c 2,36,-1
 121 389 l 2,37,38
 87 389 87 389 70.5 371 c 128,-1,39
 54 353 54 353 54 321 c 2,40,-1
 54 297 l 2,41,42
 54 293 54 293 52 293 c 2,43,-1
 42 293 l 2,44,45
 40 293 40 293 40 297 c 2,46,-1
 40 321 l 2,47,48
 40 364 40 364 61.5 384 c 128,-1,49
 83 404 83 404 121 404 c 2,50,-1
 174 404 l 2,51,52
 211 404 211 404 232.5 384 c 128,-1,53
 254 364 254 364 254 321 c 2,54,-1
 254 279 l 2,55,56
 254 269 254 269 251 256 c 128,-1,57
 248 243 248 243 242 232 c 128,-1,58
 236 221 236 221 226 212.5 c 128,-1,59
 216 204 216 204 202 203 c 1,60,61
 214 200 214 200 224 192 c 128,-1,62
 234 184 234 184 240.5 173.5 c 128,-1,63
 247 163 247 163 250.5 151 c 128,-1,64
 254 139 254 139 254 129 c 2,65,-1
 254 83 l 2,66,67
 254 40 254 40 232.5 20 c 128,-1,68
 211 0 211 0 174 0 c 2,0,-1
EndSplineSet
EndChar

StartChar: four
Encoding: 52 52 23
Width: 313
GlyphClass: 2
Flags: W
LayerCount: 2
Back
Fore
SplineSet
284 86 m 2,0,-1
 234 86 l 1,1,-1
 234 4 l 2,2,3
 234 0 234 0 233 0 c 2,4,-1
 224 0 l 2,5,6
 221 0 221 0 221 4 c 2,7,-1
 221 86 l 1,8,-1
 32 86 l 2,9,10
 28 86 28 86 28 89 c 0,11,12
 28 99 28 99 33 108 c 2,13,-1
 211 398 l 2,14,15
 214 404 214 404 221 404 c 2,16,-1
 233 404 l 2,17,18
 234 404 234 404 234 400 c 2,19,-1
 234 100 l 1,20,-1
 284 100 l 2,21,22
 288 100 288 100 288 97 c 2,23,-1
 288 89 l 2,24,25
 288 86 288 86 284 86 c 2,0,-1
221 392 m 1,26,-1
 48 106 l 2,27,28
 43 99 43 99 50 100 c 2,29,-1
 221 100 l 1,30,-1
 221 392 l 1,26,-1
EndSplineSet
EndChar

StartChar: five
Encoding: 53 53 24
Width: 284
GlyphClass: 2
Flags: W
LayerCount: 2
Back
Fore
SplineSet
167 0 m 2,0,-1
 119 0 l 2,1,2
 81 0 81 0 59.5 22.5 c 128,-1,3
 38 45 38 45 38 85 c 2,4,-1
 38 110 l 2,5,6
 38 115 38 115 40 115 c 2,7,-1
 49 115 l 2,8,9
 52 115 52 115 52 110 c 2,10,-1
 52 86 l 2,11,12
 52 54 52 54 68.5 34.5 c 128,-1,13
 85 15 85 15 119 15 c 2,14,-1
 167 15 l 2,15,16
 201 15 201 15 217.5 34.5 c 128,-1,17
 234 54 234 54 234 86 c 2,18,-1
 234 166 l 2,19,20
 234 235 234 235 167 235 c 2,21,-1
 107 235 l 2,22,23
 90 235 90 235 80.5 230 c 128,-1,24
 71 225 71 225 64 217 c 0,25,26
 62 212 62 212 58 206.5 c 128,-1,27
 54 201 54 201 51 201 c 2,28,-1
 44 201 l 2,29,30
 38 201 38 201 38 215 c 2,31,-1
 37 395 l 2,32,33
 37 398 37 398 39 401 c 128,-1,34
 41 404 41 404 45 404 c 2,35,-1
 235 404 l 2,36,37
 241 404 241 404 241 400 c 2,38,-1
 241 394 l 2,39,40
 241 389 241 389 235 389 c 2,41,-1
 59 389 l 2,42,43
 52 389 52 389 52 382 c 2,44,-1
 52 229 l 2,45,46
 52 221 52 221 53.5 223 c 128,-1,47
 55 225 55 225 57 228 c 0,48,49
 61 236 61 236 68 240.5 c 128,-1,50
 75 245 75 245 82 247 c 128,-1,51
 89 249 89 249 96 249.5 c 128,-1,52
 103 250 103 250 107 250 c 2,53,-1
 167 250 l 2,54,55
 204 250 204 250 226 229.5 c 128,-1,56
 248 209 248 209 248 166 c 2,57,-1
 248 85 l 2,58,59
 248 45 248 45 226 22.5 c 128,-1,60
 204 0 204 0 167 0 c 2,0,-1
EndSplineSet
EndChar

StartChar: six
Encoding: 54 54 25
Width: 291
GlyphClass: 2
Flags: W
LayerCount: 2
Back
Fore
SplineSet
172 0 m 2,0,-1
 116 0 l 2,1,2
 80 0 80 0 58 22.5 c 128,-1,3
 36 45 36 45 36 85 c 2,4,-1
 36 320 l 2,5,6
 36 360 36 360 58 382 c 128,-1,7
 80 404 80 404 116 404 c 2,8,-1
 230 404 l 2,9,10
 236 404 236 404 236 400 c 2,11,-1
 236 394 l 2,12,13
 236 391 236 391 234 390 c 128,-1,14
 232 389 232 389 230 389 c 2,15,-1
 116 389 l 2,16,17
 83 389 83 389 66.5 370 c 128,-1,18
 50 351 50 351 50 319 c 2,19,-1
 50 237 l 1,20,-1
 172 237 l 2,21,22
 210 237 210 237 232 214.5 c 128,-1,23
 254 192 254 192 254 152 c 2,24,-1
 254 85 l 2,25,26
 254 45 254 45 232 22.5 c 128,-1,27
 210 0 210 0 172 0 c 2,0,-1
240 151 m 2,28,29
 240 183 240 183 223.5 202 c 128,-1,30
 207 221 207 221 172 221 c 2,31,-1
 50 221 l 1,32,-1
 50 86 l 2,33,34
 50 54 50 54 66 34.5 c 128,-1,35
 82 15 82 15 116 15 c 2,36,-1
 172 15 l 2,37,38
 207 15 207 15 223.5 34.5 c 128,-1,39
 240 54 240 54 240 86 c 2,40,-1
 240 151 l 2,28,29
EndSplineSet
EndChar

StartChar: seven
Encoding: 55 55 26
Width: 223
GlyphClass: 2
Flags: W
LayerCount: 2
Back
Fore
SplineSet
210 387 m 2,0,-1
 73 6 l 2,1,2
 70 0 70 0 67 0 c 2,3,-1
 60 0 l 2,4,5
 56 0 56 0 60 10 c 2,6,-1
 197 389 l 1,7,-1
 14 389 l 2,8,9
 11 389 11 389 11 394 c 2,10,-1
 11 400 l 2,11,12
 11 404 11 404 14 404 c 2,13,-1
 208 404 l 2,14,15
 212 404 212 404 212 400 c 2,16,-1
 212 395 l 2,17,18
 212 393 212 393 211.5 391.5 c 128,-1,19
 211 390 211 390 210 387 c 2,0,-1
EndSplineSet
EndChar

StartChar: eight
Encoding: 56 56 27
Width: 297
GlyphClass: 2
Flags: W
LayerCount: 2
Back
Fore
SplineSet
180 0 m 2,0,-1
 114 0 l 2,1,2
 77 0 77 0 55 15 c 128,-1,3
 33 30 33 30 33 73 c 2,4,-1
 33 139 l 2,5,6
 33 158 33 158 44 177.5 c 128,-1,7
 55 197 55 197 78 202 c 1,8,9
 55 207 55 207 44 228 c 128,-1,10
 33 249 33 249 33 269 c 2,11,-1
 33 321 l 2,12,13
 33 364 33 364 55 384 c 128,-1,14
 77 404 77 404 114 404 c 2,15,-1
 180 404 l 2,16,17
 217 404 217 404 238.5 384 c 128,-1,18
 260 364 260 364 260 321 c 2,19,-1
 260 269 l 2,20,21
 260 247 260 247 249 226.5 c 128,-1,22
 238 206 238 206 212 202 c 1,23,24
 238 197 238 197 249 178 c 128,-1,25
 260 159 260 159 260 139 c 2,26,-1
 260 73 l 2,27,28
 260 30 260 30 238.5 15 c 128,-1,29
 217 0 217 0 180 0 c 2,0,-1
246 321 m 2,30,31
 246 353 246 353 229.5 371 c 128,-1,32
 213 389 213 389 180 389 c 2,33,-1
 114 389 l 2,34,35
 81 389 81 389 64.5 371 c 128,-1,36
 48 353 48 353 48 321 c 2,37,-1
 48 269 l 2,38,39
 48 237 48 237 64.5 223.5 c 128,-1,40
 81 210 81 210 114 210 c 2,41,-1
 180 210 l 2,42,43
 213 210 213 210 229.5 223.5 c 128,-1,44
 246 237 246 237 246 269 c 2,45,-1
 246 321 l 2,30,31
246 138 m 2,46,47
 246 170 246 170 229.5 183 c 128,-1,48
 213 196 213 196 180 196 c 2,49,-1
 114 196 l 2,50,51
 81 196 81 196 64.5 183 c 128,-1,52
 48 170 48 170 48 138 c 2,53,-1
 48 73 l 2,54,55
 48 41 48 41 64.5 28 c 128,-1,56
 81 15 81 15 114 15 c 2,57,-1
 180 15 l 2,58,59
 213 15 213 15 229.5 28 c 128,-1,60
 246 41 246 41 246 73 c 2,61,-1
 246 138 l 2,46,47
EndSplineSet
EndChar

StartChar: nine
Encoding: 57 57 28
Width: 284
GlyphClass: 2
Flags: W
LayerCount: 2
Back
Fore
SplineSet
170 0 m 2,0,-1
 55 0 l 2,1,2
 52 0 52 0 52 4 c 2,3,-1
 52 11 l 2,4,5
 52 13 52 13 53 14 c 256,6,7
 54 15 54 15 55 15 c 2,8,-1
 170 15 l 2,9,10
 204 15 204 15 220.5 34.5 c 128,-1,11
 237 54 237 54 237 86 c 2,12,-1
 237 170 l 1,13,-1
 113 170 l 2,14,15
 77 170 77 170 55 191 c 128,-1,16
 33 212 33 212 33 252 c 2,17,-1
 33 320 l 2,18,19
 33 360 33 360 55 382 c 128,-1,20
 77 404 77 404 113 404 c 2,21,-1
 170 404 l 2,22,23
 207 404 207 404 229.5 382 c 128,-1,24
 252 360 252 360 252 320 c 2,25,-1
 252 85 l 2,26,27
 252 45 252 45 229.5 22.5 c 128,-1,28
 207 0 207 0 170 0 c 2,0,-1
237 319 m 2,29,30
 237 351 237 351 220.5 370 c 128,-1,31
 204 389 204 389 170 389 c 2,32,-1
 113 389 l 2,33,34
 80 389 80 389 63.5 370 c 128,-1,35
 47 351 47 351 47 319 c 2,36,-1
 47 253 l 2,37,38
 47 221 47 221 63.5 202 c 128,-1,39
 80 183 80 183 113 183 c 2,40,-1
 237 183 l 1,41,-1
 237 319 l 2,29,30
EndSplineSet
EndChar

StartChar: colon
Encoding: 58 58 29
Width: 96
GlyphClass: 2
Flags: W
LayerCount: 2
Back
Fore
SplineSet
55 344 m 2,0,1
 61 344 61 344 61 342 c 128,-1,2
 61 340 61 340 61 338 c 2,3,-1
 61 278 l 2,4,5
 61 271 61 271 55 271 c 0,6,7
 51 272 51 272 49.5 271.5 c 128,-1,8
 48 271 48 271 41 271 c 0,9,10
 37 271 37 271 36.5 274 c 128,-1,11
 36 277 36 277 36 278 c 2,12,-1
 36 338 l 2,13,14
 36 340 36 340 36.5 342 c 128,-1,15
 37 344 37 344 42 344 c 2,16,-1
 55 344 l 2,0,1
56 76 m 2,17,18
 58 76 58 76 59.5 74 c 128,-1,19
 61 72 61 72 61 70 c 2,20,-1
 61 5 l 2,21,22
 61 3 61 3 59 1 c 128,-1,23
 57 -1 57 -1 55 -1 c 2,24,-1
 43 -1 l 2,25,26
 38 -1 38 -1 37 1.5 c 128,-1,27
 36 4 36 4 36 5 c 2,28,-1
 36 70 l 2,29,30
 36 72 36 72 40 76 c 1,31,-1
 56 76 l 2,17,18
EndSplineSet
EndChar

StartChar: semicolon
Encoding: 59 59 30
Width: 98
GlyphClass: 2
Flags: W
LayerCount: 2
Back
Fore
SplineSet
60 69 m 2,0,1
 64 69 64 69 64.5 47 c 128,-1,2
 65 25 65 25 63 -1 c 128,-1,3
 61 -27 61 -27 58.5 -49 c 128,-1,4
 56 -71 56 -71 55 -71 c 2,5,-1
 50 -71 l 2,6,7
 47 -71 47 -71 47 -69 c 128,-1,8
 47 -67 47 -67 47 -66 c 2,9,-1
 40 61 l 2,10,11
 39 69 39 69 47 69 c 2,12,-1
 60 69 l 2,0,1
55 344 m 2,13,14
 61 344 61 344 61 342 c 128,-1,15
 61 340 61 340 61 338 c 2,16,-1
 61 278 l 2,17,18
 61 271 61 271 55 271 c 0,19,20
 51 272 51 272 49.5 271.5 c 128,-1,21
 48 271 48 271 41 271 c 0,22,23
 37 271 37 271 36.5 274 c 128,-1,24
 36 277 36 277 36 278 c 2,25,-1
 36 338 l 2,26,27
 36 340 36 340 36.5 342 c 128,-1,28
 37 344 37 344 42 344 c 2,29,-1
 55 344 l 2,13,14
EndSplineSet
EndChar

StartChar: less
Encoding: 60 60 31
Width: 353
GlyphClass: 2
Flags: W
LayerCount: 2
Back
Fore
SplineSet
317 115 m 0,0,1
 320 113 320 113 320 109 c 2,2,-1
 320 103 l 2,3,4
 320 100 320 100 317.5 100 c 128,-1,5
 315 100 315 100 313 100 c 2,6,-1
 22 203 l 2,7,8
 17 205 17 205 17 210 c 2,9,-1
 17 222 l 2,10,11
 17 227 17 227 23 229 c 2,12,-1
 316 345 l 2,13,14
 319 347 319 347 319.5 345 c 128,-1,15
 320 343 320 343 320 341 c 2,16,-1
 320 337 l 2,17,18
 320 331 320 331 318 330 c 2,19,-1
 34 219 l 2,20,21
 26 215 26 215 33 213 c 0,22,23
 50 207 50 207 77.5 197.5 c 128,-1,24
 105 188 105 188 136.5 177 c 128,-1,25
 168 166 168 166 200 155 c 128,-1,26
 232 144 232 144 257.5 135 c 128,-1,27
 283 126 283 126 299.5 120.5 c 128,-1,28
 316 115 316 115 317 115 c 0,0,1
EndSplineSet
EndChar

StartChar: equal
Encoding: 61 61 32
Width: 383
GlyphClass: 2
Flags: W
LayerCount: 2
Back
Fore
SplineSet
46 314 m 2,0,-1
 326 314 l 2,1,2
 334 314 334 314 334 310 c 2,3,-1
 334 302 l 2,4,5
 334 299 334 299 331 298.5 c 128,-1,6
 328 298 328 298 326 298 c 2,7,-1
 45 298 l 2,8,9
 40 298 40 298 40 302 c 2,10,-1
 40 310 l 2,11,12
 40 314 40 314 46 314 c 2,0,-1
48 164 m 2,13,-1
 327 164 l 2,14,15
 334 164 334 164 334 160 c 2,16,-1
 334 152 l 2,17,18
 334 148 334 148 329 148 c 2,19,-1
 45 148 l 2,20,21
 41 148 41 148 41 152 c 2,22,-1
 41 161 l 2,23,24
 41 164 41 164 48 164 c 2,13,-1
EndSplineSet
EndChar

StartChar: greater
Encoding: 62 62 33
Width: 383
GlyphClass: 2
Flags: W
LayerCount: 2
Back
Fore
SplineSet
20 115 m 0,0,1
 21 115 21 115 37.5 120.5 c 128,-1,2
 54 126 54 126 79.5 135 c 128,-1,3
 105 144 105 144 137 155 c 128,-1,4
 169 166 169 166 200.5 177 c 128,-1,5
 232 188 232 188 259.5 197.5 c 128,-1,6
 287 207 287 207 304 213 c 0,7,8
 311 215 311 215 303 219 c 2,9,-1
 19 330 l 2,10,11
 17 331 17 331 17 337 c 2,12,-1
 17 341 l 2,13,14
 17 343 17 343 17.5 345 c 128,-1,15
 18 347 18 347 21 345 c 2,16,-1
 314 229 l 2,17,18
 320 227 320 227 320 222 c 2,19,-1
 320 210 l 2,20,21
 320 205 320 205 315 203 c 2,22,-1
 24 100 l 2,23,24
 22 100 22 100 19.5 100 c 128,-1,25
 17 100 17 100 17 103 c 2,26,-1
 17 109 l 2,27,28
 17 113 17 113 20 115 c 0,0,1
EndSplineSet
EndChar

StartChar: question
Encoding: 63 63 34
Width: 297
GlyphClass: 2
Flags: W
LayerCount: 2
Back
Fore
SplineSet
215 255 m 0,0,1
 213 254 213 254 207.5 249 c 128,-1,2
 202 244 202 244 195 238 c 128,-1,3
 188 232 188 232 181.5 226 c 128,-1,4
 175 220 175 220 172 216 c 0,5,6
 163 202 163 202 162 193 c 128,-1,7
 161 184 161 184 161 169 c 2,8,-1
 161 142 l 2,9,10
 161 137 161 137 157 137 c 2,11,-1
 148 137 l 2,12,13
 143 137 143 137 143 142 c 2,14,-1
 143 166 l 2,15,16
 143 190 143 190 151 211 c 0,17,18
 160 226 160 226 175 240 c 128,-1,19
 190 254 190 254 204 266 c 0,20,21
 220 280 220 280 225.5 292.5 c 128,-1,22
 231 305 231 305 231 320 c 2,23,-1
 231 343 l 2,24,25
 231 377 231 377 213 396 c 128,-1,26
 195 415 195 415 160 415 c 2,27,-1
 129 415 l 2,28,29
 94 415 94 415 76.5 395.5 c 128,-1,30
 59 376 59 376 59 343 c 2,31,-1
 59 312 l 2,32,33
 59 310 59 310 59 307.5 c 128,-1,34
 59 305 59 305 56 305 c 2,35,-1
 46 305 l 2,36,37
 43 305 43 305 43 307.5 c 128,-1,38
 43 310 43 310 43 312 c 2,39,-1
 43 344 l 2,40,41
 43 387 43 387 67 410 c 128,-1,42
 91 433 91 433 129 433 c 2,43,-1
 160 433 l 2,44,45
 202 433 202 433 224.5 410 c 128,-1,46
 247 387 247 387 247 344 c 2,47,-1
 247 319 l 2,48,49
 247 282 247 282 215 255 c 0,0,1
159 0 m 1,50,-1
 145 0 l 2,51,52
 141 0 141 0 141 5 c 2,53,-1
 141 68 l 2,54,55
 141 70 141 70 141.5 73 c 128,-1,56
 142 76 142 76 145 76 c 2,57,-1
 159 76 l 2,58,59
 162 76 162 76 162 73 c 128,-1,60
 162 70 162 70 162 68 c 2,61,-1
 162 5 l 2,62,63
 162 3 162 3 160 1 c 2,64,-1
 159 0 l 1,50,-1
EndSplineSet
EndChar

StartChar: at
Encoding: 64 64 35
Width: 479
GlyphClass: 2
Flags: W
LayerCount: 2
Back
Fore
SplineSet
365 57 m 2,0,-1
 319 57 l 2,1,2
 314 57 314 57 314 68 c 2,3,-1
 314 88 l 2,4,5
 314 85 314 85 312 80 c 128,-1,6
 310 75 310 75 305.5 70 c 128,-1,7
 301 65 301 65 294 61 c 128,-1,8
 287 57 287 57 278 57 c 2,9,-1
 214 57 l 2,10,11
 202 57 202 57 189.5 60.5 c 128,-1,12
 177 64 177 64 167 72.5 c 128,-1,13
 157 81 157 81 150.5 95 c 128,-1,14
 144 109 144 109 144 129 c 2,15,-1
 144 219 l 2,16,17
 144 265 144 265 163.5 287.5 c 128,-1,18
 183 310 183 310 225 310 c 2,19,-1
 280 310 l 2,20,21
 306 310 306 310 316 297.5 c 128,-1,22
 326 285 326 285 326 268 c 2,23,-1
 326 71 l 1,24,-1
 356 71 l 2,25,26
 373 71 373 71 383.5 78 c 128,-1,27
 394 85 394 85 400 96 c 128,-1,28
 406 107 406 107 408 120.5 c 128,-1,29
 410 134 410 134 410 148 c 2,30,-1
 410 314 l 2,31,32
 410 349 410 349 393 369.5 c 128,-1,33
 376 390 376 390 341 390 c 2,34,-1
 213 390 l 2,35,36
 154 390 154 390 109 345 c 0,37,38
 88 323 88 323 76.5 295.5 c 128,-1,39
 65 268 65 268 65 236 c 2,40,-1
 65 132 l 2,41,42
 65 99 65 99 76.5 70.5 c 128,-1,43
 88 42 88 42 109 20 c 0,44,45
 151 -22 151 -22 212 -22 c 2,46,-1
 335 -22 l 2,47,48
 339 -22 339 -22 339 -29 c 2,49,-1
 339 -33 l 2,50,51
 339 -39 339 -39 335 -39 c 2,52,-1
 213 -39 l 2,53,54
 146 -39 146 -39 98 6 c 0,55,56
 48 53 48 53 48 133 c 2,57,-1
 48 235 l 2,58,59
 48 314 48 314 98 361 c 0,60,61
 147 407 147 407 213 407 c 2,62,-1
 340 407 l 2,63,64
 382 407 382 407 404 382.5 c 128,-1,65
 426 358 426 358 426 315 c 2,66,-1
 426 147 l 2,67,68
 426 104 426 104 407 80.5 c 128,-1,69
 388 57 388 57 365 57 c 2,0,-1
314 264 m 2,70,71
 314 296 314 296 277 296 c 2,72,-1
 226 296 l 2,73,74
 197 296 197 296 176.5 278.5 c 128,-1,75
 156 261 156 261 156 218 c 2,76,-1
 156 129 l 2,77,78
 156 97 156 97 174.5 84 c 128,-1,79
 193 71 193 71 220 71 c 2,80,-1
 276 71 l 2,81,82
 296 71 296 71 305 88.5 c 128,-1,83
 314 106 314 106 314 131 c 2,84,-1
 314 264 l 2,70,71
EndSplineSet
EndChar

StartChar: A
Encoding: 65 65 36
Width: 320
GlyphClass: 2
Flags: W
LayerCount: 2
Back
Fore
SplineSet
297 0 m 2,0,-1
 287 0 l 2,1,2
 284 0 284 0 283.5 3 c 128,-1,3
 283 6 283 6 282 8 c 2,4,-1
 246 114 l 1,5,-1
 73 114 l 1,6,-1
 36 6 l 2,7,8
 34 0 34 0 30 0 c 2,9,-1
 21 0 l 2,10,11
 20 0 20 0 18 1.5 c 128,-1,12
 16 3 16 3 17 6 c 2,13,-1
 145 394 l 2,14,15
 147 404 147 404 154 404 c 2,16,-1
 166 404 l 2,17,18
 171 404 171 404 172 398 c 2,19,-1
 301 6 l 2,20,21
 302 3 302 3 300 1.5 c 128,-1,22
 298 0 298 0 297 0 c 2,0,-1
156 382 m 2,23,-1
 79 135 l 1,24,-1
 238 135 l 1,25,-1
 162 382 l 2,26,27
 161 384 161 384 159 384.5 c 128,-1,28
 157 385 157 385 156 382 c 2,23,-1
EndSplineSet
EndChar

StartChar: B
Encoding: 66 66 37
Width: 316
GlyphClass: 2
Flags: W
LayerCount: 2
Back
Fore
SplineSet
193 0 m 2,0,-1
 48 0 l 2,1,2
 43 0 43 0 43 5 c 2,3,-1
 43 398 l 2,4,5
 43 404 43 404 48 404 c 2,6,-1
 188 404 l 2,7,8
 270 404 270 404 270 320 c 2,9,-1
 270 279 l 2,10,11
 270 269 270 269 267 256.5 c 128,-1,12
 264 244 264 244 258 233 c 128,-1,13
 252 222 252 222 243.5 214 c 128,-1,14
 235 206 235 206 225 205 c 1,15,16
 245 200 245 200 257.5 180 c 128,-1,17
 270 160 270 160 270 141 c 2,18,-1
 270 84 l 2,19,20
 270 41 270 41 250 20.5 c 128,-1,21
 230 0 230 0 193 0 c 2,0,-1
253 320 m 2,22,23
 253 351 253 351 236.5 368.5 c 128,-1,24
 220 386 220 386 188 386 c 2,25,-1
 61 386 l 1,26,-1
 61 213 l 1,27,-1
 188 213 l 2,28,29
 218 213 218 213 235.5 229.5 c 128,-1,30
 253 246 253 246 253 280 c 2,31,-1
 253 320 l 2,22,23
253 130 m 2,32,33
 253 160 253 160 239.5 178 c 128,-1,34
 226 196 226 196 188 196 c 2,35,-1
 61 196 l 1,36,-1
 61 18 l 1,37,-1
 193 18 l 2,38,39
 225 18 225 18 239 36 c 128,-1,40
 253 54 253 54 253 84 c 2,41,-1
 253 130 l 2,32,33
EndSplineSet
EndChar

StartChar: C
Encoding: 67 67 38
Width: 317
GlyphClass: 2
Flags: W
LayerCount: 2
Back
Fore
SplineSet
200 0 m 2,0,-1
 120 0 l 2,1,2
 38 0 38 0 38 86 c 2,3,-1
 38 318 l 2,4,5
 38 358 38 358 60 381 c 128,-1,6
 82 404 82 404 120 404 c 2,7,-1
 200 404 l 2,8,9
 237 404 237 404 258.5 381 c 128,-1,10
 280 358 280 358 280 318 c 2,11,-1
 280 289 l 2,12,13
 280 287 280 287 280 284 c 128,-1,14
 280 281 280 281 276 281 c 2,15,-1
 268 281 l 2,16,17
 263 281 263 281 263 289 c 2,18,-1
 263 318 l 2,19,20
 263 349 263 349 247.5 367.5 c 128,-1,21
 232 386 232 386 200 386 c 2,22,-1
 120 386 l 2,23,24
 87 386 87 386 71.5 367.5 c 128,-1,25
 56 349 56 349 56 318 c 2,26,-1
 56 87 l 2,27,28
 56 55 56 55 71.5 36.5 c 128,-1,29
 87 18 87 18 120 18 c 2,30,-1
 200 18 l 2,31,32
 232 18 232 18 247.5 36.5 c 128,-1,33
 263 55 263 55 263 87 c 2,34,-1
 263 116 l 2,35,36
 263 122 263 122 268 122 c 2,37,-1
 276 122 l 2,38,39
 280 122 280 122 280 116 c 2,40,-1
 280 86 l 2,41,42
 280 0 280 0 200 0 c 2,0,-1
EndSplineSet
EndChar

StartChar: D
Encoding: 68 68 39
Width: 330
GlyphClass: 2
Flags: W
LayerCount: 2
Back
Fore
SplineSet
201 0 m 2,0,-1
 50 0 l 2,1,2
 46 0 46 0 46 5 c 2,3,-1
 46 398 l 2,4,5
 46 404 46 404 50 404 c 2,6,-1
 201 404 l 2,7,8
 239 404 239 404 260.5 381 c 128,-1,9
 282 358 282 358 282 318 c 2,10,-1
 282 86 l 2,11,12
 282 0 282 0 201 0 c 2,0,-1
265 318 m 2,13,14
 265 349 265 349 249.5 367.5 c 128,-1,15
 234 386 234 386 201 386 c 2,16,-1
 64 386 l 1,17,-1
 64 18 l 1,18,-1
 201 18 l 2,19,20
 234 18 234 18 249.5 36.5 c 128,-1,21
 265 55 265 55 265 87 c 2,22,-1
 265 318 l 2,13,14
EndSplineSet
EndChar

StartChar: E
Encoding: 69 69 40
Width: 278
GlyphClass: 2
Flags: W
LayerCount: 2
Back
Fore
SplineSet
235 0 m 2,0,-1
 49 0 l 2,1,2
 45 0 45 0 45 5 c 2,3,-1
 45 398 l 2,4,5
 45 404 45 404 49 404 c 2,6,-1
 235 404 l 2,7,8
 239 404 239 404 239 399 c 2,9,-1
 239 391 l 2,10,11
 239 386 239 386 235 386 c 2,12,-1
 61 386 l 1,13,-1
 61 215 l 1,14,-1
 220 215 l 2,15,16
 221 215 221 215 222 214 c 0,17,18
 224 212 224 212 224 210 c 2,19,-1
 224 202 l 2,20,21
 224 197 224 197 220 197 c 2,22,-1
 61 197 l 1,23,-1
 61 18 l 1,24,-1
 235 18 l 2,25,26
 239 18 239 18 239 13 c 2,27,-1
 239 5 l 2,28,29
 239 0 239 0 235 0 c 2,0,-1
EndSplineSet
EndChar

StartChar: F
Encoding: 70 70 41
Width: 266
GlyphClass: 2
Flags: W
LayerCount: 2
Back
Fore
SplineSet
232 386 m 2,0,-1
 58 386 l 1,1,-1
 58 209 l 1,2,-1
 216 209 l 2,3,4
 220 209 220 209 220 205 c 2,5,-1
 220 198 l 2,6,7
 220 192 220 192 216 192 c 2,8,-1
 58 192 l 1,9,-1
 58 5 l 2,10,11
 58 0 58 0 54 0 c 2,12,-1
 46 0 l 2,13,14
 41 0 41 0 41 5 c 2,15,-1
 41 398 l 2,16,17
 41 404 41 404 46 404 c 2,18,-1
 232 404 l 2,19,20
 236 404 236 404 236 399 c 2,21,-1
 236 391 l 2,22,23
 236 386 236 386 232 386 c 2,0,-1
EndSplineSet
EndChar

StartChar: G
Encoding: 71 71 42
Width: 306
GlyphClass: 2
Flags: W
LayerCount: 2
Back
Fore
SplineSet
185 0 m 2,0,-1
 116 0 l 2,1,2
 78 0 78 0 57 21 c 128,-1,3
 36 42 36 42 36 86 c 2,4,-1
 36 318 l 2,5,6
 36 360 36 360 57 382 c 128,-1,7
 78 404 78 404 116 404 c 2,8,-1
 185 404 l 2,9,10
 223 404 223 404 244 382 c 128,-1,11
 265 360 265 360 265 318 c 2,12,-1
 265 289 l 2,13,14
 265 281 265 281 261 281 c 2,15,-1
 252 281 l 2,16,17
 248 281 248 281 248 284 c 128,-1,18
 248 287 248 287 248 289 c 2,19,-1
 248 318 l 2,20,21
 248 349 248 349 232.5 367.5 c 128,-1,22
 217 386 217 386 185 386 c 2,23,-1
 116 386 l 2,24,25
 84 386 84 386 68.5 367.5 c 128,-1,26
 53 349 53 349 53 318 c 2,27,-1
 53 87 l 2,28,29
 53 56 53 56 68.5 37 c 128,-1,30
 84 18 84 18 116 18 c 2,31,-1
 185 18 l 2,32,33
 217 18 217 18 232.5 37 c 128,-1,34
 248 56 248 56 248 87 c 2,35,-1
 248 186 l 1,36,-1
 162 186 l 2,37,38
 160 186 160 186 160 191 c 2,39,-1
 160 199 l 2,40,41
 160 201 160 201 160 203 c 128,-1,42
 160 205 160 205 162 205 c 2,43,-1
 254 205 l 2,44,45
 260 205 260 205 262.5 202.5 c 128,-1,46
 265 200 265 200 265 192 c 2,47,-1
 265 86 l 2,48,49
 265 42 265 42 244 21 c 128,-1,50
 223 0 223 0 185 0 c 2,0,-1
EndSplineSet
EndChar

StartChar: H
Encoding: 72 72 43
Width: 326
GlyphClass: 2
Flags: W
LayerCount: 2
Back
Fore
SplineSet
273 0 m 2,0,-1
 265 0 l 2,1,2
 260 0 260 0 260 5 c 2,3,-1
 260 197 l 1,4,-1
 60 197 l 1,5,-1
 60 5 l 2,6,7
 60 0 60 0 55 0 c 2,8,-1
 46 0 l 2,9,10
 41 0 41 0 41 5 c 2,11,-1
 41 398 l 2,12,13
 41 404 41 404 46 404 c 2,14,-1
 55 404 l 2,15,16
 58 404 58 404 59 403.5 c 128,-1,17
 60 403 60 403 60 398 c 2,18,-1
 60 215 l 1,19,-1
 260 215 l 1,20,-1
 260 398 l 2,21,22
 260 404 260 404 265 404 c 2,23,-1
 273 404 l 2,24,25
 275 404 275 404 276 403.5 c 128,-1,26
 277 403 277 403 277 398 c 2,27,-1
 277 5 l 2,28,29
 277 0 277 0 273 0 c 2,0,-1
EndSplineSet
EndChar

StartChar: I
Encoding: 73 73 44
Width: 108
GlyphClass: 2
Flags: W
LayerCount: 2
Back
Fore
SplineSet
58 1 m 2,0,-1
 51 1 l 2,1,2
 47 1 47 1 45.5 7.5 c 128,-1,3
 44 14 44 14 44 16 c 2,4,-1
 44 388 l 2,5,6
 44 390 44 390 45.5 397 c 128,-1,7
 47 404 47 404 51 404 c 2,8,-1
 58 404 l 2,9,10
 61 404 61 404 63 397.5 c 128,-1,11
 65 391 65 391 65 388 c 2,12,-1
 65 16 l 2,13,14
 65 13 65 13 64 7 c 128,-1,15
 63 1 63 1 58 1 c 2,0,-1
EndSplineSet
EndChar

StartChar: J
Encoding: 74 74 45
Width: 284
GlyphClass: 2
Flags: W
LayerCount: 2
Back
Fore
SplineSet
163 0 m 2,0,-1
 102 0 l 2,1,2
 64 0 64 0 43 21 c 128,-1,3
 22 42 22 42 22 86 c 2,4,-1
 22 137 l 2,5,6
 22 139 22 139 22.5 141 c 128,-1,7
 23 143 23 143 25 143 c 2,8,-1
 34 143 l 2,9,10
 38 143 38 143 38 137 c 2,11,-1
 38 87 l 2,12,13
 38 55 38 55 53.5 36.5 c 128,-1,14
 69 18 69 18 102 18 c 2,15,-1
 163 18 l 2,16,17
 195 18 195 18 211.5 36.5 c 128,-1,18
 228 55 228 55 228 87 c 2,19,-1
 228 398 l 2,20,21
 228 404 228 404 232 404 c 2,22,-1
 241 404 l 2,23,24
 245 404 245 404 245 399 c 2,25,-1
 245 86 l 2,26,27
 245 0 245 0 163 0 c 2,0,-1
EndSplineSet
EndChar

StartChar: K
Encoding: 75 75 46
Width: 310
GlyphClass: 2
Flags: W
LayerCount: 2
Back
Fore
SplineSet
280 0 m 2,0,-1
 272 0 l 2,1,2
 266 0 266 0 264 5 c 2,3,-1
 126 215 l 1,4,-1
 57 126 l 1,5,-1
 57 5 l 2,6,7
 57 0 57 0 52 0 c 2,8,-1
 44 0 l 2,9,10
 38 0 38 0 38 5 c 2,11,-1
 38 398 l 2,12,13
 38 404 38 404 44 404 c 2,14,-1
 52 404 l 2,15,16
 55 404 55 404 56 403.5 c 128,-1,17
 57 403 57 403 57 398 c 2,18,-1
 57 153 l 1,19,-1
 241 397 l 2,20,21
 245 402 245 402 247 403 c 128,-1,22
 249 404 249 404 250 404 c 2,23,-1
 262 404 l 2,24,25
 264 404 264 404 265 402 c 128,-1,26
 266 400 266 400 264 398 c 2,27,-1
 138 229 l 1,28,-1
 283 7 l 2,29,30
 285 5 285 5 284.5 2.5 c 128,-1,31
 284 0 284 0 280 0 c 2,0,-1
EndSplineSet
EndChar

StartChar: L
Encoding: 76 76 47
Width: 265
GlyphClass: 2
Flags: W
LayerCount: 2
Back
Fore
SplineSet
236 0 m 2,0,-1
 43 0 l 2,1,2
 38 0 38 0 38 5 c 2,3,-1
 38 398 l 2,4,5
 38 404 38 404 43 404 c 2,6,-1
 51 404 l 2,7,8
 56 404 56 404 56 398 c 2,9,-1
 56 19 l 1,10,-1
 236 19 l 1,11,-1
 237 18 l 2,12,13
 239 16 239 16 239 14 c 2,14,-1
 239 5 l 2,15,16
 239 0 239 0 236 0 c 2,0,-1
EndSplineSet
EndChar

StartChar: M
Encoding: 77 77 48
Width: 397
GlyphClass: 2
Flags: W
LayerCount: 2
Back
Fore
SplineSet
349 0 m 2,0,-1
 340 0 l 2,1,2
 335 0 335 0 335 5 c 2,3,-1
 335 372 l 1,4,-1
 211 92 l 2,5,6
 209 88 209 88 202 88 c 2,7,-1
 193 88 l 2,8,9
 188 88 188 88 185 92 c 2,10,-1
 60 374 l 1,11,-1
 60 5 l 2,12,13
 60 0 60 0 56 0 c 2,14,-1
 47 0 l 2,15,16
 41 0 41 0 41 5 c 2,17,-1
 41 398 l 2,18,19
 41 404 41 404 47 404 c 2,20,-1
 63 404 l 2,21,22
 66 404 66 404 67 402 c 2,23,-1
 198 109 l 1,24,-1
 327 401 l 2,25,26
 328 404 328 404 332 404 c 2,27,-1
 349 404 l 2,28,29
 351 404 351 404 352 403.5 c 128,-1,30
 353 403 353 403 353 398 c 2,31,-1
 353 5 l 2,32,33
 353 0 353 0 349 0 c 2,0,-1
EndSplineSet
EndChar

StartChar: N
Encoding: 78 78 49
Width: 327
GlyphClass: 2
Flags: W
LayerCount: 2
Back
Fore
SplineSet
267 38 m 1,0,-1
 267 398 l 2,1,2
 267 403 267 403 268 403.5 c 128,-1,3
 269 404 269 404 271 404 c 2,4,-1
 280 404 l 2,5,6
 282 404 282 404 283 403.5 c 128,-1,7
 284 403 284 403 284 398 c 2,8,-1
 284 5 l 2,9,10
 284 0 284 0 280 0 c 2,11,-1
 273 0 l 2,12,13
 268 0 268 0 266 5 c 2,14,-1
 60 364 l 1,15,-1
 60 5 l 2,16,17
 60 0 60 0 55 0 c 2,18,-1
 47 0 l 2,19,20
 41 0 41 0 41 5 c 2,21,-1
 41 398 l 2,22,23
 41 404 41 404 47 404 c 2,24,-1
 52 404 l 2,25,26
 57 404 57 404 61 397 c 2,27,-1
 267 38 l 1,0,-1
EndSplineSet
EndChar

StartChar: O
Encoding: 79 79 50
Width: 313
GlyphClass: 2
Flags: W
LayerCount: 2
Back
Fore
SplineSet
193 0 m 2,0,-1
 117 0 l 2,1,2
 79 0 79 0 57.5 21.5 c 128,-1,3
 36 43 36 43 36 86 c 2,4,-1
 36 318 l 2,5,6
 36 358 36 358 57.5 381 c 128,-1,7
 79 404 79 404 117 404 c 2,8,-1
 193 404 l 2,9,10
 231 404 231 404 253 381 c 128,-1,11
 275 358 275 358 275 318 c 2,12,-1
 275 86 l 2,13,14
 275 0 275 0 193 0 c 2,0,-1
257 318 m 2,15,16
 257 349 257 349 241.5 367.5 c 128,-1,17
 226 386 226 386 193 386 c 2,18,-1
 117 386 l 2,19,20
 84 386 84 386 68.5 367.5 c 128,-1,21
 53 349 53 349 53 318 c 2,22,-1
 53 87 l 2,23,24
 53 55 53 55 68.5 36.5 c 128,-1,25
 84 18 84 18 117 18 c 2,26,-1
 193 18 l 2,27,28
 226 18 226 18 241.5 36.5 c 128,-1,29
 257 55 257 55 257 87 c 2,30,-1
 257 318 l 2,15,16
EndSplineSet
EndChar

StartChar: P
Encoding: 80 80 51
Width: 303
GlyphClass: 2
Flags: W
LayerCount: 2
Back
Fore
SplineSet
185 155 m 2,0,-1
 59 155 l 1,1,-1
 59 5 l 2,2,3
 59 0 59 0 55 0 c 2,4,-1
 46 0 l 2,5,6
 41 0 41 0 41 5 c 2,7,-1
 41 398 l 2,8,9
 41 404 41 404 46 404 c 2,10,-1
 185 404 l 2,11,12
 223 404 223 404 244 382 c 128,-1,13
 265 360 265 360 265 318 c 2,14,-1
 265 242 l 2,15,16
 265 201 265 201 244 178 c 128,-1,17
 223 155 223 155 185 155 c 2,0,-1
249 318 m 2,18,19
 249 349 249 349 233.5 367.5 c 128,-1,20
 218 386 218 386 185 386 c 2,21,-1
 59 386 l 1,22,-1
 59 175 l 1,23,-1
 185 175 l 2,24,25
 215 175 215 175 232 191.5 c 128,-1,26
 249 208 249 208 249 243 c 2,27,-1
 249 318 l 2,18,19
EndSplineSet
EndChar

StartChar: Q
Encoding: 81 81 52
Width: 326
GlyphClass: 2
Flags: W
LayerCount: 2
Back
Fore
SplineSet
246 -84 m 2,0,-1
 240 -84 l 2,1,2
 236 -84 236 -84 231 -79 c 2,3,-1
 186 1 l 1,4,-1
 126 1 l 2,5,6
 88 1 88 1 66 22 c 128,-1,7
 44 43 44 43 44 86 c 2,8,-1
 44 319 l 2,9,10
 44 359 44 359 66 381.5 c 128,-1,11
 88 404 88 404 126 404 c 2,12,-1
 202 404 l 2,13,14
 240 404 240 404 261.5 381.5 c 128,-1,15
 283 359 283 359 283 319 c 2,16,-1
 283 86 l 2,17,18
 283 71 283 71 278.5 56 c 128,-1,19
 274 41 274 41 265 28.5 c 128,-1,20
 256 16 256 16 242.5 8.5 c 128,-1,21
 229 1 229 1 211 1 c 2,22,-1
 204 1 l 1,23,-1
 248 -77 l 2,24,25
 246 -73 246 -73 248 -78.5 c 128,-1,26
 250 -84 250 -84 246 -84 c 2,0,-1
266 318 m 2,27,28
 266 348 266 348 250.5 367.5 c 128,-1,29
 235 387 235 387 202 387 c 2,30,-1
 126 387 l 2,31,32
 94 387 94 387 77.5 368 c 128,-1,33
 61 349 61 349 61 318 c 2,34,-1
 61 87 l 2,35,36
 61 55 61 55 77.5 35.5 c 128,-1,37
 94 16 94 16 126 16 c 2,38,-1
 202 16 l 2,39,40
 235 16 235 16 250.5 36 c 128,-1,41
 266 56 266 56 266 87 c 2,42,-1
 266 318 l 2,27,28
EndSplineSet
EndChar

StartChar: R
Encoding: 82 82 53
Width: 302
GlyphClass: 2
Flags: W
LayerCount: 2
Back
Fore
SplineSet
268 0 m 2,0,-1
 256 0 l 2,1,2
 252 0 252 0 251 3 c 2,3,-1
 175 169 l 1,4,-1
 57 169 l 1,5,-1
 57 5 l 2,6,7
 57 0 57 0 51 0 c 2,8,-1
 44 0 l 2,9,10
 39 0 39 0 38.5 1 c 128,-1,11
 38 2 38 2 38 5 c 2,12,-1
 38 399 l 2,13,14
 38 404 38 404 44 404 c 2,15,-1
 180 404 l 2,16,17
 262 404 262 404 262 318 c 2,18,-1
 262 257 l 2,19,20
 262 213 262 213 244 191 c 128,-1,21
 226 169 226 169 194 169 c 1,22,-1
 269 6 l 2,23,24
 270 5 270 5 271 2.5 c 128,-1,25
 272 0 272 0 268 0 c 2,0,-1
245 318 m 2,26,27
 245 350 245 350 228.5 368.5 c 128,-1,28
 212 387 212 387 180 387 c 2,29,-1
 57 387 l 1,30,-1
 57 187 l 1,31,-1
 190 187 l 2,32,33
 220 187 220 187 232.5 206 c 128,-1,34
 245 225 245 225 245 257 c 2,35,-1
 245 318 l 2,26,27
EndSplineSet
EndChar

StartChar: S
Encoding: 83 83 54
Width: 303
GlyphClass: 2
Flags: W
LayerCount: 2
Back
Fore
SplineSet
187 0 m 2,0,-1
 114 0 l 2,1,2
 32 0 32 0 32 86 c 2,3,-1
 32 111 l 2,4,5
 32 118 32 118 36 118 c 2,6,-1
 46 118 l 2,7,8
 50 118 50 118 50 111 c 2,9,-1
 50 87 l 2,10,11
 50 55 50 55 65.5 36.5 c 128,-1,12
 81 18 81 18 114 18 c 2,13,-1
 187 18 l 2,14,15
 220 18 220 18 235.5 36.5 c 128,-1,16
 251 55 251 55 251 87 c 2,17,-1
 251 117 l 2,18,19
 251 145 251 145 228.5 163 c 128,-1,20
 206 181 206 181 174 188 c 0,21,22
 150 193 150 193 125.5 199 c 128,-1,23
 101 205 101 205 79 216 c 256,24,25
 57 227 57 227 44.5 242 c 128,-1,26
 32 257 32 257 32 280 c 2,27,-1
 32 318 l 2,28,29
 32 358 32 358 54 381 c 128,-1,30
 76 404 76 404 114 404 c 2,31,-1
 187 404 l 2,32,33
 225 404 225 404 246.5 381 c 128,-1,34
 268 358 268 358 268 318 c 2,35,-1
 268 301 l 2,36,37
 268 293 268 293 264 293 c 2,38,-1
 256 293 l 2,39,40
 251 293 251 293 251 301 c 2,41,-1
 251 318 l 2,42,43
 251 349 251 349 235.5 367.5 c 128,-1,44
 220 386 220 386 187 386 c 2,45,-1
 114 386 l 2,46,47
 81 386 81 386 65.5 367.5 c 128,-1,48
 50 349 50 349 50 318 c 2,49,-1
 50 281 l 2,50,51
 50 258 50 258 68.5 242 c 128,-1,52
 87 226 87 226 126 218 c 0,53,54
 151 213 151 213 175 207 c 128,-1,55
 199 201 199 201 222 189 c 0,56,57
 242 178 242 178 255 161.5 c 128,-1,58
 268 145 268 145 268 119 c 2,59,-1
 268 86 l 2,60,61
 268 0 268 0 187 0 c 2,0,-1
EndSplineSet
EndChar

StartChar: T
Encoding: 84 84 55
Width: 259
GlyphClass: 2
Flags: W
LayerCount: 2
Back
Fore
SplineSet
239 386 m 2,0,-1
 139 386 l 1,1,-1
 139 5 l 2,2,3
 139 0 139 0 133 0 c 2,4,-1
 127 0 l 2,5,6
 122 0 122 0 122 5 c 2,7,-1
 122 386 l 1,8,-1
 21 386 l 2,9,10
 16 386 16 386 16 391 c 2,11,-1
 16 399 l 2,12,13
 16 404 16 404 21 404 c 2,14,-1
 239 404 l 2,15,16
 243 404 243 404 243 399 c 2,17,-1
 243 391 l 2,18,19
 243 386 243 386 239 386 c 2,0,-1
EndSplineSet
EndChar

StartChar: U
Encoding: 85 85 56
Width: 310
GlyphClass: 2
Flags: W
LayerCount: 2
Back
Fore
SplineSet
189 0 m 2,0,-1
 120 0 l 2,1,2
 82 0 82 0 60.5 21.5 c 128,-1,3
 39 43 39 43 39 86 c 2,4,-1
 39 398 l 2,5,6
 39 404 39 404 44 404 c 2,7,-1
 51 404 l 2,8,9
 56 404 56 404 56 398 c 2,10,-1
 56 87 l 2,11,12
 56 55 56 55 71.5 36.5 c 128,-1,13
 87 18 87 18 120 18 c 2,14,-1
 189 18 l 2,15,16
 221 18 221 18 236.5 37 c 128,-1,17
 252 56 252 56 252 87 c 2,18,-1
 252 398 l 2,19,20
 252 404 252 404 257 404 c 2,21,-1
 266 404 l 2,22,23
 270 404 270 404 270 399 c 2,24,-1
 270 86 l 2,25,26
 270 43 270 43 248.5 21.5 c 128,-1,27
 227 0 227 0 189 0 c 2,0,-1
EndSplineSet
EndChar

StartChar: V
Encoding: 86 86 57
Width: 302
GlyphClass: 2
Flags: W
LayerCount: 2
Back
Fore
SplineSet
151 26 m 1,0,-1
 264 395 l 2,1,2
 266 397 266 397 266.5 399.5 c 128,-1,3
 267 402 267 402 269 404 c 2,4,-1
 280 404 l 2,5,6
 284 404 284 404 282 400 c 0,7,8
 279 392 279 392 270 361 c 128,-1,9
 261 330 261 330 248 288 c 128,-1,10
 235 246 235 246 221 198.5 c 128,-1,11
 207 151 207 151 194.5 110 c 128,-1,12
 182 69 182 69 173.5 39.5 c 128,-1,13
 165 10 165 10 164 5 c 0,14,15
 162 0 162 0 159 0 c 2,16,-1
 143 0 l 2,17,18
 140 0 140 0 139.5 3 c 128,-1,19
 139 6 139 6 138 8 c 2,20,21
 138 8 138 8 138.5 5.5 c 128,-1,22
 139 3 139 3 137.5 7.5 c 128,-1,23
 136 12 136 12 130.5 30.5 c 128,-1,24
 125 49 125 49 112 92.5 c 128,-1,25
 99 136 99 136 76.5 210 c 128,-1,26
 54 284 54 284 19 400 c 0,27,28
 18 404 18 404 22 404 c 2,29,-1
 32 404 l 2,30,31
 34 404 34 404 34.5 401 c 128,-1,32
 35 398 35 398 36 396 c 0,33,34
 36 395 36 395 35.5 398 c 128,-1,35
 35 401 35 401 36.5 396.5 c 128,-1,36
 38 392 38 392 43.5 374.5 c 128,-1,37
 49 357 49 357 61.5 316 c 128,-1,38
 74 275 74 275 95.5 205 c 128,-1,39
 117 135 117 135 151 26 c 1,0,-1
EndSplineSet
EndChar

StartChar: W
Encoding: 87 87 58
Width: 486
GlyphClass: 2
Flags: W
LayerCount: 2
Back
Fore
SplineSet
377 6 m 2,0,1
 376 1 376 1 374.5 0.5 c 128,-1,2
 373 0 373 0 371 0 c 2,3,-1
 355 0 l 2,4,5
 348 0 348 0 347 5 c 2,6,-1
 245 380 l 1,7,-1
 143 6 l 2,8,9
 141 0 141 0 136 0 c 2,10,-1
 120 0 l 2,11,12
 115 0 115 0 114 0.5 c 128,-1,13
 113 1 113 1 112 6 c 2,14,-1
 23 397 l 2,15,16
 21 404 21 404 29 404 c 2,17,-1
 36 404 l 2,18,19
 38 404 38 404 40 402.5 c 128,-1,20
 42 401 42 401 44 396 c 2,21,-1
 128 21 l 1,22,-1
 231 397 l 2,23,24
 233 402 233 402 235 403 c 128,-1,25
 237 404 237 404 239 404 c 2,26,-1
 250 404 l 2,27,28
 253 404 253 404 257 398 c 2,29,-1
 361 20 l 1,30,-1
 446 397 l 2,31,32
 449 404 449 404 454 404 c 2,33,-1
 462 404 l 2,34,35
 468 404 468 404 466 399 c 2,36,-1
 377 6 l 2,0,1
EndSplineSet
EndChar

StartChar: X
Encoding: 88 88 59
Width: 297
GlyphClass: 2
Flags: W
LayerCount: 2
Back
Fore
SplineSet
275 0 m 2,0,-1
 265 0 l 2,1,2
 263 0 263 0 256 5 c 2,3,-1
 149 202 l 1,4,-1
 42 5 l 2,5,6
 35 0 35 0 33 0 c 2,7,-1
 23 0 l 2,8,9
 18 0 18 0 22 8 c 2,10,-1
 137 214 l 1,11,-1
 28 396 l 2,12,13
 27 398 27 398 26.5 401 c 128,-1,14
 26 404 26 404 31 404 c 2,15,-1
 40 404 l 2,16,17
 42 404 42 404 44 403 c 128,-1,18
 46 402 46 402 49 397 c 2,19,-1
 149 227 l 1,20,-1
 250 397 l 2,21,22
 252 399 252 399 253 400.5 c 128,-1,23
 254 402 254 402 256 403 c 0,24,25
 256 404 256 404 257 404 c 2,26,-1
 268 404 l 2,27,28
 271 404 271 404 271 401.5 c 128,-1,29
 271 399 271 399 269 397 c 2,30,-1
 161 214 l 1,31,-1
 277 8 l 1,32,-1
 277 5 l 2,33,34
 277 0 277 0 275 0 c 2,0,-1
EndSplineSet
EndChar

StartChar: Y
Encoding: 89 89 60
Width: 296
GlyphClass: 2
Flags: W
LayerCount: 2
Back
Fore
SplineSet
156 155 m 1,0,-1
 156 5 l 2,1,2
 156 0 156 0 151 0 c 2,3,-1
 144 0 l 2,4,5
 140 0 140 0 140 5 c 2,6,-1
 140 155 l 1,7,-1
 19 397 l 2,8,9
 18 399 18 399 17.5 401.5 c 128,-1,10
 17 404 17 404 21 404 c 2,11,-1
 32 404 l 2,12,13
 37 404 37 404 37 402.5 c 128,-1,14
 37 401 37 401 38 400 c 256,15,16
 39 399 39 399 38.5 400.5 c 128,-1,17
 38 402 38 402 39.5 399 c 128,-1,18
 41 396 41 396 46 385 c 128,-1,19
 51 374 51 374 63 349.5 c 128,-1,20
 75 325 75 325 95.5 283 c 128,-1,21
 116 241 116 241 148 175 c 1,22,-1
 258 399 l 2,23,24
 260 404 260 404 265 404 c 2,25,-1
 274 404 l 2,26,27
 279 404 279 404 277 397 c 2,28,-1
 156 155 l 1,0,-1
EndSplineSet
EndChar

StartChar: Z
Encoding: 90 90 61
Width: 279
GlyphClass: 2
Flags: W
LayerCount: 2
Back
Fore
SplineSet
252 0 m 2,0,-1
 23 0 l 2,1,2
 19 0 19 0 19 5 c 2,3,-1
 19 17 l 1,4,-1
 19 18 l 2,5,6
 19 19 19 19 21 23 c 2,7,-1
 231 386 l 1,8,-1
 30 386 l 2,9,10
 25 386 25 386 25 391 c 2,11,-1
 25 399 l 2,12,13
 25 404 25 404 30 404 c 2,14,-1
 245 404 l 2,15,16
 250 404 250 404 250 399 c 2,17,-1
 250 387 l 2,18,19
 250 386 250 386 249.5 384 c 128,-1,20
 249 382 249 382 249 379 c 2,21,-1
 38 18 l 1,22,-1
 252 18 l 2,23,24
 257 18 257 18 257 13 c 2,25,-1
 257 5 l 2,26,27
 257 0 257 0 252 0 c 2,0,-1
EndSplineSet
EndChar

StartChar: bracketleft
Encoding: 91 91 62
Width: 147
GlyphClass: 2
Flags: W
LayerCount: 2
Back
Fore
SplineSet
110 -59 m 2,0,1
 116 -59 116 -59 116 -63 c 2,2,-1
 116 -65 l 2,3,4
 116 -68 116 -68 112.5 -69 c 128,-1,5
 109 -70 109 -70 110 -69 c 2,6,-1
 46 -69 l 2,7,8
 44 -69 44 -69 39.5 -69 c 128,-1,9
 35 -69 35 -69 35 -64 c 2,10,-1
 35 428 l 2,11,12
 35 430 35 430 37.5 432.5 c 128,-1,13
 40 435 40 435 46 435 c 2,14,-1
 111 435 l 2,15,16
 116 435 116 435 116 432 c 2,17,-1
 116 428 l 2,18,19
 116 425 116 425 111 425 c 2,20,-1
 43 425 l 1,21,-1
 43 -59 l 1,22,-1
 110 -59 l 2,0,1
EndSplineSet
EndChar

StartChar: backslash
Encoding: 92 92 63
Width: 220
GlyphClass: 2
Flags: W
LayerCount: 2
Back
Fore
SplineSet
36 441 m 0,0,1
 38 441 38 441 40 436 c 2,2,-1
 191 -21 l 2,3,4
 192 -23 192 -23 192.5 -25 c 128,-1,5
 193 -27 193 -27 189 -28 c 0,6,7
 182 -30 182 -30 181 -28.5 c 128,-1,8
 180 -27 180 -27 176 -22 c 2,9,-1
 27 433 l 2,10,11
 24 440 24 440 26.5 440.5 c 128,-1,12
 29 441 29 441 36 441 c 0,0,1
EndSplineSet
EndChar

StartChar: bracketright
Encoding: 93 93 64
Width: 153
GlyphClass: 2
Flags: W
LayerCount: 2
Back
Fore
SplineSet
116 -64 m 2,0,1
 116 -69 116 -69 111.5 -69 c 128,-1,2
 107 -69 107 -69 105 -69 c 2,3,-1
 41 -69 l 2,4,5
 42 -70 42 -70 38.5 -69 c 128,-1,6
 35 -68 35 -68 35 -65 c 2,7,-1
 35 -63 l 2,8,9
 35 -59 35 -59 41 -59 c 2,10,-1
 109 -59 l 1,11,-1
 109 425 l 1,12,-1
 40 425 l 2,13,14
 35 425 35 425 35 428 c 2,15,-1
 35 432 l 2,16,17
 35 435 35 435 40 435 c 2,18,-1
 105 435 l 2,19,20
 111 435 111 435 113.5 432.5 c 128,-1,21
 116 430 116 430 116 428 c 2,22,-1
 116 -64 l 2,0,1
EndSplineSet
EndChar

StartChar: asciicircum
Encoding: 94 94 65
Width: 290
GlyphClass: 2
Flags: W
LayerCount: 2
Back
Fore
SplineSet
236 222 m 2,0,1
 232 222 232 222 231.5 223.5 c 128,-1,2
 231 225 231 225 229 228 c 2,3,-1
 143 405 l 2,4,5
 141 410 141 410 137.5 409 c 128,-1,6
 134 408 134 408 132 405 c 2,7,-1
 48 226 l 2,8,9
 44 222 44 222 41 222 c 2,10,-1
 36 222 l 2,11,12
 33 222 33 222 32 222.5 c 128,-1,13
 31 223 31 223 33 227 c 2,14,-1
 121 416 l 2,15,16
 123 418 123 418 125 420.5 c 128,-1,17
 127 423 127 423 131 423 c 2,18,-1
 145 423 l 2,19,20
 148 423 148 423 150.5 420.5 c 128,-1,21
 153 418 153 418 155 416 c 2,22,-1
 244 228 l 2,23,24
 245 226 245 226 244.5 224 c 128,-1,25
 244 222 244 222 242 222 c 2,26,-1
 236 222 l 2,0,1
EndSplineSet
EndChar

StartChar: underscore
Encoding: 95 95 66
Width: 225
GlyphClass: 2
Flags: W
LayerCount: 2
Back
Fore
SplineSet
202 -52 m 2,0,-1
 24 -52 l 2,1,2
 18 -50 18 -50 17.5 -40.5 c 128,-1,3
 17 -31 17 -31 26 -29 c 2,4,-1
 200 -29 l 2,5,6
 204 -29 204 -29 206.5 -32.5 c 128,-1,7
 209 -36 209 -36 209.5 -40 c 128,-1,8
 210 -44 210 -44 208 -47.5 c 128,-1,9
 206 -51 206 -51 202 -52 c 2,0,-1
EndSplineSet
EndChar

StartChar: grave
Encoding: 96 96 67
Width: 139
GlyphClass: 2
Flags: W
LayerCount: 2
Back
Fore
SplineSet
103 348 m 2,0,-1
 100 348 l 2,1,2
 98 348 98 348 98 349 c 128,-1,3
 98 350 98 350 97 351 c 2,4,-1
 39 424 l 2,5,6
 38 426 38 426 39.5 426.5 c 128,-1,7
 41 427 41 427 43 427 c 2,8,-1
 53 427 l 2,9,10
 54 425 54 425 62 413.5 c 128,-1,11
 70 402 70 402 79 388 c 0,12,13
 90 371 90 371 103 351 c 0,14,15
 106 348 106 348 103 348 c 2,0,-1
EndSplineSet
EndChar

StartChar: a
Encoding: 97 97 68
Width: 255
GlyphClass: 2
Flags: W
LayerCount: 2
Back
Fore
SplineSet
217 0 m 2,0,-1
 210 0 l 2,1,2
 208 0 208 0 208.5 11.5 c 128,-1,3
 209 23 209 23 209 34 c 1,4,5
 207 25 207 25 198 18.5 c 128,-1,6
 189 12 189 12 178.5 8 c 128,-1,7
 168 4 168 4 157.5 2 c 128,-1,8
 147 0 147 0 143 0 c 2,9,-1
 101 0 l 2,10,11
 66 0 66 0 46.5 20 c 128,-1,12
 27 40 27 40 27 78 c 2,13,-1
 27 216 l 2,14,15
 27 254 27 254 46.5 274 c 128,-1,16
 66 294 66 294 101 294 c 2,17,-1
 165 294 l 2,18,19
 220 294 220 294 220 238 c 2,20,-1
 220 4 l 2,21,22
 220 0 220 0 217 0 c 2,0,-1
168 282 m 2,23,-1
 101 282 l 2,24,25
 69 282 69 282 54 264 c 128,-1,26
 39 246 39 246 39 216 c 2,27,-1
 39 79 l 2,28,29
 39 48 39 48 54 29.5 c 128,-1,30
 69 11 69 11 101 11 c 2,31,-1
 142 11 l 2,32,33
 173 11 173 11 191 28 c 128,-1,34
 209 45 209 45 209 75 c 2,35,-1
 209 226 l 2,36,37
 209 248 209 248 200.5 265 c 128,-1,38
 192 282 192 282 168 282 c 2,23,-1
EndSplineSet
EndChar

StartChar: b
Encoding: 98 98 69
Width: 262
GlyphClass: 2
Flags: W
LayerCount: 2
Back
Fore
SplineSet
152 0 m 2,0,-1
 35 0 l 2,1,2
 33 0 33 0 33 4 c 2,3,-1
 33 401 l 2,4,5
 33 405 33 405 35 405 c 2,6,-1
 43 405 l 2,7,8
 45 405 45 405 45 401 c 2,9,-1
 45 266 l 1,10,11
 51 284 51 284 72 292 c 128,-1,12
 93 300 93 300 110 300 c 2,13,-1
 152 300 l 2,14,15
 185 300 185 300 205.5 279.5 c 128,-1,16
 226 259 226 259 226 221 c 2,17,-1
 226 79 l 2,18,19
 226 38 226 38 206 19 c 128,-1,20
 186 0 186 0 152 0 c 2,0,-1
213 220 m 2,21,22
 213 249 213 249 198.5 268 c 128,-1,23
 184 287 184 287 152 287 c 2,24,-1
 110 287 l 2,25,26
 78 287 78 287 61.5 269.5 c 128,-1,27
 45 252 45 252 45 223 c 2,28,-1
 45 15 l 1,29,-1
 152 15 l 2,30,31
 184 15 184 15 198.5 33 c 128,-1,32
 213 51 213 51 213 80 c 2,33,-1
 213 220 l 2,21,22
EndSplineSet
EndChar

StartChar: c
Encoding: 99 99 70
Width: 208
GlyphClass: 2
Flags: W
LayerCount: 2
Back
Fore
SplineSet
181 0 m 2,0,-1
 101 0 l 2,1,2
 69 0 69 0 48 20 c 128,-1,3
 27 40 27 40 27 78 c 2,4,-1
 27 216 l 2,5,6
 27 254 27 254 48 274 c 128,-1,7
 69 294 69 294 101 294 c 2,8,-1
 181 294 l 2,9,10
 183 294 183 294 183 291 c 2,11,-1
 183 286 l 2,12,13
 183 283 183 283 181 283 c 2,14,-1
 101 283 l 2,15,16
 70 283 70 283 54.5 264 c 128,-1,17
 39 245 39 245 39 216 c 2,18,-1
 39 79 l 2,19,20
 39 49 39 49 54.5 30 c 128,-1,21
 70 11 70 11 101 11 c 2,22,-1
 181 11 l 2,23,24
 183 11 183 11 183 8 c 2,25,-1
 183 3 l 2,26,27
 183 0 183 0 181 0 c 2,0,-1
EndSplineSet
EndChar

StartChar: d
Encoding: 100 100 71
Width: 261
GlyphClass: 2
Flags: W
LayerCount: 2
Back
Fore
SplineSet
217 0 m 2,0,-1
 210 0 l 2,1,2
 208 0 208 0 207.5 10 c 128,-1,3
 207 20 207 20 207 30 c 1,4,5
 203 22 203 22 194.5 16 c 128,-1,6
 186 10 186 10 176.5 6.5 c 128,-1,7
 167 3 167 3 157.5 1.5 c 128,-1,8
 148 0 148 0 143 0 c 2,9,-1
 101 0 l 2,10,11
 66 0 66 0 46.5 19 c 128,-1,12
 27 38 27 38 27 79 c 2,13,-1
 27 216 l 2,14,15
 27 256 27 256 46.5 275 c 128,-1,16
 66 294 66 294 101 294 c 2,17,-1
 143 294 l 2,18,19
 148 294 148 294 156.5 293 c 128,-1,20
 165 292 165 292 174.5 289 c 128,-1,21
 184 286 184 286 193 280 c 128,-1,22
 202 274 202 274 208 264 c 1,23,-1
 208 401 l 2,24,25
 208 405 208 405 210 405 c 2,26,-1
 217 405 l 2,27,28
 220 405 220 405 220 401 c 2,29,-1
 220 4 l 2,30,31
 220 0 220 0 217 0 c 2,0,-1
208 218 m 2,32,33
 208 247 208 247 191 264.5 c 128,-1,34
 174 282 174 282 142 282 c 2,35,-1
 101 282 l 2,36,37
 69 282 69 282 54 263.5 c 128,-1,38
 39 245 39 245 39 216 c 2,39,-1
 39 80 l 2,40,41
 39 51 39 51 54 31.5 c 128,-1,42
 69 12 69 12 101 12 c 2,43,-1
 142 12 l 2,44,45
 173 12 173 12 190.5 29 c 128,-1,46
 208 46 208 46 208 76 c 2,47,-1
 208 218 l 2,32,33
EndSplineSet
EndChar

StartChar: e
Encoding: 101 101 72
Width: 256
GlyphClass: 2
Flags: W
LayerCount: 2
Back
Fore
SplineSet
222 138 m 2,0,-1
 39 138 l 1,1,-1
 39 79 l 2,2,3
 39 48 39 48 54 30.5 c 128,-1,4
 69 13 69 13 101 13 c 2,5,-1
 218 13 l 2,6,7
 221 13 221 13 221 10 c 2,8,-1
 221 3 l 2,9,10
 221 0 221 0 218 0 c 2,11,-1
 101 0 l 2,12,13
 66 0 66 0 46.5 20 c 128,-1,14
 27 40 27 40 27 78 c 2,15,-1
 27 216 l 2,16,17
 27 254 27 254 46.5 274 c 128,-1,18
 66 294 66 294 101 294 c 2,19,-1
 150 294 l 2,20,21
 185 294 185 294 204.5 274 c 128,-1,22
 224 254 224 254 224 216 c 2,23,-1
 224 143 l 2,24,25
 224 138 224 138 222 138 c 2,0,-1
212 216 m 2,26,27
 212 246 212 246 197 263.5 c 128,-1,28
 182 281 182 281 150 281 c 2,29,-1
 101 281 l 2,30,31
 69 281 69 281 54 263.5 c 128,-1,32
 39 246 39 246 39 216 c 2,33,-1
 39 151 l 1,34,-1
 212 151 l 1,35,-1
 212 216 l 2,26,27
EndSplineSet
EndChar

StartChar: f
Encoding: 102 102 73
Width: 172
GlyphClass: 2
Flags: W
LayerCount: 2
Back
Fore
SplineSet
145 283 m 2,0,-1
 83 283 l 1,1,-1
 83 4 l 2,2,3
 83 0 83 0 81 0 c 2,4,-1
 77 0 l 2,5,6
 74 0 74 0 74 4 c 2,7,-1
 74 283 l 1,8,-1
 25 283 l 2,9,10
 23 283 23 283 23 286 c 2,11,-1
 23 290 l 2,12,13
 23 294 23 294 25 294 c 2,14,-1
 74 294 l 1,15,-1
 74 328 l 2,16,17
 74 372 74 372 90.5 387.5 c 128,-1,18
 107 403 107 403 136 403 c 2,19,-1
 145 403 l 2,20,21
 147 403 147 403 147 400 c 2,22,-1
 147 398 l 2,23,24
 147 394 147 394 145 394 c 2,25,-1
 136 394 l 2,26,27
 107 394 107 394 95 375.5 c 128,-1,28
 83 357 83 357 83 327 c 2,29,-1
 83 294 l 1,30,-1
 145 294 l 2,31,32
 147 294 147 294 147 290 c 2,33,-1
 147 286 l 2,34,35
 147 283 147 283 145 283 c 2,0,-1
EndSplineSet
EndChar

StartChar: g
Encoding: 103 103 74
Width: 257
GlyphClass: 2
Flags: W
LayerCount: 2
Back
Fore
SplineSet
149 -77 m 2,0,-1
 47 -77 l 2,1,2
 44 -77 44 -77 44 -73 c 2,3,-1
 44 -68 l 2,4,5
 44 -65 44 -65 47 -65 c 2,6,-1
 149 -65 l 2,7,8
 181 -65 181 -65 196.5 -46 c 128,-1,9
 212 -27 212 -27 212 2 c 2,10,-1
 212 57 l 1,11,12
 207 44 207 44 198.5 36.5 c 128,-1,13
 190 29 190 29 180 25 c 128,-1,14
 170 21 170 21 160.5 19.5 c 128,-1,15
 151 18 151 18 146 18 c 2,16,-1
 104 18 l 2,17,18
 70 18 70 18 50 37 c 128,-1,19
 30 56 30 56 30 96 c 2,20,-1
 30 216 l 2,21,22
 30 256 30 256 50 275 c 128,-1,23
 70 294 70 294 104 294 c 2,24,-1
 221 294 l 2,25,26
 223 294 223 294 223 291 c 2,27,-1
 223 1 l 2,28,29
 223 -39 223 -39 203 -58 c 128,-1,30
 183 -77 183 -77 149 -77 c 2,0,-1
101 282 m 2,31,32
 69 282 69 282 56 263.5 c 128,-1,33
 43 245 43 245 43 216 c 2,34,-1
 43 96 l 2,35,36
 43 67 43 67 58 48.5 c 128,-1,37
 73 30 73 30 104 30 c 2,38,-1
 146 30 l 2,39,40
 178 30 178 30 195 47.5 c 128,-1,41
 212 65 212 65 212 94 c 2,42,-1
 212 282 l 1,43,-1
 101 282 l 2,31,32
EndSplineSet
EndChar

StartChar: h
Encoding: 104 104 75
Width: 261
GlyphClass: 2
Flags: W
LayerCount: 2
Back
Fore
SplineSet
223 0 m 2,0,-1
 215 0 l 2,1,2
 213 0 213 0 213 4 c 2,3,-1
 213 216 l 2,4,5
 213 245 213 245 198 263.5 c 128,-1,6
 183 282 183 282 152 282 c 2,7,-1
 110 282 l 2,8,9
 78 282 78 282 61.5 264.5 c 128,-1,10
 45 247 45 247 45 218 c 2,11,-1
 45 4 l 2,12,13
 45 0 45 0 43 0 c 2,14,-1
 35 0 l 2,15,16
 33 0 33 0 33 4 c 2,17,-1
 33 401 l 2,18,19
 33 405 33 405 35 405 c 2,20,-1
 43 405 l 2,21,22
 45 405 45 405 45 401 c 2,23,-1
 45 259 l 1,24,25
 50 271 50 271 58.5 278 c 128,-1,26
 67 285 67 285 76.5 288.5 c 128,-1,27
 86 292 86 292 95 293 c 128,-1,28
 104 294 104 294 110 294 c 2,29,-1
 152 294 l 2,30,31
 186 294 186 294 206 275 c 128,-1,32
 226 256 226 256 226 216 c 2,33,-1
 226 4 l 2,34,35
 226 0 226 0 223 0 c 2,0,-1
EndSplineSet
EndChar

StartChar: i
Encoding: 105 105 76
Width: 98
GlyphClass: 2
Flags: W
LayerCount: 2
Back
Fore
SplineSet
36 345 m 2,0,1
 32 345 32 345 32 353 c 2,2,-1
 32 397 l 2,3,4
 32 403 32 403 33 403.5 c 128,-1,5
 34 404 34 404 36 404 c 2,6,-1
 42 404 l 2,7,8
 45 404 45 404 46 403.5 c 128,-1,9
 47 403 47 403 47 397 c 2,10,-1
 47 353 l 2,11,12
 47 345 47 345 42 345 c 2,13,-1
 36 345 l 2,0,1
36 0 m 2,14,15
 34 0 34 0 33 1 c 128,-1,16
 32 2 32 2 32 7 c 2,17,-1
 32 294 l 2,18,19
 32 300 32 300 33 300.5 c 128,-1,20
 34 301 34 301 36 301 c 2,21,-1
 42 301 l 2,22,23
 45 301 45 301 46 300.5 c 128,-1,24
 47 300 47 300 47 294 c 2,25,-1
 47 7 l 2,26,27
 47 2 47 2 46 1 c 128,-1,28
 45 0 45 0 42 0 c 2,29,-1
 36 0 l 2,14,15
EndSplineSet
EndChar

StartChar: j
Encoding: 106 106 77
Width: 101
GlyphClass: 2
Flags: W
LayerCount: 2
Back
Fore
SplineSet
66 351 m 2,0,-1
 59 351 l 2,1,2
 55 351 55 351 55 355 c 2,3,-1
 55 400 l 2,4,5
 55 404 55 404 59 404 c 2,6,-1
 66 404 l 2,7,8
 69 404 69 404 69 400 c 2,9,-1
 69 355 l 2,10,11
 69 351 69 351 66 351 c 2,0,-1
-11 -77 m 2,12,-1
 -17 -77 l 2,13,14
 -22 -77 -22 -77 -22 -73 c 2,15,-1
 -22 -67 l 2,16,17
 -22 -62 -22 -62 -17 -62 c 2,18,-1
 -11 -62 l 2,19,20
 24 -62 24 -62 39.5 -43.5 c 128,-1,21
 55 -25 55 -25 55 2 c 2,22,-1
 55 289 l 2,23,24
 55 294 55 294 58 294 c 2,25,-1
 65 294 l 2,26,27
 69 294 69 294 69 289 c 2,28,-1
 69 1 l 2,29,30
 69 -77 69 -77 -11 -77 c 2,12,-1
EndSplineSet
EndChar

StartChar: k
Encoding: 107 107 78
Width: 230
GlyphClass: 2
Flags: W
LayerCount: 2
Back
Fore
SplineSet
210 0 m 2,0,-1
 204 0 l 2,1,2
 198 0 198 0 195 4 c 2,3,-1
 96 149 l 2,4,5
 94 152 94 152 96 156 c 2,6,-1
 185 290 l 2,7,8
 185 291 185 291 187 292.5 c 128,-1,9
 189 294 189 294 191 294 c 2,10,-1
 198 294 l 2,11,12
 201 294 201 294 198 291 c 2,13,-1
 108 152 l 1,14,-1
 211 3 l 2,15,16
 214 0 214 0 210 0 c 2,0,-1
43 0 m 2,17,-1
 35 0 l 2,18,19
 33 0 33 0 33 4 c 2,20,-1
 33 401 l 2,21,22
 33 405 33 405 35 405 c 2,23,-1
 43 405 l 2,24,25
 45 405 45 405 45 401 c 2,26,-1
 45 4 l 2,27,28
 45 0 45 0 43 0 c 2,17,-1
EndSplineSet
EndChar

StartChar: l
Encoding: 108 108 79
Width: 98
GlyphClass: 2
Flags: W
LayerCount: 2
Back
Fore
SplineSet
44 0 m 2,0,-1
 38 0 l 2,1,2
 34 0 34 0 33.5 4.5 c 128,-1,3
 33 9 33 9 33 10 c 2,4,-1
 33 391 l 2,5,6
 33 393 33 393 33 399 c 128,-1,7
 33 405 33 405 38 405 c 2,8,-1
 44 405 l 2,9,10
 48 405 48 405 48.5 399.5 c 128,-1,11
 49 394 49 394 49 392 c 2,12,-1
 49 10 l 2,13,14
 49 7 49 7 48 5 c 0,15,16
 46 0 46 0 44 0 c 2,0,-1
EndSplineSet
EndChar

StartChar: m
Encoding: 109 109 80
Width: 410
GlyphClass: 2
Flags: W
LayerCount: 2
Back
Fore
SplineSet
371 0 m 2,0,-1
 364 0 l 2,1,2
 361 0 361 0 361 4 c 2,3,-1
 361 216 l 2,4,5
 361 247 361 247 345.5 264 c 128,-1,6
 330 281 330 281 300 281 c 2,7,-1
 278 281 l 2,8,9
 247 281 247 281 228.5 263.5 c 128,-1,10
 210 246 210 246 210 216 c 2,11,-1
 210 4 l 2,12,13
 210 0 210 0 208 0 c 2,14,-1
 200 0 l 2,15,16
 197 0 197 0 197 4 c 2,17,-1
 197 216 l 2,18,19
 197 247 197 247 181.5 264 c 128,-1,20
 166 281 166 281 136 281 c 2,21,-1
 112 281 l 2,22,23
 81 281 81 281 64 265.5 c 128,-1,24
 47 250 47 250 47 219 c 2,25,-1
 47 4 l 2,26,27
 47 0 47 0 43 0 c 2,28,-1
 36 0 l 2,29,30
 33 0 33 0 33 4 c 2,31,-1
 33 291 l 2,32,33
 33 294 33 294 36 294 c 2,34,-1
 43 294 l 2,35,36
 46 294 46 294 46 289 c 2,37,-1
 46 261 l 1,38,39
 50 271 50 271 58 277 c 128,-1,40
 66 283 66 283 76 287 c 128,-1,41
 86 291 86 291 95.5 292.5 c 128,-1,42
 105 294 105 294 111 294 c 2,43,-1
 136 294 l 2,44,45
 156 294 156 294 177 283.5 c 128,-1,46
 198 273 198 273 205 250 c 1,47,48
 208 261 208 261 215.5 269.5 c 128,-1,49
 223 278 223 278 233.5 283.5 c 128,-1,50
 244 289 244 289 255.5 291.5 c 128,-1,51
 267 294 267 294 278 294 c 2,52,-1
 300 294 l 2,53,54
 335 294 335 294 355 273.5 c 128,-1,55
 375 253 375 253 375 216 c 2,56,-1
 375 4 l 2,57,58
 375 0 375 0 371 0 c 2,0,-1
EndSplineSet
EndChar

StartChar: n
Encoding: 110 110 81
Width: 259
GlyphClass: 2
Flags: W
LayerCount: 2
Back
Fore
SplineSet
223 0 m 2,0,-1
 215 0 l 2,1,2
 213 0 213 0 213 4 c 2,3,-1
 213 216 l 2,4,5
 213 246 213 246 198 263.5 c 128,-1,6
 183 281 183 281 152 281 c 2,7,-1
 110 281 l 2,8,9
 78 281 78 281 61 265 c 128,-1,10
 44 249 44 249 44 219 c 2,11,-1
 45 4 l 2,12,13
 45 0 45 0 43 0 c 2,14,-1
 35 0 l 2,15,16
 33 0 33 0 33 4 c 2,17,-1
 33 291 l 2,18,19
 33 294 33 294 35 294 c 2,20,-1
 43 294 l 2,21,22
 44 294 44 294 44 287 c 2,23,-1
 44 276 l 1,24,-1
 44 260 l 2,25,26
 47 270 47 270 55.5 276.5 c 128,-1,27
 64 283 64 283 74.5 287 c 128,-1,28
 85 291 85 291 94.5 292.5 c 128,-1,29
 104 294 104 294 110 294 c 2,30,-1
 152 294 l 2,31,32
 186 294 186 294 206 274 c 128,-1,33
 226 254 226 254 226 216 c 2,34,-1
 226 4 l 2,35,36
 226 0 226 0 223 0 c 2,0,-1
EndSplineSet
EndChar

StartChar: o
Encoding: 111 111 82
Width: 257
GlyphClass: 2
Flags: W
LayerCount: 2
Back
Fore
SplineSet
149 0 m 2,0,-1
 101 0 l 2,1,2
 66 0 66 0 46.5 20 c 128,-1,3
 27 40 27 40 27 78 c 2,4,-1
 27 216 l 2,5,6
 27 254 27 254 46.5 274 c 128,-1,7
 66 294 66 294 101 294 c 2,8,-1
 149 294 l 2,9,10
 183 294 183 294 203 274 c 128,-1,11
 223 254 223 254 223 216 c 2,12,-1
 223 78 l 2,13,14
 223 40 223 40 203 20 c 128,-1,15
 183 0 183 0 149 0 c 2,0,-1
210 216 m 2,16,17
 210 246 210 246 195 263.5 c 128,-1,18
 180 281 180 281 149 281 c 2,19,-1
 101 281 l 2,20,21
 69 281 69 281 54 263.5 c 128,-1,22
 39 246 39 246 39 216 c 2,23,-1
 39 79 l 2,24,25
 39 48 39 48 54 30.5 c 128,-1,26
 69 13 69 13 101 13 c 2,27,-1
 149 13 l 2,28,29
 180 13 180 13 195 31 c 128,-1,30
 210 49 210 49 210 79 c 2,31,-1
 210 216 l 2,16,17
EndSplineSet
EndChar

StartChar: p
Encoding: 112 112 83
Width: 267
GlyphClass: 2
Flags: W
LayerCount: 2
Back
Fore
SplineSet
159 0 m 2,0,-1
 117 0 l 2,1,2
 112 0 112 0 102.5 1.5 c 128,-1,3
 93 3 93 3 83.5 7 c 128,-1,4
 74 11 74 11 65 17.5 c 128,-1,5
 56 24 56 24 52 34 c 1,6,-1
 52 -85 l 2,7,8
 52 -89 52 -89 50 -89 c 2,9,-1
 42 -89 l 2,10,11
 40 -89 40 -89 40 -85 c 2,12,-1
 40 291 l 2,13,14
 40 294 40 294 42 294 c 2,15,-1
 50 294 l 2,16,17
 52 294 52 294 52 287 c 2,18,-1
 52 261 l 1,19,20
 56 271 56 271 64.5 277.5 c 128,-1,21
 73 284 73 284 83 287.5 c 128,-1,22
 93 291 93 291 102.5 292.5 c 128,-1,23
 112 294 112 294 117 294 c 2,24,-1
 159 294 l 2,25,26
 193 294 193 294 213 275 c 128,-1,27
 233 256 233 256 233 216 c 2,28,-1
 233 78 l 2,29,30
 233 38 233 38 213 19 c 128,-1,31
 193 0 193 0 159 0 c 2,0,-1
220 216 m 2,32,33
 220 245 220 245 205 263 c 128,-1,34
 190 281 190 281 159 281 c 2,35,-1
 117 281 l 2,36,37
 85 281 85 281 68.5 264 c 128,-1,38
 52 247 52 247 52 218 c 2,39,-1
 52 75 l 2,40,41
 52 46 52 46 68.5 29.5 c 128,-1,42
 85 13 85 13 117 13 c 2,43,-1
 159 13 l 2,44,45
 190 13 190 13 205 31.5 c 128,-1,46
 220 50 220 50 220 79 c 2,47,-1
 220 216 l 2,32,33
EndSplineSet
EndChar

StartChar: q
Encoding: 113 113 84
Width: 267
GlyphClass: 2
Flags: W
LayerCount: 2
Back
Fore
SplineSet
233 -85 m 2,0,1
 233 -89 233 -89 231 -89 c 2,2,-1
 223 -89 l 2,3,4
 221 -89 221 -89 221 -85 c 2,5,-1
 221 34 l 1,6,7
 217 24 217 24 208 17.5 c 128,-1,8
 199 11 199 11 189.5 7 c 128,-1,9
 180 3 180 3 170.5 1.5 c 128,-1,10
 161 0 161 0 156 0 c 2,11,-1
 114 0 l 2,12,13
 80 0 80 0 60 19 c 128,-1,14
 40 38 40 38 40 78 c 2,15,-1
 40 216 l 2,16,17
 40 256 40 256 60 275 c 128,-1,18
 80 294 80 294 114 294 c 2,19,-1
 156 294 l 2,20,21
 161 294 161 294 170.5 292.5 c 128,-1,22
 180 291 180 291 190 287.5 c 128,-1,23
 200 284 200 284 208.5 277.5 c 128,-1,24
 217 271 217 271 221 261 c 1,25,-1
 221 287 l 2,26,27
 221 294 221 294 223 294 c 2,28,-1
 231 294 l 2,29,30
 233 294 233 294 233 291 c 2,31,-1
 233 -85 l 2,0,1
221 75 m 2,32,-1
 221 218 l 2,33,34
 221 247 221 247 204.5 264 c 128,-1,35
 188 281 188 281 156 281 c 2,36,-1
 114 281 l 2,37,38
 83 281 83 281 68 263 c 128,-1,39
 53 245 53 245 53 216 c 2,40,-1
 53 79 l 2,41,42
 53 50 53 50 68 31.5 c 128,-1,43
 83 13 83 13 114 13 c 2,44,-1
 156 13 l 2,45,46
 188 13 188 13 204.5 29.5 c 128,-1,47
 221 46 221 46 221 75 c 2,32,-1
EndSplineSet
EndChar

StartChar: r
Encoding: 114 114 85
Width: 150
GlyphClass: 2
Flags: W
LayerCount: 2
Back
Fore
SplineSet
126 285 m 1,0,-1
 102 285 l 2,1,2
 67 285 67 285 49.5 263 c 128,-1,3
 32 241 32 241 32 211 c 2,4,-1
 32 4 l 2,5,6
 32 0 32 0 29 0 c 2,7,-1
 26 0 l 2,8,9
 24 0 24 0 24 4 c 2,10,-1
 24 291 l 2,11,12
 24 294 24 294 26 294 c 2,13,-1
 30 294 l 2,14,15
 32 294 32 294 32 291 c 2,16,-1
 32 252 l 1,17,18
 36 265 36 265 46 273.5 c 128,-1,19
 56 282 56 282 66.5 286.5 c 128,-1,20
 77 291 77 291 87 292.5 c 128,-1,21
 97 294 97 294 103 294 c 2,22,-1
 126 294 l 2,23,24
 127 294 127 294 127 291 c 2,25,-1
 127 288 l 1,26,-1
 127 286 l 2,27,28
 126 285 126 285 126 285 c 1,0,-1
EndSplineSet
EndChar

StartChar: s
Encoding: 115 115 86
Width: 224
GlyphClass: 2
Flags: W
LayerCount: 2
Back
Fore
SplineSet
128 0 m 2,0,-1
 31 0 l 2,1,2
 30 0 30 0 30 3 c 2,3,-1
 30 9 l 2,4,5
 30 12 30 12 31 12 c 2,6,-1
 128 12 l 2,7,8
 160 12 160 12 174.5 25.5 c 128,-1,9
 189 39 189 39 189 62 c 2,10,-1
 189 79 l 2,11,12
 189 101 189 101 182 115.5 c 128,-1,13
 175 130 175 130 152 138 c 2,14,-1
 77 164 l 2,15,16
 47 175 47 175 36.5 188.5 c 128,-1,17
 26 202 26 202 26 231 c 0,18,19
 26 294 26 294 94 294 c 2,20,-1
 185 294 l 2,21,22
 187 294 187 294 187 291 c 2,23,-1
 187 285 l 2,24,25
 187 282 187 282 185 282 c 2,26,-1
 94 282 l 2,27,28
 64 282 64 282 51.5 268.5 c 128,-1,29
 39 255 39 255 39 238 c 2,30,-1
 39 223 l 2,31,32
 39 203 39 203 49 193.5 c 128,-1,33
 59 184 59 184 80 176 c 2,34,-1
 154 149 l 2,35,36
 183 138 183 138 191.5 119.5 c 128,-1,37
 200 101 200 101 200 66 c 0,38,39
 200 30 200 30 183 15 c 128,-1,40
 166 0 166 0 128 0 c 2,0,-1
EndSplineSet
EndChar

StartChar: t
Encoding: 116 116 87
Width: 185
GlyphClass: 2
Flags: W
LayerCount: 2
Back
Fore
SplineSet
163 0 m 2,0,-1
 142 0 l 2,1,2
 107 0 107 0 85 20 c 128,-1,3
 63 40 63 40 63 76 c 2,4,-1
 63 281 l 1,5,-1
 19 281 l 2,6,7
 17 281 17 281 17 284 c 2,8,-1
 17 288 l 2,9,10
 17 292 17 292 19 292 c 2,11,-1
 63 292 l 1,12,-1
 63 345 l 2,13,14
 63 350 63 350 67 350 c 2,15,-1
 75 350 l 2,16,17
 77 350 77 350 76.5 348.5 c 128,-1,18
 76 347 76 347 76 345 c 2,19,-1
 76 292 l 1,20,-1
 157 292 l 2,21,22
 159 292 159 292 159 288 c 2,23,-1
 159 284 l 2,24,25
 159 281 159 281 157 281 c 2,26,-1
 76 281 l 1,27,-1
 76 76 l 2,28,29
 76 47 76 47 93 29 c 128,-1,30
 110 11 110 11 142 11 c 2,31,-1
 163 11 l 2,32,33
 165 11 165 11 165 8 c 2,34,-1
 165 3 l 2,35,36
 165 0 165 0 163 0 c 2,0,-1
EndSplineSet
EndChar

StartChar: u
Encoding: 117 117 88
Width: 254
GlyphClass: 2
Flags: W
LayerCount: 2
Back
Fore
SplineSet
222 0 m 2,0,-1
 215 0 l 2,1,2
 212 0 212 0 212 7 c 2,3,-1
 212 35 l 2,4,5
 209 24 209 24 200.5 17.5 c 128,-1,6
 192 11 192 11 182.5 7 c 128,-1,7
 173 3 173 3 163 1.5 c 128,-1,8
 153 0 153 0 147 0 c 2,9,-1
 106 0 l 2,10,11
 72 0 72 0 51.5 20.5 c 128,-1,12
 31 41 31 41 31 78 c 2,13,-1
 31 291 l 2,14,15
 31 294 31 294 34 294 c 2,16,-1
 43 294 l 2,17,18
 45 294 45 294 45 291 c 2,19,-1
 45 79 l 2,20,21
 45 49 45 49 60 31 c 128,-1,22
 75 13 75 13 106 13 c 2,23,-1
 147 13 l 2,24,25
 212 13 212 13 212 75 c 2,26,-1
 212 291 l 2,27,28
 212 294 212 294 215 294 c 2,29,-1
 222 294 l 2,30,31
 224 294 224 294 224 291 c 2,32,-1
 224 4 l 2,33,34
 224 0 224 0 222 0 c 2,0,-1
EndSplineSet
EndChar

StartChar: v
Encoding: 118 118 89
Width: 241
GlyphClass: 2
Flags: W
LayerCount: 2
Back
Fore
SplineSet
210 294 m 2,0,-1
 217 294 l 2,1,2
 220 294 220 294 218 290 c 2,3,-1
 128 4 l 2,4,5
 128 0 128 0 126 0 c 2,6,-1
 112 0 l 2,7,8
 111 0 111 0 111 1 c 1,9,10
 110 1 110 1 110 3 c 2,11,-1
 20 290 l 2,12,13
 18 294 18 294 21 294 c 2,14,-1
 30 294 l 2,15,16
 32 293 32 293 32 293 c 1,17,-1
 116 16 l 2,18,19
 118 12 118 12 119.5 11.5 c 128,-1,20
 121 11 121 11 122 16 c 2,21,-1
 207 291 l 2,22,23
 208 294 208 294 208 294 c 257,24,25
 208 294 208 294 210 294 c 2,0,-1
EndSplineSet
EndChar

StartChar: w
Encoding: 119 119 90
Width: 388
GlyphClass: 2
Flags: W
LayerCount: 2
Back
Fore
SplineSet
287 5 m 2,0,1
 286 0 286 0 283 0 c 2,2,-1
 270 0 l 2,3,4
 266 0 266 0 265 3 c 2,5,-1
 192 270 l 1,6,-1
 118 2 l 2,7,8
 118 0 118 0 114 0 c 2,9,-1
 102 0 l 2,10,11
 99 0 99 0 98 5 c 2,12,-1
 13 289 l 2,13,14
 10 294 10 294 15 294 c 2,15,-1
 23 294 l 2,16,17
 25 294 25 294 27 289 c 2,18,-1
 108 15 l 1,19,-1
 184 291 l 2,20,21
 185 294 185 294 189 294 c 2,22,-1
 197 294 l 2,23,24
 199 292 199 292 199 292 c 257,25,26
 199 292 199 292 201 290 c 2,27,-1
 276 14 l 1,28,-1
 356 290 l 2,29,30
 358 294 358 294 361 294 c 2,31,-1
 370 294 l 2,32,33
 372 294 372 294 372 292 c 2,34,-1
 287 5 l 2,0,1
EndSplineSet
EndChar

StartChar: x
Encoding: 120 120 91
Width: 225
GlyphClass: 2
Flags: W
LayerCount: 2
Back
Fore
SplineSet
37 291 m 2,0,-1
 112 157 l 1,1,-1
 186 290 l 2,2,3
 187 291 187 291 188 292.5 c 128,-1,4
 189 294 189 294 191 294 c 2,5,-1
 198 294 l 2,6,7
 200 294 200 294 200 292.5 c 128,-1,8
 200 291 200 291 199 290 c 2,9,-1
 120 149 l 1,10,-1
 208 4 l 2,11,12
 208 3 208 3 208.5 1.5 c 128,-1,13
 209 0 209 0 207 0 c 2,14,-1
 199 0 l 2,15,16
 196 0 196 0 194.5 1.5 c 128,-1,17
 193 3 193 3 192 4 c 2,18,-1
 113 136 l 1,19,-1
 33 4 l 2,20,21
 29 0 29 0 26 0 c 2,22,-1
 19 0 l 2,23,24
 13 0 13 0 17 4 c 2,25,-1
 105 145 l 1,26,-1
 23 289 l 2,27,28
 22 290 22 290 21.5 292 c 128,-1,29
 21 294 21 294 23 294 c 2,30,-1
 30 294 l 2,31,32
 33 294 33 294 35 292 c 0,33,34
 36 291 36 291 37 291 c 2,0,-1
EndSplineSet
EndChar

StartChar: y
Encoding: 121 121 92
Width: 256
GlyphClass: 2
Flags: W
LayerCount: 2
Back
Fore
SplineSet
236 288 m 2,0,1
 236 288 236 288 237 291 c 128,-1,2
 238 294 238 294 237 290.5 c 128,-1,3
 236 287 236 287 231.5 274.5 c 128,-1,4
 227 262 227 262 216.5 232 c 128,-1,5
 206 202 206 202 187.5 151 c 128,-1,6
 169 100 169 100 141 20 c 0,7,8
 122 -32 122 -32 114 -46 c 0,9,10
 88 -85 88 -85 47 -85 c 2,11,-1
 32 -85 l 2,12,13
 27 -85 27 -85 27 -81 c 2,14,-1
 27 -78 l 2,15,16
 27 -74 27 -74 32 -74 c 2,17,-1
 47 -74 l 2,18,19
 79 -74 79 -74 95.5 -50 c 128,-1,20
 112 -26 112 -26 123 5 c 1,21,22
 98 71 98 71 71.5 145 c 128,-1,23
 45 219 45 219 18 291 c 0,24,25
 18 294 18 294 19 294 c 2,26,-1
 28 294 l 2,27,28
 30 294 30 294 30 292.5 c 128,-1,29
 30 291 30 291 31 289 c 2,30,-1
 127 19 l 1,31,32
 147 75 147 75 159.5 110 c 128,-1,33
 172 145 172 145 180 167.5 c 128,-1,34
 188 190 188 190 192.5 202.5 c 128,-1,35
 197 215 197 215 201 226.5 c 128,-1,36
 205 238 205 238 210 252 c 128,-1,37
 215 266 215 266 223 290 c 0,38,39
 225 294 225 294 227 294 c 2,40,-1
 235 294 l 2,41,42
 238 294 238 294 237.5 292 c 128,-1,43
 237 290 237 290 236 288 c 2,0,1
EndSplineSet
EndChar

StartChar: z
Encoding: 122 122 93
Width: 217
GlyphClass: 2
Flags: W
LayerCount: 2
Back
Fore
SplineSet
193 280 m 2,0,-1
 34 12 l 1,1,-1
 195 12 l 2,2,3
 197 12 197 12 197 9 c 2,4,-1
 198 3 l 2,5,6
 198 0 198 0 196 0 c 2,7,-1
 23 0 l 2,8,9
 19 0 19 0 19 3 c 2,10,-1
 19 9 l 2,11,12
 19 10 19 10 26.5 22 c 128,-1,13
 34 34 34 34 45.5 53.5 c 128,-1,14
 57 73 57 73 71.5 97 c 128,-1,15
 86 121 86 121 101 147 c 2,16,-1
 181 283 l 1,17,-1
 27 283 l 2,18,19
 26 283 26 283 25 286 c 2,20,-1
 24 291 l 2,21,22
 21 294 21 294 25 294 c 2,23,-1
 193 294 l 2,24,25
 194 294 194 294 194 291 c 256,26,27
 194 288 194 288 194.5 286 c 128,-1,28
 195 284 195 284 193 280 c 2,0,-1
EndSplineSet
EndChar

StartChar: braceleft
Encoding: 123 123 94
Width: 160
GlyphClass: 2
Flags: W
LayerCount: 2
Back
Fore
SplineSet
25 179 m 2,0,-1
 25 186 l 2,1,2
 25 188 25 188 25 189.5 c 128,-1,3
 25 191 25 191 29 192 c 0,4,5
 46 192 46 192 58 201 c 0,6,7
 63 205 63 205 66.5 215 c 128,-1,8
 70 225 70 225 70 241 c 2,9,-1
 70 353 l 2,10,11
 70 368 70 368 73 382.5 c 128,-1,12
 76 397 76 397 83 408.5 c 128,-1,13
 90 420 90 420 101 427.5 c 128,-1,14
 112 435 112 435 129 435 c 0,15,16
 134 435 134 435 134 429 c 2,17,-1
 134 427 l 2,18,19
 134 423 134 423 129 423 c 0,20,21
 114 423 114 423 104.5 416.5 c 128,-1,22
 95 410 95 410 90 400 c 128,-1,23
 85 390 85 390 83 377.5 c 128,-1,24
 81 365 81 365 81 352 c 2,25,-1
 81 241 l 2,26,27
 81 235 81 235 80 226 c 128,-1,28
 79 217 79 217 76 208.5 c 128,-1,29
 73 200 73 200 67 193 c 128,-1,30
 61 186 61 186 51 184 c 1,31,32
 61 181 61 181 66.5 173 c 128,-1,33
 72 165 72 165 75 156 c 128,-1,34
 78 147 78 147 78.5 138.5 c 128,-1,35
 79 130 79 130 79 125 c 0,36,37
 79 117 79 117 80 102 c 0,38,39
 80 89 80 89 80.5 67 c 128,-1,40
 81 45 81 45 81 12 c 0,41,42
 81 -14 81 -14 91 -35 c 128,-1,43
 101 -56 101 -56 130 -56 c 0,44,45
 134 -56 134 -56 134 -61 c 2,46,-1
 134 -65 l 2,47,48
 134 -69 134 -69 129 -69 c 0,49,50
 112 -69 112 -69 100.5 -62 c 128,-1,51
 89 -55 89 -55 82 -44 c 128,-1,52
 75 -33 75 -33 72.5 -18 c 128,-1,53
 70 -3 70 -3 70 12 c 2,54,-1
 70 125 l 2,55,56
 70 141 70 141 66.5 151 c 128,-1,57
 63 161 63 161 59 164 c 0,58,59
 52 171 52 171 44.5 173 c 128,-1,60
 37 175 37 175 30 176 c 0,61,62
 25 175 25 175 25 179 c 2,0,-1
EndSplineSet
EndChar

StartChar: bar
Encoding: 124 124 95
Width: 103
GlyphClass: 2
Flags: W
LayerCount: 2
Back
Fore
SplineSet
54 0 m 2,0,-1
 47 0 l 2,1,2
 41 0 41 0 40 1.5 c 128,-1,3
 39 3 39 3 39 5 c 2,4,-1
 39 415 l 2,5,6
 39 421 39 421 47 421 c 2,7,-1
 54 421 l 2,8,9
 61 421 61 421 61.5 419.5 c 128,-1,10
 62 418 62 418 62 415 c 2,11,-1
 62 5 l 2,12,13
 62 3 62 3 61 1.5 c 128,-1,14
 60 0 60 0 54 0 c 2,0,-1
EndSplineSet
EndChar

StartChar: braceright
Encoding: 125 125 96
Width: 165
GlyphClass: 2
Flags: W
LayerCount: 2
Back
Fore
SplineSet
134 179 m 1,0,1
 134 175 134 175 129 176 c 0,2,3
 122 175 122 175 114.5 173 c 128,-1,4
 107 171 107 171 100 164 c 0,5,6
 96 161 96 161 92.5 151 c 128,-1,7
 89 141 89 141 89 125 c 2,8,-1
 89 12 l 2,9,10
 89 -19 89 -19 76.5 -44 c 128,-1,11
 64 -69 64 -69 30 -69 c 0,12,13
 25 -69 25 -69 25 -65 c 2,14,-1
 25 -61 l 2,15,16
 25 -56 25 -56 29 -56 c 0,17,18
 58 -56 58 -56 68 -35 c 128,-1,19
 78 -14 78 -14 78 12 c 0,20,21
 78 45 78 45 78 67 c 128,-1,22
 78 89 78 89 79 102 c 0,23,24
 79 117 79 117 80 125 c 0,25,26
 80 130 80 130 80.5 138.5 c 128,-1,27
 81 147 81 147 84 156 c 128,-1,28
 87 165 87 165 92.5 173 c 128,-1,29
 98 181 98 181 108 184 c 1,30,31
 98 186 98 186 92 193 c 128,-1,32
 86 200 86 200 83 208.5 c 128,-1,33
 80 217 80 217 79 226 c 128,-1,34
 78 235 78 235 78 241 c 2,35,-1
 78 352 l 2,36,37
 78 365 78 365 76 377.5 c 128,-1,38
 74 390 74 390 69 400 c 128,-1,39
 64 410 64 410 54.5 416.5 c 128,-1,40
 45 423 45 423 30 423 c 0,41,42
 25 423 25 423 25 427 c 2,43,-1
 25 429 l 2,44,45
 25 435 25 435 30 435 c 0,46,47
 46 435 46 435 57.5 427.5 c 128,-1,48
 69 420 69 420 76 408.5 c 128,-1,49
 83 397 83 397 86 382.5 c 128,-1,50
 89 368 89 368 89 353 c 2,51,-1
 89 241 l 2,52,53
 89 225 89 225 92.5 215 c 128,-1,54
 96 205 96 205 101 201 c 0,55,56
 113 192 113 192 130 192 c 0,57,58
 134 191 134 191 134 189.5 c 128,-1,59
 134 188 134 188 134 186 c 2,60,-1
 134 179 l 1,61,-1
 134 179 l 1,0,1
EndSplineSet
EndChar

StartChar: asciitilde
Encoding: 126 126 97
Width: 311
GlyphClass: 2
Flags: W
LayerCount: 2
Back
Fore
SplineSet
254 201 m 0,0,1
 256 201 256 201 260 202 c 128,-1,2
 264 203 264 203 264 198 c 2,3,-1
 264 180 l 2,4,5
 264 169 264 169 249 169 c 128,-1,6
 234 169 234 169 214 171 c 0,7,8
 203 172 203 172 187.5 175 c 128,-1,9
 172 178 172 178 152 184 c 0,10,11
 133 190 133 190 121 192.5 c 128,-1,12
 109 195 109 195 101 195 c 256,13,14
 93 195 93 195 85.5 193.5 c 128,-1,15
 78 192 78 192 73 190 c 0,16,17
 66 188 66 188 61 186 c 0,18,19
 57 183 57 183 53 182 c 0,20,21
 46 178 46 178 46 184 c 2,22,-1
 46 205 l 2,23,24
 46 209 46 209 51.5 210.5 c 128,-1,25
 57 212 57 212 65 213 c 128,-1,26
 73 214 73 214 81.5 214 c 128,-1,27
 90 214 90 214 97 214 c 0,28,29
 108 214 108 214 122.5 211.5 c 128,-1,30
 137 209 137 209 159 204 c 0,31,32
 178 199 178 199 190 196.5 c 128,-1,33
 202 194 202 194 209 193 c 0,34,35
 219 192 219 192 227.5 193 c 128,-1,36
 236 194 236 194 242 196 c 0,37,38
 249 198 249 198 254 201 c 0,0,1
EndSplineSet
EndChar

StartChar: cent
Encoding: 162 162 98
Width: 248
GlyphClass: 2
Flags: W
LayerCount: 2
Back
Fore
SplineSet
220 0 m 2,0,-1
 164 0 l 1,1,-1
 164 -49 l 2,2,3
 164 -54 164 -54 162 -54 c 2,4,-1
 153 -54 l 2,5,6
 150 -54 150 -54 150 -49 c 2,7,-1
 150 0 l 1,8,-1
 124 0 l 2,9,10
 89 0 89 0 67.5 21 c 128,-1,11
 46 42 46 42 46 83 c 2,12,-1
 46 226 l 2,13,14
 46 270 46 270 67.5 290 c 128,-1,15
 89 310 89 310 124 310 c 2,16,-1
 150 310 l 1,17,-1
 150 368 l 2,18,19
 150 373 150 373 153 373 c 2,20,-1
 162 373 l 2,21,22
 164 373 164 373 164 368 c 2,23,-1
 164 310 l 1,24,-1
 220 310 l 2,25,26
 224 310 224 310 224 304 c 2,27,-1
 224 297 l 2,28,29
 224 293 224 293 220 293 c 2,30,-1
 124 293 l 2,31,32
 92 293 92 293 76 275 c 128,-1,33
 60 257 60 257 60 226 c 2,34,-1
 60 84 l 2,35,36
 60 53 60 53 76 35.5 c 128,-1,37
 92 18 92 18 124 18 c 2,38,-1
 220 18 l 2,39,40
 224 18 224 18 224 11 c 2,41,-1
 224 4 l 2,42,43
 224 0 224 0 220 0 c 2,0,-1
EndSplineSet
EndChar

StartChar: copyright
Encoding: 169 169 99
Width: 441
GlyphClass: 2
Flags: W
LayerCount: 2
Back
Fore
SplineSet
313 0 m 2,0,-1
 129 0 l 2,1,2
 92 0 92 0 70.5 22 c 128,-1,3
 49 44 49 44 49 83 c 2,4,-1
 49 308 l 2,5,6
 49 347 49 347 70.5 369 c 128,-1,7
 92 391 92 391 129 391 c 2,8,-1
 313 391 l 2,9,10
 348 391 348 391 370.5 369 c 128,-1,11
 393 347 393 347 393 308 c 2,12,-1
 393 83 l 2,13,14
 393 44 393 44 370.5 22 c 128,-1,15
 348 0 348 0 313 0 c 2,0,-1
376 307 m 2,16,17
 376 339 376 339 360 356.5 c 128,-1,18
 344 374 344 374 313 374 c 2,19,-1
 129 374 l 2,20,21
 98 374 98 374 82 356.5 c 128,-1,22
 66 339 66 339 66 307 c 2,23,-1
 66 84 l 2,24,25
 66 52 66 52 82 34.5 c 128,-1,26
 98 17 98 17 129 17 c 2,27,-1
 313 17 l 2,28,29
 344 17 344 17 360 34.5 c 128,-1,30
 376 52 376 52 376 84 c 2,31,-1
 376 307 l 2,16,17
281 89 m 0,32,33
 260 71 260 71 225 71 c 2,34,-1
 212 71 l 2,35,36
 178 71 178 71 157 89 c 0,37,38
 149 96 149 96 144 108.5 c 128,-1,39
 139 121 139 121 139 141 c 2,40,-1
 139 243 l 2,41,42
 139 265 139 265 144 278 c 128,-1,43
 149 291 149 291 157 298 c 256,44,45
 165 305 165 305 178.5 309.5 c 128,-1,46
 192 314 192 314 212 314 c 2,47,-1
 225 314 l 2,48,49
 246 314 246 314 259.5 309.5 c 128,-1,50
 273 305 273 305 281 298 c 256,51,52
 289 291 289 291 294 278 c 128,-1,53
 299 265 299 265 299 243 c 2,54,-1
 299 240 l 2,55,56
 299 234 299 234 294 234 c 2,57,-1
 286 234 l 2,58,59
 284 237 284 237 283 238 c 128,-1,60
 282 239 282 239 282 240 c 2,61,-1
 282 243 l 2,62,63
 282 255 282 255 279.5 266 c 128,-1,64
 277 277 277 277 269 285 c 0,65,66
 261 292 261 292 249.5 295 c 128,-1,67
 238 298 238 298 225 298 c 2,68,-1
 212 298 l 2,69,70
 200 298 200 298 188 295 c 128,-1,71
 176 292 176 292 168 285 c 0,72,73
 160 277 160 277 158 266 c 128,-1,74
 156 255 156 255 156 243 c 2,75,-1
 156 142 l 2,76,77
 156 111 156 111 168.5 99 c 128,-1,78
 181 87 181 87 212 87 c 2,79,-1
 225 87 l 2,80,81
 238 87 238 87 250 90 c 128,-1,82
 262 93 262 93 270 101 c 0,83,84
 277 109 277 109 279.5 120 c 128,-1,85
 282 131 282 131 282 142 c 0,86,87
 282 144 282 144 284 150 c 0,88,89
 285 150 285 150 285 149 c 128,-1,90
 285 148 285 148 286 148 c 2,91,-1
 294 148 l 2,92,93
 299 148 299 148 299 143 c 2,94,-1
 299 141 l 2,95,96
 299 121 299 121 294 108.5 c 128,-1,97
 289 96 289 96 281 89 c 0,32,33
EndSplineSet
EndChar

StartChar: registered
Encoding: 174 174 100
Width: 447
GlyphClass: 2
Flags: W
LayerCount: 2
Back
Fore
SplineSet
313 0 m 2,0,-1
 129 0 l 2,1,2
 92 0 92 0 70.5 22 c 128,-1,3
 49 44 49 44 49 83 c 2,4,-1
 49 308 l 2,5,6
 49 347 49 347 70.5 369 c 128,-1,7
 92 391 92 391 129 391 c 2,8,-1
 313 391 l 2,9,10
 348 391 348 391 370.5 369 c 128,-1,11
 393 347 393 347 393 308 c 2,12,-1
 393 83 l 2,13,14
 393 44 393 44 370.5 22 c 128,-1,15
 348 0 348 0 313 0 c 2,0,-1
376 307 m 2,16,17
 376 339 376 339 360 356.5 c 128,-1,18
 344 374 344 374 313 374 c 2,19,-1
 129 374 l 2,20,21
 98 374 98 374 82 356.5 c 128,-1,22
 66 339 66 339 66 307 c 2,23,-1
 66 84 l 2,24,25
 66 52 66 52 82 33.5 c 128,-1,26
 98 15 98 15 129 15 c 2,27,-1
 313 15 l 2,28,29
 344 15 344 15 360 33.5 c 128,-1,30
 376 52 376 52 376 84 c 2,31,-1
 376 307 l 2,16,17
304 77 m 2,32,33
 298 76 298 76 296 81 c 2,34,-1
 226 173 l 1,35,-1
 152 173 l 1,36,-1
 151 81 l 2,37,38
 151 78 151 78 148 78 c 2,39,-1
 139 78 l 2,40,41
 136 78 136 78 136 81 c 2,42,-1
 138 310 l 1,43,-1
 236 310 l 2,44,45
 268 310 268 310 285.5 293 c 128,-1,46
 303 276 303 276 303 247 c 2,47,-1
 303 241 l 2,48,49
 303 230 303 230 300 218 c 128,-1,50
 297 206 297 206 289.5 196.5 c 128,-1,51
 282 187 282 187 270 180 c 128,-1,52
 258 173 258 173 241 173 c 1,53,54
 248 163 248 163 259 148 c 128,-1,55
 270 133 270 133 281 119 c 0,56,57
 293 102 293 102 308 85 c 0,58,59
 314 79 314 79 309 78 c 2,60,-1
 304 77 l 2,32,33
289 245 m 2,61,62
 289 272 289 272 274.5 284 c 128,-1,63
 260 296 260 296 233 296 c 2,64,-1
 151 296 l 1,65,-1
 151 186 l 1,66,-1
 234 186 l 2,67,68
 261 186 261 186 275 200.5 c 128,-1,69
 289 215 289 215 289 241 c 2,70,-1
 289 245 l 2,61,62
EndSplineSet
EndChar

StartChar: onequarter
Encoding: 188 188 101
Width: 538
GlyphClass: 2
Flags: W
LayerCount: 2
Back
Fore
SplineSet
130 -21 m 1,0,-1
 118 -21 l 1,1,-1
 403 442 l 1,2,-1
 414 442 l 1,3,-1
 130 -21 l 1,0,-1
42 388 m 2,4,-1
 42 393 l 2,5,6
 42 395 42 395 45 397.5 c 128,-1,7
 48 400 48 400 50 402 c 2,8,-1
 103 435 l 2,9,10
 106 437 106 437 111 437 c 2,11,-1
 117 437 l 2,12,13
 120 437 120 437 120.5 433.5 c 128,-1,14
 121 430 121 430 121 429 c 2,15,-1
 121 196 l 2,16,17
 121 195 121 195 120 194 c 0,18,19
 118 193 118 193 118 193 c 1,20,-1
 111 193 l 2,21,22
 109 193 109 193 109 197 c 2,23,-1
 109 424 l 1,24,-1
 48 388 l 2,25,26
 46 387 46 387 44 386.5 c 128,-1,27
 42 386 42 386 42 388 c 2,4,-1
492 42 m 2,28,-1
 461 42 l 1,29,-1
 461 -7 l 2,30,31
 461 -10 461 -10 460 -10 c 2,32,-1
 455 -10 l 2,33,34
 453 -10 453 -10 453 -7 c 2,35,-1
 453 42 l 1,36,-1
 336 42 l 2,37,38
 333 42 333 42 333 44 c 0,39,40
 333 50 333 50 337 55 c 2,41,-1
 446 230 l 2,42,43
 449 233 449 233 453 233 c 2,44,-1
 460 233 l 2,45,46
 461 233 461 233 461 231 c 2,47,-1
 461 50 l 1,48,-1
 492 50 l 2,49,50
 494 50 494 50 494 49 c 2,51,-1
 494 44 l 2,52,53
 494 42 494 42 492 42 c 2,28,-1
453 226 m 1,54,-1
 346 54 l 2,55,56
 342 50 342 50 347 50 c 2,57,-1
 453 50 l 1,58,-1
 453 226 l 1,54,-1
EndSplineSet
EndChar

StartChar: onehalf
Encoding: 189 189 102
Width: 518
GlyphClass: 2
Flags: W
LayerCount: 2
Back
Fore
SplineSet
130 -21 m 1,0,-1
 118 -21 l 1,1,-1
 403 442 l 1,2,-1
 414 442 l 1,3,-1
 130 -21 l 1,0,-1
42 388 m 2,4,-1
 42 393 l 2,5,6
 42 395 42 395 45 397.5 c 128,-1,7
 48 400 48 400 50 402 c 2,8,-1
 103 435 l 2,9,10
 106 437 106 437 111 437 c 2,11,-1
 117 437 l 2,12,13
 120 437 120 437 120.5 433.5 c 128,-1,14
 121 430 121 430 121 429 c 2,15,-1
 121 196 l 2,16,17
 121 195 121 195 120 194 c 0,18,19
 118 193 118 193 118 193 c 1,20,-1
 111 193 l 2,21,22
 109 193 109 193 109 197 c 2,23,-1
 109 424 l 1,24,-1
 48 388 l 2,25,26
 46 387 46 387 44 386.5 c 128,-1,27
 42 386 42 386 42 388 c 2,4,-1
485 -13 m 2,28,-1
 357 -13 l 2,29,30
 355 -13 355 -13 355 -11 c 2,31,-1
 355 22 l 2,32,33
 355 53 355 53 378 70 c 2,34,-1
 455 128 l 2,35,36
 477 144 477 144 477 170 c 2,37,-1
 477 186 l 2,38,39
 477 206 477 206 466.5 217 c 128,-1,40
 456 228 456 228 435 228 c 2,41,-1
 402 228 l 2,42,43
 382 228 382 228 372 217 c 128,-1,44
 362 206 362 206 362 186 c 2,45,-1
 362 168 l 2,46,47
 362 164 362 164 360 164 c 2,48,-1
 354 164 l 2,49,50
 353 164 353 164 353 168 c 2,51,-1
 353 186 l 2,52,53
 353 212 353 212 366.5 225 c 128,-1,54
 380 238 380 238 402 238 c 2,55,-1
 435 238 l 2,56,57
 458 238 458 238 471.5 225.5 c 128,-1,58
 485 213 485 213 485 186 c 2,59,-1
 485 169 l 2,60,61
 485 138 485 138 461 120 c 2,62,-1
 383 61 l 2,63,64
 363 47 363 47 363 24 c 2,65,-1
 363 -1 l 2,66,67
 363 -4 363 -4 367 -4 c 2,68,-1
 485 -4 l 2,69,70
 486 -4 486 -4 486 -6 c 2,71,-1
 486 -11 l 2,72,73
 486 -13 486 -13 485 -13 c 2,28,-1
EndSplineSet
EndChar

StartChar: threequarters
Encoding: 190 190 103
Width: 518
GlyphClass: 2
Flags: W
LayerCount: 2
Back
Fore
SplineSet
131 -21 m 1,0,-1
 119 -21 l 1,1,-1
 403 442 l 1,2,-1
 415 442 l 1,3,-1
 131 -21 l 1,0,-1
472 42 m 2,4,-1
 441 42 l 1,5,-1
 441 -7 l 2,6,7
 441 -10 441 -10 440 -10 c 2,8,-1
 435 -10 l 2,9,10
 433 -10 433 -10 433 -7 c 2,11,-1
 433 42 l 1,12,-1
 316 42 l 2,13,14
 313 42 313 42 313 44 c 0,15,16
 313 50 313 50 317 55 c 2,17,-1
 426 230 l 2,18,19
 429 233 429 233 433 233 c 2,20,-1
 440 233 l 2,21,22
 441 233 441 233 441 231 c 2,23,-1
 441 50 l 1,24,-1
 472 50 l 2,25,26
 474 50 474 50 474 49 c 2,27,-1
 474 44 l 2,28,29
 474 42 474 42 472 42 c 2,4,-1
433 226 m 1,30,-1
 326 54 l 2,31,32
 322 50 322 50 327 50 c 2,33,-1
 433 50 l 1,34,-1
 433 226 l 1,30,-1
125 192 m 2,35,-1
 91 192 l 2,36,37
 67 192 67 192 53 205 c 128,-1,38
 39 218 39 218 39 245 c 2,39,-1
 39 265 l 2,40,41
 39 268 39 268 41 268 c 2,42,-1
 47 268 l 2,43,44
 48 268 48 268 48 265 c 2,45,-1
 48 245 l 2,46,47
 48 202 48 202 91 202 c 2,48,-1
 125 202 l 2,49,50
 167 202 167 202 167 245 c 2,51,-1
 167 273 l 2,52,53
 167 293 167 293 156.5 305 c 128,-1,54
 146 317 146 317 125 317 c 2,55,-1
 100 317 l 2,56,57
 98 317 98 317 98 319 c 2,58,-1
 98 324 l 2,59,60
 98 326 98 326 100 326 c 2,61,-1
 125 326 l 2,62,63
 146 326 146 326 156.5 338 c 128,-1,64
 167 350 167 350 167 370 c 2,65,-1
 167 396 l 2,66,67
 167 439 167 439 125 439 c 2,68,-1
 91 439 l 2,69,70
 48 439 48 439 48 396 c 2,71,-1
 48 381 l 2,72,73
 48 378 48 378 47 378 c 2,74,-1
 41 378 l 2,75,76
 39 378 39 378 39 381 c 2,77,-1
 39 396 l 2,78,79
 39 423 39 423 53 436 c 128,-1,80
 67 449 67 449 91 449 c 2,81,-1
 125 449 l 2,82,83
 148 449 148 449 162 436 c 128,-1,84
 176 423 176 423 176 396 c 2,85,-1
 176 370 l 2,86,87
 176 356 176 356 168.5 339.5 c 128,-1,88
 161 323 161 323 143 321 c 1,89,90
 159 318 159 318 167.5 303 c 128,-1,91
 176 288 176 288 176 274 c 2,92,-1
 176 245 l 2,93,94
 176 217 176 217 162 204.5 c 128,-1,95
 148 192 148 192 125 192 c 2,35,-1
EndSplineSet
EndChar

StartChar: multiply
Encoding: 215 215 104
Width: 356
GlyphClass: 2
Flags: W
LayerCount: 2
Back
Fore
SplineSet
324 50 m 1,0,1
 323 51 323 51 323 51 c 1,2,-1
 313 42 l 2,3,4
 313 41 313 41 312 40 c 2,5,-1
 176 179 l 1,6,-1
 43 42 l 2,7,8
 42 42 42 42 42 41.5 c 128,-1,9
 42 41 42 41 41 41 c 256,10,11
 40 41 40 41 40 40 c 2,12,-1
 32 49 l 2,13,14
 30 50 30 50 30 50 c 2,15,16
 30 53 30 53 30.5 54.5 c 128,-1,17
 31 56 31 56 31 57 c 2,18,-1
 164 192 l 1,19,-1
 31 328 l 2,20,21
 30 328 30 328 30 331 c 2,22,-1
 30 332 l 1,23,-1
 32 335 l 1,24,-1
 40 343 l 1,25,-1
 43 343 l 1,26,-1
 177 206 l 1,27,-1
 309 341 l 2,28,29
 311 343 311 343 315 340 c 0,30,31
 317 338 317 338 319 336.5 c 128,-1,32
 321 335 321 335 323 333 c 2,33,-1
 324 334 l 1,34,-1
 324 332 l 2,35,36
 323 330 323 330 323 329 c 256,37,38
 323 328 323 328 322 328 c 2,39,-1
 189 193 l 1,40,-1
 323 58 l 2,41,42
 323 57 323 57 323.5 55.5 c 128,-1,43
 324 54 324 54 324 50 c 1,0,1
EndSplineSet
EndChar

StartChar: divide
Encoding: 247 247 105
Width: 353
GlyphClass: 2
Flags: W
LayerCount: 2
Back
Fore
SplineSet
161 285 m 1,0,-1
 161 302 l 1,1,-1
 170 302 l 1,2,-1
 170 285 l 1,3,-1
 161 285 l 1,0,-1
3 173 m 1,4,-1
 3 184 l 1,5,-1
 318 184 l 1,6,-1
 318 173 l 1,7,-1
 3 173 l 1,4,-1
163 28 m 1,8,-1
 163 46 l 1,9,-1
 174 46 l 1,10,-1
 174 28 l 1,11,-1
 163 28 l 1,8,-1
EndSplineSet
EndChar

StartChar: uni0950
Encoding: 2384 2384 106
Width: 568
GlyphClass: 2
Flags: W
LayerCount: 2
Back
Fore
SplineSet
399 434 m 2,0,-1
 387 434 l 2,1,2
 384 434 384 434 384 437 c 2,3,-1
 384 456 l 2,4,5
 384 461 384 461 387 461 c 2,6,-1
 399 461 l 2,7,8
 403 461 403 461 403 456 c 2,9,-1
 403 437 l 2,10,11
 403 434 403 434 399 434 c 2,0,-1
413 354 m 2,12,-1
 372 354 l 2,13,14
 331 354 331 354 312.5 373.5 c 128,-1,15
 294 393 294 393 294 435 c 2,16,-1
 294 439 l 2,17,18
 294 443 294 443 297 443 c 2,19,-1
 307 443 l 2,20,21
 310 443 310 443 310 439 c 2,22,-1
 310 435 l 2,23,24
 310 401 310 401 322 385 c 128,-1,25
 334 369 334 369 372 369 c 2,26,-1
 413 369 l 2,27,28
 451 369 451 369 463 385 c 128,-1,29
 475 401 475 401 475 435 c 2,30,-1
 475 439 l 2,31,32
 475 443 475 443 479 443 c 2,33,-1
 489 443 l 2,34,35
 491 443 491 443 491 439 c 2,36,-1
 491 435 l 2,37,38
 491 393 491 393 472.5 373.5 c 128,-1,39
 454 354 454 354 413 354 c 2,12,-1
423 27 m 2,40,-1
 413 27 l 2,41,42
 371 27 371 27 351.5 46.5 c 128,-1,43
 332 66 332 66 332 108 c 2,44,-1
 332 166 l 2,45,46
 332 171 332 171 331.5 174.5 c 128,-1,47
 331 178 331 178 325 178 c 2,48,-1
 238 178 l 1,49,-1
 240 118 l 2,50,51
 241 75 241 75 218 51 c 128,-1,52
 195 27 195 27 153 27 c 2,53,-1
 129 27 l 2,54,55
 87 27 87 27 64 50 c 128,-1,56
 41 73 41 73 41 118 c 2,57,-1
 41 145 l 2,58,59
 41 150 41 150 44 150 c 2,60,-1
 53 150 l 2,61,62
 57 150 57 150 57 145 c 2,63,-1
 57 119 l 2,64,65
 57 83 57 83 75 62.5 c 128,-1,66
 93 42 93 42 129 42 c 2,67,-1
 153 42 l 2,68,69
 188 42 188 42 206.5 62.5 c 128,-1,70
 225 83 225 83 225 119 c 2,71,-1
 225 150 l 2,72,73
 225 185 225 185 206.5 204 c 128,-1,74
 188 223 188 223 153 223 c 2,75,-1
 107 223 l 2,76,77
 105 223 105 223 105 228 c 2,78,-1
 105 237 l 2,79,80
 105 239 105 239 107 239 c 2,81,-1
 153 239 l 2,82,83
 188 239 188 239 206.5 258.5 c 128,-1,84
 225 278 225 278 225 313 c 2,85,-1
 225 331 l 2,86,87
 225 366 225 366 206.5 386 c 128,-1,88
 188 406 188 406 153 406 c 2,89,-1
 89 406 l 2,90,91
 86 406 86 406 86 409 c 2,92,-1
 86 417 l 2,93,94
 86 419 86 419 89 419 c 2,95,-1
 153 419 l 2,96,97
 195 419 195 419 217.5 398 c 128,-1,98
 240 377 240 377 240 331 c 2,99,-1
 240 312 l 2,100,101
 240 282 240 282 226.5 262 c 128,-1,102
 213 242 213 242 190 231 c 1,103,104
 207 223 207 223 215.5 214 c 128,-1,105
 224 205 224 205 232 192 c 1,106,-1
 324 192 l 2,107,108
 336 192 336 192 341.5 187 c 128,-1,109
 347 182 347 182 347 168 c 2,110,-1
 347 109 l 2,111,112
 347 71 347 71 361.5 56.5 c 128,-1,113
 376 42 376 42 413 42 c 2,114,-1
 423 42 l 2,115,116
 458 42 458 42 473 56.5 c 128,-1,117
 488 71 488 71 488 109 c 2,118,-1
 488 214 l 2,119,120
 488 286 488 286 424 286 c 2,121,-1
 345 286 l 2,122,123
 342 286 342 286 342 291 c 2,124,-1
 342 298 l 2,125,126
 342 301 342 301 345 301 c 2,127,-1
 423 301 l 2,128,129
 461 301 461 301 482.5 280.5 c 128,-1,130
 504 260 504 260 504 214 c 2,131,-1
 504 108 l 2,132,133
 504 66 504 66 484.5 46.5 c 128,-1,134
 465 27 465 27 423 27 c 2,40,-1
EndSplineSet
EndChar

StartChar: uni0951
Encoding: 2385 2385 107
Width: 0
GlyphClass: 2
Flags: W
LayerCount: 2
Back
Fore
SplineSet
-219 667 m 1,0,-1
 -219 1020 l 1,1,-1
 -198 1020 l 1,2,-1
 -198 667 l 1,3,-1
 -219 667 l 1,0,-1
EndSplineSet
EndChar

StartChar: uni0952
Encoding: 2386 2386 108
Width: 0
GlyphClass: 2
Flags: W
LayerCount: 2
Back
Fore
SplineSet
-502 -362 m 1,0,-1
 -502 -342 l 1,1,-1
 -51 -342 l 1,2,-1
 -51 -362 l 1,3,-1
 -502 -362 l 1,0,-1
EndSplineSet
EndChar

StartChar: uni0964
Encoding: 2404 2404 109
Width: 109
GlyphClass: 2
Flags: W
LayerCount: 2
Back
Fore
SplineSet
4 0 m 1,0,-1
 4 301 l 1,1,-1
 32 301 l 1,2,-1
 32 0 l 1,3,-1
 4 0 l 1,0,-1
EndSplineSet
EndChar

StartChar: uni0965
Encoding: 2405 2405 110
Width: 262
GlyphClass: 2
Flags: W
LayerCount: 2
Back
Fore
SplineSet
168 0 m 1,0,-1
 168 301 l 1,1,-1
 187 301 l 1,2,-1
 187 0 l 1,3,-1
 168 0 l 1,0,-1
34 0 m 1,4,-1
 34 301 l 1,5,-1
 53 301 l 1,6,-1
 53 0 l 1,7,-1
 34 0 l 1,4,-1
EndSplineSet
EndChar

StartChar: uni0C01
Encoding: 3073 3073 111
Width: 214
GlyphClass: 2
Flags: W
LayerCount: 2
Back
Fore
SplineSet
57 0 m 2,0,1
 37 0 37 0 20.5 14.5 c 128,-1,2
 4 29 4 29 4 55 c 2,3,-1
 4 274 l 2,4,5
 4 298 4 298 20.5 313 c 128,-1,6
 37 328 37 328 57 328 c 2,7,-1
 158 328 l 1,8,-1
 158 313 l 1,9,-1
 60 313 l 2,10,11
 40 313 40 313 29.5 302.5 c 128,-1,12
 19 292 19 292 19 274 c 2,13,-1
 19 55 l 2,14,15
 19 38 19 38 29.5 26.5 c 128,-1,16
 40 15 40 15 60 15 c 2,17,-1
 158 15 l 1,18,-1
 158 0 l 1,19,-1
 57 0 l 2,0,1
EndSplineSet
EndChar

StartChar: uni0C02
Encoding: 3074 3074 112
Width: 313
GlyphClass: 2
Flags: W
LayerCount: 2
Back
Fore
SplineSet
212 0 m 2,0,-1
 59 0 l 2,1,2
 41 0 41 0 25 14.5 c 128,-1,3
 9 29 9 29 9 55 c 2,4,-1
 9 274 l 2,5,6
 9 298 9 298 25 313 c 128,-1,7
 41 328 41 328 59 328 c 2,8,-1
 210 328 l 2,9,10
 228 328 228 328 244 313 c 128,-1,11
 260 298 260 298 260 274 c 2,12,-1
 260 55 l 2,13,14
 260 38 260 38 254 27.5 c 128,-1,15
 248 17 248 17 240 11 c 128,-1,16
 232 5 232 5 224 2.5 c 128,-1,17
 216 0 216 0 212 0 c 2,0,-1
245 274 m 2,18,19
 245 293 245 293 234.5 303 c 128,-1,20
 224 313 224 313 208 313 c 2,21,-1
 62 313 l 2,22,23
 44 313 44 313 34 302.5 c 128,-1,24
 24 292 24 292 24 274 c 2,25,-1
 24 55 l 2,26,27
 24 38 24 38 33.5 26.5 c 128,-1,28
 43 15 43 15 62 15 c 2,29,-1
 208 15 l 2,30,31
 225 15 225 15 235 26 c 128,-1,32
 245 37 245 37 245 55 c 2,33,-1
 245 274 l 2,18,19
EndSplineSet
EndChar

StartChar: uni0C03
Encoding: 3075 3075 113
Width: 221
GlyphClass: 2
Flags: W
LayerCount: 2
Back
Fore
SplineSet
104 201 m 2,0,-1
 57 201 l 2,1,2
 37 201 37 201 20.5 216 c 128,-1,3
 4 231 4 231 4 254 c 2,4,-1
 4 274 l 2,5,6
 4 298 4 298 20.5 313 c 128,-1,7
 37 328 37 328 57 328 c 2,8,-1
 104 328 l 2,9,10
 125 328 125 328 141.5 313 c 128,-1,11
 158 298 158 298 158 274 c 2,12,-1
 158 254 l 2,13,14
 158 231 158 231 141.5 216 c 128,-1,15
 125 201 125 201 104 201 c 2,0,-1
104 0 m 2,16,-1
 57 0 l 2,17,18
 37 0 37 0 20.5 14.5 c 128,-1,19
 4 29 4 29 4 55 c 2,20,-1
 4 72 l 2,21,22
 4 96 4 96 20.5 110.5 c 128,-1,23
 37 125 37 125 57 125 c 2,24,-1
 104 125 l 2,25,26
 125 125 125 125 141.5 110.5 c 128,-1,27
 158 96 158 96 158 72 c 2,28,-1
 158 55 l 2,29,30
 158 29 158 29 141.5 14.5 c 128,-1,31
 125 0 125 0 104 0 c 2,16,-1
143 274 m 2,32,33
 143 292 143 292 132.5 302.5 c 128,-1,34
 122 313 122 313 102 313 c 2,35,-1
 60 313 l 2,36,37
 40 313 40 313 29.5 302.5 c 128,-1,38
 19 292 19 292 19 274 c 2,39,-1
 19 254 l 2,40,41
 19 216 19 216 60 216 c 2,42,-1
 102 216 l 2,43,44
 143 216 143 216 143 254 c 2,45,-1
 143 274 l 2,32,33
143 72 m 2,46,47
 143 90 143 90 132.5 100.5 c 128,-1,48
 122 111 122 111 102 111 c 2,49,-1
 60 111 l 2,50,51
 40 111 40 111 29.5 100.5 c 128,-1,52
 19 90 19 90 19 72 c 2,53,-1
 19 55 l 2,54,55
 19 38 19 38 29.5 26.5 c 128,-1,56
 40 15 40 15 60 15 c 2,57,-1
 102 15 l 2,58,59
 122 15 122 15 132.5 26.5 c 128,-1,60
 143 38 143 38 143 55 c 2,61,-1
 143 72 l 2,46,47
EndSplineSet
EndChar

StartChar: uni0C05
Encoding: 3077 3077 114
Width: 384
GlyphClass: 2
Flags: W
LayerCount: 2
Back
Fore
SplineSet
285 0 m 2,0,-1
 54 0 l 2,1,2
 34 0 34 0 19 14.5 c 128,-1,3
 4 29 4 29 4 55 c 2,4,-1
 4 273 l 2,5,6
 4 299 4 299 19 313.5 c 128,-1,7
 34 328 34 328 54 328 c 2,8,-1
 87 328 l 2,9,10
 105 328 105 328 121 313.5 c 128,-1,11
 137 299 137 299 137 273 c 2,12,-1
 137 240 l 2,13,14
 137 214 137 214 121 199.5 c 128,-1,15
 105 185 105 185 87 185 c 2,16,-1
 18 185 l 1,17,-1
 18 55 l 2,18,19
 18 37 18 37 29.5 26 c 128,-1,20
 41 15 41 15 56 15 c 2,21,-1
 283 15 l 2,22,23
 298 15 298 15 309.5 26 c 128,-1,24
 321 37 321 37 321 55 c 2,25,-1
 321 274 l 2,26,27
 321 292 321 292 311 302.5 c 128,-1,28
 301 313 301 313 283 313 c 2,29,-1
 254 313 l 2,30,31
 240 313 240 313 228 303.5 c 128,-1,32
 216 294 216 294 216 274 c 2,33,-1
 216 162 l 2,34,35
 216 144 216 144 201.5 127.5 c 128,-1,36
 187 111 187 111 163 111 c 2,37,-1
 80 111 l 1,38,-1
 80 126 l 1,39,-1
 157 126 l 2,40,41
 171 126 171 126 180 130.5 c 128,-1,42
 189 135 189 135 194 142.5 c 128,-1,43
 199 150 199 150 200.5 158 c 128,-1,44
 202 166 202 166 202 174 c 2,45,-1
 202 273 l 2,46,47
 202 299 202 299 218 313.5 c 128,-1,48
 234 328 234 328 252 328 c 2,49,-1
 285 328 l 2,50,51
 305 328 305 328 320 313.5 c 128,-1,52
 335 299 335 299 335 273 c 2,53,-1
 335 55 l 2,54,55
 335 29 335 29 320 14.5 c 128,-1,56
 305 0 305 0 285 0 c 2,0,-1
122 274 m 2,57,58
 122 292 122 292 112 302.5 c 128,-1,59
 102 313 102 313 85 313 c 2,60,-1
 56 313 l 2,61,62
 38 313 38 313 28 302.5 c 128,-1,63
 18 292 18 292 18 274 c 2,64,-1
 18 201 l 1,65,-1
 85 201 l 2,66,67
 102 201 102 201 112 211.5 c 128,-1,68
 122 222 122 222 122 239 c 2,69,-1
 122 274 l 2,57,58
EndSplineSet
EndChar

StartChar: uni0C06
Encoding: 3078 3078 115
Width: 375
GlyphClass: 2
Flags: W
LayerCount: 2
Back
Fore
SplineSet
273 0 m 2,0,-1
 54 0 l 2,1,2
 34 0 34 0 19 14.5 c 128,-1,3
 4 29 4 29 4 55 c 2,4,-1
 4 273 l 2,5,6
 4 299 4 299 19 313.5 c 128,-1,7
 34 328 34 328 54 328 c 2,8,-1
 88 328 l 2,9,10
 105 328 105 328 121 313.5 c 128,-1,11
 137 299 137 299 137 273 c 2,12,-1
 137 240 l 2,13,14
 137 214 137 214 121 199.5 c 128,-1,15
 105 185 105 185 88 185 c 2,16,-1
 18 185 l 1,17,-1
 18 55 l 2,18,19
 18 39 18 39 26.5 27 c 128,-1,20
 35 15 35 15 54 15 c 2,21,-1
 271 15 l 2,22,23
 286 15 286 15 297.5 26 c 128,-1,24
 309 37 309 37 309 55 c 2,25,-1
 309 72 l 2,26,27
 309 90 309 90 299 100.5 c 128,-1,28
 289 111 289 111 271 111 c 2,29,-1
 84 111 l 1,30,-1
 84 126 l 1,31,-1
 225 126 l 2,32,33
 217 128 217 128 212 135 c 128,-1,34
 207 142 207 142 204.5 150 c 128,-1,35
 202 158 202 158 201.5 164.5 c 128,-1,36
 201 171 201 171 201 173 c 2,37,-1
 201 273 l 2,38,39
 201 299 201 299 217 313.5 c 128,-1,40
 233 328 233 328 250 328 c 2,41,-1
 273 328 l 2,42,43
 291 328 291 328 307 313.5 c 128,-1,44
 323 299 323 299 323 273 c 2,45,-1
 323 164 l 2,46,47
 323 154 323 154 313 139.5 c 128,-1,48
 303 125 303 125 289 122 c 1,49,50
 302 120 302 120 312.5 109.5 c 128,-1,51
 323 99 323 99 323 84 c 2,52,-1
 323 55 l 2,53,54
 323 29 323 29 307 14.5 c 128,-1,55
 291 0 291 0 273 0 c 2,0,-1
309 274 m 2,56,57
 309 292 309 292 299 302.5 c 128,-1,58
 289 313 289 313 271 313 c 2,59,-1
 253 313 l 2,60,61
 239 313 239 313 227 303.5 c 128,-1,62
 215 294 215 294 215 274 c 2,63,-1
 215 169 l 2,64,65
 215 150 215 150 226.5 140.5 c 128,-1,66
 238 131 238 131 253 131 c 2,67,-1
 271 131 l 2,68,69
 286 131 286 131 297.5 141.5 c 128,-1,70
 309 152 309 152 309 169 c 2,71,-1
 309 274 l 2,56,57
122 274 m 2,72,73
 122 292 122 292 112.5 302.5 c 128,-1,74
 103 313 103 313 85 313 c 2,75,-1
 56 313 l 2,76,77
 38 313 38 313 28 302.5 c 128,-1,78
 18 292 18 292 18 274 c 2,79,-1
 18 201 l 1,80,-1
 85 201 l 2,81,82
 103 201 103 201 112.5 211.5 c 128,-1,83
 122 222 122 222 122 239 c 2,84,-1
 122 274 l 2,72,73
EndSplineSet
EndChar

StartChar: uni0C07
Encoding: 3079 3079 116
Width: 411
GlyphClass: 2
Flags: W
LayerCount: 2
Back
Fore
SplineSet
346 -1 m 1,0,-1
 346 117 l 2,1,2
 346 136 346 136 335 147 c 128,-1,3
 324 158 324 158 309 158 c 2,4,-1
 276 158 l 1,5,-1
 276 54 l 2,6,7
 276 28 276 28 260.5 13.5 c 128,-1,8
 245 -1 245 -1 227 -1 c 2,9,-1
 52 -1 l 2,10,11
 35 -1 35 -1 19.5 13.5 c 128,-1,12
 4 28 4 28 4 54 c 2,13,-1
 4 117 l 2,14,15
 4 143 4 143 19.5 158 c 128,-1,16
 35 173 35 173 52 173 c 2,17,-1
 262 173 l 1,18,-1
 262 273 l 2,19,20
 262 292 262 292 251.5 302.5 c 128,-1,21
 241 313 241 313 225 313 c 2,22,-1
 183 313 l 2,23,24
 165 313 165 313 155.5 304 c 128,-1,25
 146 295 146 295 146 283 c 2,26,-1
 146 268 l 1,27,-1
 133 268 l 1,28,-1
 133 283 l 2,29,30
 133 297 133 297 120.5 305 c 128,-1,31
 108 313 108 313 94 313 c 2,32,-1
 55 313 l 2,33,34
 37 313 37 313 27.5 301.5 c 128,-1,35
 18 290 18 290 18 273 c 2,36,-1
 18 246 l 1,37,-1
 4 246 l 1,38,-1
 4 273 l 2,39,40
 4 299 4 299 19.5 313.5 c 128,-1,41
 35 328 35 328 52 328 c 2,42,-1
 97 328 l 2,43,44
 105 328 105 328 119.5 324.5 c 128,-1,45
 134 321 134 321 140 308 c 1,46,47
 142 320 142 320 155 324 c 128,-1,48
 168 328 168 328 174 328 c 2,49,-1
 227 328 l 2,50,51
 245 328 245 328 260.5 313.5 c 128,-1,52
 276 299 276 299 276 273 c 2,53,-1
 276 173 l 1,54,-1
 310 173 l 2,55,56
 327 173 327 173 343 160.5 c 128,-1,57
 359 148 359 148 359 122 c 2,58,-1
 359 -1 l 1,59,-1
 346 -1 l 1,0,-1
262 158 m 1,60,-1
 55 158 l 2,61,62
 40 158 40 158 29 147 c 128,-1,63
 18 136 18 136 18 117 c 2,64,-1
 18 54 l 2,65,66
 18 36 18 36 29 25 c 128,-1,67
 40 14 40 14 55 14 c 2,68,-1
 226 14 l 2,69,70
 245 14 245 14 253.5 26 c 128,-1,71
 262 38 262 38 262 54 c 2,72,-1
 262 158 l 1,60,-1
EndSplineSet
EndChar

StartChar: uni0C08
Encoding: 3080 3080 117
Width: 521
GlyphClass: 2
Flags: W
LayerCount: 2
Back
Fore
SplineSet
464 141 m 2,0,-1
 464 45 l 2,1,2
 464 22 464 22 452 11 c 128,-1,3
 440 0 440 0 426 0 c 2,4,-1
 385 0 l 2,5,6
 369 0 369 0 356 12.5 c 128,-1,7
 343 25 343 25 343 45 c 2,8,-1
 343 146 l 2,9,10
 343 156 343 156 346.5 163 c 128,-1,11
 350 170 350 170 355 174 c 1,12,-1
 270 174 l 1,13,-1
 270 45 l 2,14,15
 270 25 270 25 257 12.5 c 128,-1,16
 244 0 244 0 229 0 c 2,17,-1
 87 0 l 2,18,19
 72 0 72 0 60.5 11 c 128,-1,20
 49 22 49 22 49 45 c 2,21,-1
 49 174 l 1,22,-1
 4 174 l 1,23,-1
 4 189 l 1,24,-1
 49 189 l 1,25,-1
 49 276 l 2,26,27
 49 284 49 284 55.5 298.5 c 128,-1,28
 62 313 62 313 79 317 c 1,29,30
 65 322 65 322 61 335.5 c 128,-1,31
 57 349 57 349 57 354 c 2,32,-1
 57 390 l 1,33,-1
 71 390 l 1,34,-1
 71 359 l 2,35,36
 71 338 71 338 83 331 c 128,-1,37
 95 324 95 324 107 321 c 2,38,-1
 165 321 l 1,39,-1
 165 386 l 2,40,41
 165 406 165 406 178.5 419 c 128,-1,42
 192 432 192 432 207 432 c 2,43,-1
 267 432 l 1,44,-1
 267 417 l 1,45,-1
 214 417 l 2,46,47
 195 417 195 417 188 405 c 128,-1,48
 181 393 181 393 181 380 c 2,49,-1
 181 321 l 1,50,-1
 229 321 l 2,51,52
 244 321 244 321 257 308.5 c 128,-1,53
 270 296 270 296 270 276 c 2,54,-1
 270 189 l 1,55,-1
 417 189 l 2,56,57
 432 189 432 189 440.5 198.5 c 128,-1,58
 449 208 449 208 449 223 c 2,59,-1
 449 271 l 2,60,61
 449 287 449 287 440.5 296.5 c 128,-1,62
 432 306 432 306 417 306 c 2,63,-1
 383 306 l 2,64,65
 367 306 367 306 362 299 c 128,-1,66
 357 292 357 292 357 284 c 2,67,-1
 357 268 l 1,68,-1
 343 268 l 1,69,-1
 343 283 l 2,70,71
 343 307 343 307 354 314 c 128,-1,72
 365 321 365 321 382 321 c 2,73,-1
 417 321 l 2,74,75
 436 321 436 321 450 311 c 128,-1,76
 464 301 464 301 464 276 c 2,77,-1
 464 222 l 2,78,79
 464 215 464 215 459.5 199.5 c 128,-1,80
 455 184 455 184 439 180 c 1,81,82
 453 178 453 178 458.5 166 c 128,-1,83
 464 154 464 154 464 141 c 2,0,-1
449 139 m 2,84,85
 449 154 449 154 440.5 163.5 c 128,-1,86
 432 173 432 173 417 173 c 2,87,-1
 390 173 l 2,88,89
 357 173 357 173 357 139 c 2,90,-1
 357 49 l 2,91,92
 357 15 357 15 390 15 c 2,93,-1
 417 15 l 2,94,95
 449 15 449 15 449 49 c 2,96,-1
 449 139 l 2,84,85
256 271 m 2,97,98
 256 306 256 306 221 306 c 2,99,-1
 99 306 l 2,100,101
 83 306 83 306 72.5 297.5 c 128,-1,102
 62 289 62 289 62 271 c 2,103,-1
 62 189 l 1,104,-1
 256 189 l 1,105,-1
 256 271 l 2,97,98
256 174 m 1,106,-1
 62 174 l 1,107,-1
 62 49 l 2,108,109
 62 31 62 31 74 23 c 128,-1,110
 86 15 86 15 99 15 c 2,111,-1
 221 15 l 2,112,113
 237 15 237 15 246.5 23.5 c 128,-1,114
 256 32 256 32 256 49 c 2,115,-1
 256 174 l 1,106,-1
EndSplineSet
EndChar

StartChar: uni0C09
Encoding: 3081 3081 118
Width: 359
GlyphClass: 2
Flags: W
LayerCount: 2
Back
Fore
SplineSet
258 0 m 2,0,-1
 202 0 l 2,1,2
 200 0 200 0 195.5 -0.5 c 128,-1,3
 191 -1 191 -1 185 1.5 c 128,-1,4
 179 4 179 4 173.5 9 c 128,-1,5
 168 14 168 14 164 24 c 1,6,7
 156 5 156 5 143 2.5 c 128,-1,8
 130 0 130 0 119 0 c 2,9,-1
 66 0 l 2,10,11
 52 0 52 0 38.5 12.5 c 128,-1,12
 25 25 25 25 25 45 c 2,13,-1
 25 175 l 1,14,-1
 4 175 l 1,15,-1
 4 190 l 1,16,-1
 25 190 l 1,17,-1
 25 279 l 2,18,19
 25 299 25 299 38.5 311 c 128,-1,20
 52 323 52 323 66 323 c 2,21,-1
 156 323 l 1,22,-1
 156 390 l 1,23,-1
 170 390 l 1,24,-1
 170 323 l 1,25,-1
 258 323 l 2,26,27
 274 323 274 323 287.5 311 c 128,-1,28
 301 299 301 299 301 279 c 2,29,-1
 301 265 l 1,30,-1
 287 265 l 1,31,-1
 287 275 l 2,32,33
 287 289 287 289 279 298.5 c 128,-1,34
 271 308 271 308 254 308 c 2,35,-1
 73 308 l 2,36,37
 56 308 56 308 47 299 c 128,-1,38
 38 290 38 290 38 275 c 2,39,-1
 38 190 l 1,40,-1
 177 190 l 1,41,-1
 177 175 l 1,42,-1
 38 175 l 1,43,-1
 38 51 l 2,44,45
 38 36 38 36 47 25.5 c 128,-1,46
 56 15 56 15 73 15 c 2,47,-1
 120 15 l 2,48,49
 140 15 140 15 148 25.5 c 128,-1,50
 156 36 156 36 156 50 c 2,51,-1
 156 69 l 1,52,-1
 170 69 l 1,53,-1
 170 51 l 2,54,55
 170 36 170 36 179 25.5 c 128,-1,56
 188 15 188 15 205 15 c 2,57,-1
 254 15 l 2,58,59
 273 15 273 15 280 27.5 c 128,-1,60
 287 40 287 40 287 52 c 2,61,-1
 287 139 l 2,62,63
 287 153 287 153 279.5 164 c 128,-1,64
 272 175 272 175 254 175 c 2,65,-1
 245 175 l 1,66,-1
 245 190 l 1,67,-1
 258 190 l 2,68,69
 274 190 274 190 287.5 178 c 128,-1,70
 301 166 301 166 301 146 c 2,71,-1
 301 47 l 2,72,73
 301 26 301 26 287.5 13 c 128,-1,74
 274 0 274 0 258 0 c 2,0,-1
EndSplineSet
EndChar

StartChar: uni0C0A
Encoding: 3082 3082 119
Width: 536
GlyphClass: 2
Flags: W
LayerCount: 2
Back
Fore
SplineSet
425 0 m 2,0,-1
 387 0 l 2,1,2
 371 0 371 0 358.5 11.5 c 128,-1,3
 346 23 346 23 346 44 c 2,4,-1
 346 134 l 2,5,6
 346 145 346 145 347.5 154.5 c 128,-1,7
 349 164 349 164 356 172 c 1,8,-1
 305 172 l 1,9,-1
 305 187 l 1,10,-1
 420 187 l 2,11,12
 433 187 433 187 442.5 194.5 c 128,-1,13
 452 202 452 202 452 218 c 2,14,-1
 452 274 l 2,15,16
 452 292 452 292 443 300 c 128,-1,17
 434 308 434 308 420 308 c 2,18,-1
 389 308 l 2,19,20
 372 308 372 308 365 296 c 128,-1,21
 358 284 358 284 358 274 c 2,22,-1
 358 254 l 1,23,-1
 343 254 l 1,24,-1
 343 278 l 2,25,26
 343 298 343 298 356 311 c 128,-1,27
 369 324 369 324 384 324 c 2,28,-1
 425 324 l 2,29,30
 440 324 440 324 453 311 c 128,-1,31
 466 298 466 298 466 278 c 2,32,-1
 466 219 l 2,33,34
 466 204 466 204 459 192 c 128,-1,35
 452 180 452 180 440 178 c 1,36,37
 466 167 466 167 466 134 c 2,38,-1
 466 44 l 2,39,40
 466 23 466 23 453.5 11.5 c 128,-1,41
 441 0 441 0 425 0 c 2,0,-1
248 0 m 2,42,-1
 195 0 l 2,43,44
 191 -1 191 -1 177 3 c 128,-1,45
 163 7 163 7 157 24 c 1,46,47
 153 6 153 6 138.5 3 c 128,-1,48
 124 0 124 0 114 0 c 2,49,-1
 64 0 l 2,50,51
 50 0 50 0 37 12.5 c 128,-1,52
 24 25 24 25 24 45 c 2,53,-1
 24 175 l 1,54,-1
 4 175 l 1,55,-1
 4 190 l 1,56,-1
 24 190 l 1,57,-1
 24 279 l 2,58,59
 24 299 24 299 37 311.5 c 128,-1,60
 50 324 50 324 64 324 c 2,61,-1
 108 324 l 1,62,-1
 108 388 l 1,63,-1
 122 388 l 1,64,-1
 122 324 l 1,65,-1
 193 324 l 1,66,-1
 193 388 l 1,67,-1
 208 388 l 1,68,-1
 208 324 l 1,69,-1
 248 324 l 2,70,71
 264 324 264 324 276.5 311.5 c 128,-1,72
 289 299 289 299 289 279 c 2,73,-1
 289 265 l 1,74,-1
 276 265 l 1,75,-1
 276 275 l 2,76,77
 276 289 276 289 268.5 298.5 c 128,-1,78
 261 308 261 308 244 308 c 2,79,-1
 70 308 l 2,80,81
 37 308 37 308 37 275 c 2,82,-1
 37 190 l 1,83,-1
 181 190 l 1,84,-1
 181 175 l 1,85,-1
 37 175 l 1,86,-1
 37 51 l 2,87,88
 37 36 37 36 45 25.5 c 128,-1,89
 53 15 53 15 70 15 c 2,90,-1
 115 15 l 2,91,92
 135 15 135 15 142.5 25.5 c 128,-1,93
 150 36 150 36 150 50 c 2,94,-1
 150 69 l 1,95,-1
 164 69 l 1,96,-1
 164 51 l 2,97,98
 164 36 164 36 172 25.5 c 128,-1,99
 180 15 180 15 197 15 c 2,100,-1
 244 15 l 2,101,102
 262 15 262 15 269 27.5 c 128,-1,103
 276 40 276 40 276 52 c 2,104,-1
 276 139 l 2,105,106
 276 153 276 153 268.5 164 c 128,-1,107
 261 175 261 175 244 175 c 2,108,-1
 235 175 l 1,109,-1
 235 190 l 1,110,-1
 248 190 l 2,111,112
 264 190 264 190 276.5 178 c 128,-1,113
 289 166 289 166 289 146 c 2,114,-1
 289 47 l 2,115,116
 289 26 289 26 276 13 c 128,-1,117
 263 0 263 0 248 0 c 2,42,-1
452 134 m 2,118,119
 452 150 452 150 443.5 159.5 c 128,-1,120
 435 169 435 169 420 169 c 2,121,-1
 392 169 l 2,122,123
 376 169 376 169 368.5 158.5 c 128,-1,124
 361 148 361 148 361 134 c 2,125,-1
 361 46 l 2,126,127
 361 15 361 15 392 15 c 2,128,-1
 420 15 l 2,129,130
 433 15 433 15 442.5 22.5 c 128,-1,131
 452 30 452 30 452 46 c 2,132,-1
 452 134 l 2,118,119
EndSplineSet
EndChar

StartChar: uni0C0B
Encoding: 3083 3083 120
Width: 608
GlyphClass: 2
Flags: W
LayerCount: 2
Back
Fore
SplineSet
512 328 m 1,0,1
 529 328 529 328 545 313.5 c 128,-1,2
 561 299 561 299 561 273 c 2,3,-1
 561 55 l 2,4,5
 561 29 561 29 544.5 14.5 c 128,-1,6
 528 0 528 0 511 0 c 2,7,-1
 459 0 l 2,8,9
 450 0 450 0 434.5 4.5 c 128,-1,10
 419 9 419 9 411 27 c 1,11,12
 405 10 405 10 390.5 5 c 128,-1,13
 376 0 376 0 368 0 c 2,14,-1
 316 0 l 2,15,16
 312 0 312 0 305 1 c 128,-1,17
 298 2 298 2 290.5 5 c 128,-1,18
 283 8 283 8 277 12.5 c 128,-1,19
 271 17 271 17 268 25 c 1,20,21
 266 17 266 17 260.5 12 c 128,-1,22
 255 7 255 7 248 4.5 c 128,-1,23
 241 2 241 2 234.5 1 c 128,-1,24
 228 0 228 0 224 0 c 2,25,-1
 174 0 l 2,26,27
 168 0 168 0 154.5 4 c 128,-1,28
 141 8 141 8 136 26 c 1,29,30
 131 9 131 9 119.5 4.5 c 128,-1,31
 108 0 108 0 96 0 c 2,32,-1
 52 0 l 2,33,34
 33 0 33 0 18.5 14.5 c 128,-1,35
 4 29 4 29 4 55 c 2,36,-1
 4 139 l 2,37,38
 4 165 4 165 18.5 179.5 c 128,-1,39
 33 194 33 194 52 194 c 2,40,-1
 93 194 l 2,41,42
 130 194 130 194 130 233 c 2,43,-1
 130 274 l 2,44,45
 130 292 130 292 120 302.5 c 128,-1,46
 110 313 110 313 93 313 c 2,47,-1
 54 313 l 2,48,49
 37 313 37 313 27.5 303 c 128,-1,50
 18 293 18 293 18 284 c 2,51,-1
 18 268 l 1,52,-1
 4 268 l 1,53,-1
 4 283 l 2,54,55
 4 308 4 308 18.5 318 c 128,-1,56
 33 328 33 328 52 328 c 2,57,-1
 95 328 l 2,58,59
 113 328 113 328 128 313.5 c 128,-1,60
 143 299 143 299 143 273 c 2,61,-1
 143 234 l 2,62,63
 143 208 143 208 128 193.5 c 128,-1,64
 113 179 113 179 95 179 c 2,65,-1
 54 179 l 2,66,67
 40 179 40 179 29 168 c 128,-1,68
 18 157 18 157 18 139 c 2,69,-1
 18 55 l 2,70,71
 18 37 18 37 29 25 c 128,-1,72
 40 13 40 13 54 13 c 2,73,-1
 93 13 l 2,74,75
 111 13 111 13 120.5 25 c 128,-1,76
 130 37 130 37 130 55 c 2,77,-1
 130 71 l 1,78,-1
 143 71 l 1,79,-1
 143 55 l 2,80,81
 143 37 143 37 152.5 25 c 128,-1,82
 162 13 162 13 180 13 c 2,83,-1
 222 13 l 2,84,85
 237 13 237 13 247.5 25 c 128,-1,86
 258 37 258 37 258 55 c 2,87,-1
 258 274 l 2,88,89
 258 292 258 292 248.5 302.5 c 128,-1,90
 239 313 239 313 222 313 c 2,91,-1
 215 313 l 1,92,-1
 215 328 l 1,93,-1
 224 328 l 2,94,95
 241 328 241 328 256.5 313.5 c 128,-1,96
 272 299 272 299 272 273 c 2,97,-1
 272 54 l 2,98,99
 272 37 272 37 285 25 c 128,-1,100
 298 13 298 13 318 13 c 2,101,-1
 366 13 l 2,102,103
 381 13 381 13 391.5 25.5 c 128,-1,104
 402 38 402 38 402 56 c 2,105,-1
 402 275 l 2,106,107
 402 312 402 312 369 314 c 1,108,-1
 369 329 l 1,109,110
 386 329 386 329 401.5 314 c 128,-1,111
 417 299 417 299 417 273 c 2,112,-1
 417 63 l 2,113,114
 417 41 417 41 429 27 c 128,-1,115
 441 13 441 13 461 13 c 2,116,-1
 509 13 l 2,117,118
 524 13 524 13 534.5 25 c 128,-1,119
 545 37 545 37 545 55 c 2,120,-1
 545 274 l 2,121,122
 545 311 545 311 512 313 c 1,123,-1
 512 328 l 1,0,1
EndSplineSet
EndChar

StartChar: uni0C0C
Encoding: 3084 3084 121
Width: 362
GlyphClass: 2
Flags: W
LayerCount: 2
Back
Fore
SplineSet
50 160 m 1,0,1
 32 162 32 162 18.5 176 c 128,-1,2
 5 190 5 190 5 214 c 2,3,-1
 5 273 l 2,4,5
 5 299 5 299 20 313.5 c 128,-1,6
 35 328 35 328 54 328 c 2,7,-1
 106 328 l 2,8,9
 117 328 117 328 130 324.5 c 128,-1,10
 143 321 143 321 147 310 c 1,11,12
 148 315 148 315 153.5 318.5 c 128,-1,13
 159 322 159 322 165.5 324 c 128,-1,14
 172 326 172 326 178.5 327 c 128,-1,15
 185 328 185 328 189 328 c 2,16,-1
 238 328 l 2,17,18
 257 328 257 328 272 313.5 c 128,-1,19
 287 299 287 299 287 273 c 2,20,-1
 287 191 l 2,21,22
 287 166 287 166 270.5 153 c 128,-1,23
 254 140 254 140 236 136 c 2,24,-1
 153 115 l 2,25,26
 139 112 139 112 126 99 c 128,-1,27
 113 86 113 86 113 66 c 2,28,-1
 113 -87 l 2,29,30
 113 -127 113 -127 154 -127 c 2,31,-1
 234 -127 l 2,32,33
 275 -127 275 -127 275 -87 c 2,34,-1
 275 23 l 1,35,-1
 287 23 l 1,36,-1
 287 -87 l 2,37,38
 287 -112 287 -112 272 -126.5 c 128,-1,39
 257 -141 257 -141 238 -141 c 2,40,-1
 152 -141 l 2,41,42
 132 -141 132 -141 116.5 -126.5 c 128,-1,43
 101 -112 101 -112 101 -86 c 2,44,-1
 101 69 l 2,45,46
 101 95 101 95 117 109.5 c 128,-1,47
 133 124 133 124 153 129 c 2,48,-1
 235 149 l 2,49,50
 252 154 252 154 263.5 163.5 c 128,-1,51
 275 173 275 173 275 191 c 2,52,-1
 275 273 l 2,53,54
 275 292 275 292 264.5 303 c 128,-1,55
 254 314 254 314 234 314 c 2,56,-1
 194 314 l 2,57,58
 174 314 174 314 163.5 308 c 128,-1,59
 153 302 153 302 153 283 c 2,60,-1
 153 269 l 1,61,-1
 141 269 l 1,62,-1
 141 283 l 2,63,64
 141 303 141 303 129 308.5 c 128,-1,65
 117 314 117 314 102 314 c 2,66,-1
 56 314 l 2,67,68
 37 314 37 314 26.5 303 c 128,-1,69
 16 292 16 292 16 273 c 2,70,-1
 16 213 l 2,71,72
 16 177 16 177 50 172 c 1,73,-1
 50 160 l 1,0,1
EndSplineSet
EndChar

StartChar: uni0C0E
Encoding: 3086 3086 122
Width: 348
GlyphClass: 2
Flags: W
LayerCount: 2
Back
Fore
SplineSet
235 0 m 2,0,-1
 186 0 l 2,1,2
 181 0 181 0 166.5 5.5 c 128,-1,3
 152 11 152 11 145 26 c 1,4,5
 140 9 140 9 125 4.5 c 128,-1,6
 110 0 110 0 102 0 c 2,7,-1
 54 0 l 2,8,9
 35 0 35 0 19.5 15 c 128,-1,10
 4 30 4 30 4 55 c 2,11,-1
 4 150 l 2,12,13
 4 176 4 176 19.5 191 c 128,-1,14
 35 206 35 206 54 206 c 2,15,-1
 102 206 l 2,16,17
 119 206 119 206 135.5 191 c 128,-1,18
 152 176 152 176 152 150 c 2,19,-1
 152 41 l 1,20,21
 167 15 167 15 192 15 c 2,22,-1
 232 15 l 2,23,24
 249 15 249 15 259.5 26 c 128,-1,25
 270 37 270 37 270 55 c 2,26,-1
 270 296 l 2,27,28
 270 314 270 314 260 324.5 c 128,-1,29
 250 335 250 335 232 335 c 2,30,-1
 160 335 l 1,31,-1
 160 351 l 1,32,-1
 235 351 l 2,33,34
 252 351 252 351 268.5 336 c 128,-1,35
 285 321 285 321 285 295 c 2,36,-1
 285 55 l 2,37,38
 285 30 285 30 268.5 15 c 128,-1,39
 252 0 252 0 235 0 c 2,0,-1
138 151 m 2,40,41
 138 169 138 169 126.5 180 c 128,-1,42
 115 191 115 191 100 191 c 2,43,-1
 57 191 l 2,44,45
 37 191 37 191 27.5 179.5 c 128,-1,46
 18 168 18 168 18 151 c 2,47,-1
 18 55 l 2,48,49
 18 36 18 36 29.5 25.5 c 128,-1,50
 41 15 41 15 57 15 c 2,51,-1
 100 15 l 2,52,53
 115 15 115 15 126.5 25.5 c 128,-1,54
 138 36 138 36 138 55 c 2,55,-1
 138 151 l 2,40,41
EndSplineSet
EndChar

StartChar: uni0C0F
Encoding: 3087 3087 123
Width: 348
GlyphClass: 2
Flags: W
LayerCount: 2
Back
Fore
SplineSet
75 411 m 2,0,1
 57 411 57 411 46.5 401 c 128,-1,2
 36 391 36 391 36 373 c 2,3,-1
 36 325 l 1,4,-1
 23 325 l 1,5,-1
 23 372 l 2,6,7
 23 396 23 396 38.5 411 c 128,-1,8
 54 426 54 426 73 426 c 2,9,-1
 137 426 l 1,10,-1
 137 411 l 1,11,-1
 75 411 l 2,0,1
235 0 m 2,12,-1
 186 0 l 2,13,14
 181 0 181 0 166.5 5.5 c 128,-1,15
 152 11 152 11 145 26 c 1,16,17
 140 9 140 9 125 4.5 c 128,-1,18
 110 0 110 0 102 0 c 2,19,-1
 54 0 l 2,20,21
 35 0 35 0 19.5 15 c 128,-1,22
 4 30 4 30 4 55 c 2,23,-1
 4 150 l 2,24,25
 4 176 4 176 19.5 191 c 128,-1,26
 35 206 35 206 54 206 c 2,27,-1
 102 206 l 2,28,29
 119 206 119 206 135.5 191 c 128,-1,30
 152 176 152 176 152 150 c 2,31,-1
 152 41 l 1,32,33
 167 15 167 15 192 15 c 2,34,-1
 232 15 l 2,35,36
 249 15 249 15 259.5 26 c 128,-1,37
 270 37 270 37 270 55 c 2,38,-1
 270 296 l 2,39,40
 270 314 270 314 260 324.5 c 128,-1,41
 250 335 250 335 232 335 c 2,42,-1
 160 335 l 1,43,-1
 160 351 l 1,44,-1
 235 351 l 2,45,46
 252 351 252 351 268.5 336 c 128,-1,47
 285 321 285 321 285 295 c 2,48,-1
 285 55 l 2,49,50
 285 30 285 30 268.5 15 c 128,-1,51
 252 0 252 0 235 0 c 2,12,-1
138 151 m 2,52,53
 138 169 138 169 126.5 180 c 128,-1,54
 115 191 115 191 100 191 c 2,55,-1
 57 191 l 2,56,57
 37 191 37 191 27.5 179.5 c 128,-1,58
 18 168 18 168 18 151 c 2,59,-1
 18 55 l 2,60,61
 18 36 18 36 29.5 25.5 c 128,-1,62
 41 15 41 15 57 15 c 2,63,-1
 100 15 l 2,64,65
 115 15 115 15 126.5 25.5 c 128,-1,66
 138 36 138 36 138 55 c 2,67,-1
 138 151 l 2,52,53
EndSplineSet
EndChar

StartChar: uni0C10
Encoding: 3088 3088 124
Width: 347
GlyphClass: 2
Flags: W
LayerCount: 2
Back
Fore
SplineSet
234 0 m 2,0,-1
 181 0 l 2,1,2
 176 0 176 0 164 2 c 128,-1,3
 152 4 152 4 142 20 c 1,4,5
 136 5 136 5 122 2.5 c 128,-1,6
 108 0 108 0 100 0 c 2,7,-1
 53 0 l 2,8,9
 36 0 36 0 20 14.5 c 128,-1,10
 4 29 4 29 4 55 c 2,11,-1
 4 138 l 2,12,13
 4 164 4 164 19.5 178 c 128,-1,14
 35 192 35 192 53 192 c 2,15,-1
 100 192 l 2,16,17
 120 192 120 192 135 178 c 128,-1,18
 150 164 150 164 150 138 c 2,19,-1
 150 42 l 2,20,21
 150 28 150 28 164 21.5 c 128,-1,22
 178 15 178 15 192 15 c 2,23,-1
 232 15 l 2,24,25
 248 15 248 15 258.5 26 c 128,-1,26
 269 37 269 37 269 55 c 2,27,-1
 269 274 l 2,28,29
 269 292 269 292 259 302.5 c 128,-1,30
 249 313 249 313 232 313 c 2,31,-1
 187 313 l 2,32,33
 169 313 169 313 159 305 c 128,-1,34
 149 297 149 297 149 284 c 2,35,-1
 149 268 l 1,36,-1
 136 268 l 1,37,-1
 136 284 l 2,38,39
 136 298 136 298 123 305.5 c 128,-1,40
 110 313 110 313 96 313 c 2,41,-1
 57 313 l 2,42,43
 38 313 38 313 28 302.5 c 128,-1,44
 18 292 18 292 18 274 c 2,45,-1
 18 257 l 1,46,-1
 4 257 l 1,47,-1
 4 274 l 2,48,49
 4 298 4 298 20 313 c 128,-1,50
 36 328 36 328 53 328 c 2,51,-1
 100 328 l 2,52,53
 108 328 108 328 122.5 324 c 128,-1,54
 137 320 137 320 143 303 c 1,55,56
 144 312 144 312 149 317 c 128,-1,57
 154 322 154 322 159.5 324.5 c 128,-1,58
 165 327 165 327 169.5 327.5 c 128,-1,59
 174 328 174 328 175 328 c 2,60,-1
 234 328 l 2,61,62
 252 328 252 328 267.5 314 c 128,-1,63
 283 300 283 300 283 274 c 2,64,-1
 283 55 l 2,65,66
 283 29 283 29 267 14.5 c 128,-1,67
 251 0 251 0 234 0 c 2,0,-1
137 138 m 2,68,69
 137 156 137 156 126.5 166.5 c 128,-1,70
 116 177 116 177 98 177 c 2,71,-1
 57 177 l 2,72,73
 38 177 38 177 28 166.5 c 128,-1,74
 18 156 18 156 18 138 c 2,75,-1
 18 55 l 2,76,77
 18 37 18 37 29.5 26 c 128,-1,78
 41 15 41 15 57 15 c 2,79,-1
 98 15 l 2,80,81
 117 15 117 15 127 26.5 c 128,-1,82
 137 38 137 38 137 55 c 2,83,-1
 137 138 l 2,68,69
EndSplineSet
EndChar

StartChar: uni0C12
Encoding: 3090 3090 125
Width: 318
GlyphClass: 2
Flags: W
LayerCount: 2
Back
Fore
SplineSet
215 0 m 2,0,-1
 174 0 l 2,1,2
 167 0 167 0 153 6 c 128,-1,3
 139 12 139 12 133 26 c 1,4,5
 128 12 128 12 115 6 c 128,-1,6
 102 0 102 0 90 0 c 2,7,-1
 55 0 l 2,8,9
 35 0 35 0 19.5 14.5 c 128,-1,10
 4 29 4 29 4 55 c 2,11,-1
 4 139 l 2,12,13
 4 165 4 165 19.5 179.5 c 128,-1,14
 35 194 35 194 55 194 c 2,15,-1
 98 194 l 2,16,17
 138 194 138 194 138 233 c 2,18,-1
 138 274 l 2,19,20
 138 313 138 313 98 313 c 2,21,-1
 57 313 l 2,22,23
 39 313 39 313 28.5 302.5 c 128,-1,24
 18 292 18 292 18 274 c 2,25,-1
 18 257 l 1,26,-1
 4 257 l 1,27,-1
 4 273 l 2,28,29
 4 299 4 299 19.5 313.5 c 128,-1,30
 35 328 35 328 55 328 c 2,31,-1
 100 328 l 2,32,33
 120 328 120 328 135.5 313.5 c 128,-1,34
 151 299 151 299 151 273 c 2,35,-1
 151 234 l 2,36,37
 151 208 151 208 135.5 193.5 c 128,-1,38
 120 179 120 179 100 179 c 2,39,-1
 57 179 l 2,40,41
 41 179 41 179 29.5 168 c 128,-1,42
 18 157 18 157 18 139 c 2,43,-1
 18 55 l 2,44,45
 18 37 18 37 29.5 26 c 128,-1,46
 41 15 41 15 57 15 c 2,47,-1
 87 15 l 2,48,49
 107 15 107 15 117 26.5 c 128,-1,50
 127 38 127 38 127 55 c 2,51,-1
 127 71 l 1,52,-1
 140 71 l 1,53,-1
 140 55 l 2,54,55
 140 38 140 38 150 26.5 c 128,-1,56
 160 15 160 15 180 15 c 2,57,-1
 213 15 l 2,58,59
 229 15 229 15 240.5 26 c 128,-1,60
 252 37 252 37 252 55 c 2,61,-1
 252 96 l 1,62,-1
 266 96 l 1,63,-1
 266 55 l 2,64,65
 266 29 266 29 249.5 14.5 c 128,-1,66
 233 0 233 0 215 0 c 2,0,-1
EndSplineSet
EndChar

StartChar: uni0C13
Encoding: 3091 3091 126
Width: 318
GlyphClass: 2
Flags: W
LayerCount: 2
Back
Fore
SplineSet
215 0 m 2,0,-1
 174 0 l 2,1,2
 167 0 167 0 153 6 c 128,-1,3
 139 12 139 12 133 26 c 1,4,5
 128 12 128 12 115 6 c 128,-1,6
 102 0 102 0 90 0 c 2,7,-1
 55 0 l 2,8,9
 35 0 35 0 19.5 14.5 c 128,-1,10
 4 29 4 29 4 55 c 2,11,-1
 4 139 l 2,12,13
 4 165 4 165 19.5 179.5 c 128,-1,14
 35 194 35 194 55 194 c 2,15,-1
 98 194 l 2,16,17
 138 194 138 194 138 233 c 2,18,-1
 138 274 l 2,19,20
 138 313 138 313 98 313 c 2,21,-1
 57 313 l 2,22,23
 39 313 39 313 28.5 302.5 c 128,-1,24
 18 292 18 292 18 274 c 2,25,-1
 18 257 l 1,26,-1
 4 257 l 1,27,-1
 4 273 l 2,28,29
 4 299 4 299 19.5 313.5 c 128,-1,30
 35 328 35 328 55 328 c 2,31,-1
 68 328 l 1,32,-1
 68 380 l 2,33,34
 68 406 68 406 80 416 c 128,-1,35
 92 426 92 426 113 426 c 2,36,-1
 144 426 l 2,37,38
 167 426 167 426 176.5 416.5 c 128,-1,39
 186 407 186 407 186 388 c 2,40,-1
 186 373 l 1,41,-1
 171 373 l 1,42,-1
 171 385 l 2,43,44
 171 396 171 396 166 403.5 c 128,-1,45
 161 411 161 411 144 411 c 2,46,-1
 113 411 l 2,47,48
 96 411 96 411 89 400.5 c 128,-1,49
 82 390 82 390 82 375 c 2,50,-1
 82 328 l 1,51,-1
 100 328 l 2,52,53
 120 328 120 328 135.5 313.5 c 128,-1,54
 151 299 151 299 151 273 c 2,55,-1
 151 234 l 2,56,57
 151 208 151 208 135.5 193.5 c 128,-1,58
 120 179 120 179 100 179 c 2,59,-1
 57 179 l 2,60,61
 41 179 41 179 29.5 168 c 128,-1,62
 18 157 18 157 18 139 c 2,63,-1
 18 55 l 2,64,65
 18 37 18 37 29.5 26 c 128,-1,66
 41 15 41 15 57 15 c 2,67,-1
 87 15 l 2,68,69
 107 15 107 15 117 26.5 c 128,-1,70
 127 38 127 38 127 55 c 2,71,-1
 127 71 l 1,72,-1
 140 71 l 1,73,-1
 140 55 l 2,74,75
 140 38 140 38 150 26.5 c 128,-1,76
 160 15 160 15 180 15 c 2,77,-1
 213 15 l 2,78,79
 229 15 229 15 240.5 26 c 128,-1,80
 252 37 252 37 252 55 c 2,81,-1
 252 96 l 1,82,-1
 266 96 l 1,83,-1
 266 55 l 2,84,85
 266 29 266 29 249.5 14.5 c 128,-1,86
 233 0 233 0 215 0 c 2,0,-1
EndSplineSet
EndChar

StartChar: uni0C14
Encoding: 3092 3092 127
Width: 416
GlyphClass: 2
Flags: W
LayerCount: 2
Back
Fore
SplineSet
346 320 m 1,0,-1
 288 320 l 2,1,2
 274 320 274 320 262.5 310.5 c 128,-1,3
 251 301 251 301 251 281 c 2,4,-1
 251 245 l 2,5,6
 251 226 251 226 262.5 216.5 c 128,-1,7
 274 207 274 207 288 207 c 2,8,-1
 308 207 l 2,9,10
 346 207 346 207 346 245 c 2,11,-1
 346 320 l 1,0,-1
215 0 m 2,12,-1
 174 0 l 2,13,14
 167 0 167 0 153 6 c 128,-1,15
 139 12 139 12 133 26 c 1,16,17
 128 12 128 12 115 6 c 128,-1,18
 102 0 102 0 90 0 c 2,19,-1
 55 0 l 2,20,21
 35 0 35 0 19.5 14.5 c 128,-1,22
 4 29 4 29 4 55 c 2,23,-1
 4 139 l 2,24,25
 4 165 4 165 19.5 179.5 c 128,-1,26
 35 194 35 194 55 194 c 2,27,-1
 98 194 l 2,28,29
 138 194 138 194 138 233 c 2,30,-1
 138 274 l 2,31,32
 138 313 138 313 98 313 c 2,33,-1
 58 313 l 2,34,35
 40 313 40 313 29 302.5 c 128,-1,36
 18 292 18 292 18 274 c 2,37,-1
 18 257 l 1,38,-1
 4 257 l 1,39,-1
 4 273 l 2,40,41
 4 299 4 299 19.5 313.5 c 128,-1,42
 35 328 35 328 55 328 c 0,43,44
 64 328 64 328 68 328 c 128,-1,45
 72 328 72 328 75.5 328.5 c 128,-1,46
 79 329 79 329 85.5 329 c 128,-1,47
 92 329 92 329 106 329 c 0,48,49
 126 329 126 329 131 340.5 c 128,-1,50
 136 352 136 352 136 360 c 2,51,-1
 136 384 l 2,52,53
 136 395 136 395 130.5 407 c 128,-1,54
 125 419 125 419 110 419 c 2,55,-1
 4 419 l 1,56,-1
 4 435 l 1,57,-1
 312 435 l 2,58,59
 330 435 330 435 345 420.5 c 128,-1,60
 360 406 360 406 360 381 c 2,61,-1
 360 245 l 2,62,63
 360 220 360 220 345 205.5 c 128,-1,64
 330 191 330 191 312 191 c 2,65,-1
 284 191 l 2,66,67
 265 191 265 191 250.5 205.5 c 128,-1,68
 236 220 236 220 236 245 c 2,69,-1
 236 283 l 2,70,71
 236 309 236 309 250 322 c 128,-1,72
 264 335 264 335 284 335 c 2,73,-1
 346 335 l 1,74,-1
 346 381 l 2,75,76
 346 419 346 419 308 419 c 2,77,-1
 141 419 l 1,78,79
 146 413 146 413 148.5 405.5 c 128,-1,80
 151 398 151 398 151 385 c 2,81,-1
 151 353 l 2,82,83
 151 339 151 339 145 331 c 128,-1,84
 139 323 139 323 130 319 c 1,85,86
 139 311 139 311 145 300 c 128,-1,87
 151 289 151 289 151 273 c 2,88,-1
 151 234 l 2,89,90
 151 208 151 208 135.5 193.5 c 128,-1,91
 120 179 120 179 100 179 c 2,92,-1
 57 179 l 2,93,94
 41 179 41 179 29.5 168 c 128,-1,95
 18 157 18 157 18 139 c 2,96,-1
 18 55 l 2,97,98
 18 37 18 37 29.5 26 c 128,-1,99
 41 15 41 15 57 15 c 2,100,-1
 87 15 l 2,101,102
 107 15 107 15 117 26.5 c 128,-1,103
 127 38 127 38 127 55 c 2,104,-1
 127 71 l 1,105,-1
 140 71 l 1,106,-1
 140 55 l 2,107,108
 140 38 140 38 150 26.5 c 128,-1,109
 160 15 160 15 180 15 c 2,110,-1
 213 15 l 2,111,112
 229 15 229 15 240.5 26 c 128,-1,113
 252 37 252 37 252 55 c 2,114,-1
 252 96 l 1,115,-1
 266 96 l 1,116,-1
 266 55 l 2,117,118
 266 29 266 29 249.5 14.5 c 128,-1,119
 233 0 233 0 215 0 c 2,12,-1
EndSplineSet
EndChar

StartChar: uni0C15
Encoding: 3093 3093 128
Width: 303
GlyphClass: 2
Flags: W
LayerCount: 2
Back
Fore
SplineSet
192 439 m 2,0,1
 178 439 178 439 166 431 c 128,-1,2
 154 423 154 423 154 404 c 2,3,-1
 154 317 l 1,4,-1
 189 317 l 2,5,6
 207 317 207 317 223 303 c 128,-1,7
 239 289 239 289 239 265 c 2,8,-1
 239 238 l 1,9,-1
 225 238 l 1,10,-1
 225 266 l 2,11,12
 225 286 225 286 212.5 294.5 c 128,-1,13
 200 303 200 303 186 303 c 2,14,-1
 58 303 l 2,15,16
 18 303 18 303 18 266 c 2,17,-1
 18 207 l 2,18,19
 18 169 18 169 58 169 c 2,20,-1
 189 169 l 2,21,22
 207 169 207 169 223 155.5 c 128,-1,23
 239 142 239 142 239 116 c 2,24,-1
 239 53 l 2,25,26
 239 29 239 29 223 14.5 c 128,-1,27
 207 0 207 0 189 0 c 2,28,-1
 55 0 l 2,29,30
 35 0 35 0 19.5 14.5 c 128,-1,31
 4 29 4 29 4 53 c 2,32,-1
 4 78 l 1,33,-1
 18 78 l 1,34,-1
 18 53 l 2,35,36
 18 15 18 15 58 15 c 2,37,-1
 186 15 l 2,38,39
 201 15 201 15 213 24.5 c 128,-1,40
 225 34 225 34 225 53 c 2,41,-1
 225 116 l 2,42,43
 225 133 225 133 214 144.5 c 128,-1,44
 203 156 203 156 186 156 c 2,45,-1
 55 156 l 2,46,47
 35 156 35 156 19.5 168 c 128,-1,48
 4 180 4 180 4 203 c 2,49,-1
 4 265 l 2,50,51
 4 269 4 269 5.5 276.5 c 128,-1,52
 7 284 7 284 10 291 c 128,-1,53
 13 298 13 298 18 303.5 c 128,-1,54
 23 309 23 309 31 310 c 1,55,56
 17 318 17 318 10.5 331.5 c 128,-1,57
 4 345 4 345 4 359 c 2,58,-1
 4 374 l 1,59,-1
 19 374 l 1,60,-1
 19 363 l 2,61,62
 19 317 19 317 61 317 c 2,63,-1
 139 317 l 1,64,-1
 139 410 l 2,65,66
 139 428 139 428 153.5 440 c 128,-1,67
 168 452 168 452 183 452 c 2,68,-1
 241 452 l 1,69,-1
 241 439 l 1,70,-1
 192 439 l 2,0,1
EndSplineSet
Substitution2: "Single Substitution lookup 21 subtable" uni0C15_uni0C4D.abvs
EndChar

StartChar: uni0C16
Encoding: 3094 3094 129
Width: 364
GlyphClass: 2
Flags: W
LayerCount: 2
Back
Fore
SplineSet
245 328 m 1,0,1
 263 328 263 328 279 313 c 128,-1,2
 295 298 295 298 295 274 c 2,3,-1
 294 52 l 2,4,5
 294 29 294 29 278 14.5 c 128,-1,6
 262 0 262 0 244 0 c 2,7,-1
 181 0 l 2,8,9
 173 0 173 0 160 5 c 128,-1,10
 147 10 147 10 143 23 c 1,11,12
 138 11 138 11 123 5.5 c 128,-1,13
 108 0 108 0 98 0 c 2,14,-1
 53 0 l 2,15,16
 33 0 33 0 18 14 c 128,-1,17
 3 28 3 28 3 52 c 2,18,-1
 3 145 l 2,19,20
 3 169 3 169 18.5 183.5 c 128,-1,21
 34 198 34 198 53 198 c 2,22,-1
 98 198 l 2,23,24
 102 198 102 198 115.5 195 c 128,-1,25
 129 192 129 192 134 183 c 1,26,-1
 135 275 l 2,27,28
 136 295 136 295 123.5 304 c 128,-1,29
 111 313 111 313 97 313 c 2,30,-1
 56 313 l 2,31,32
 38 313 38 313 28 308 c 128,-1,33
 18 303 18 303 18 285 c 2,34,-1
 18 267 l 1,35,-1
 4 267 l 1,36,-1
 4 284 l 2,37,38
 4 308 4 308 19.5 318 c 128,-1,39
 35 328 35 328 54 328 c 2,40,-1
 99 328 l 2,41,42
 117 328 117 328 133.5 313 c 128,-1,43
 150 298 150 298 150 274 c 2,44,-1
 149 52 l 2,45,46
 149 33 149 33 160.5 23.5 c 128,-1,47
 172 14 172 14 187 14 c 2,48,-1
 242 14 l 2,49,50
 257 14 257 14 268 24 c 128,-1,51
 279 34 279 34 279 52 c 2,52,-1
 280 275 l 2,53,54
 280 292 280 292 271 302 c 128,-1,55
 262 312 262 312 245 313 c 1,56,-1
 245 328 l 1,0,1
135 -80 m 1,57,-1
 135 -27 l 2,58,59
 137 -25 137 -25 138.5 -24.5 c 128,-1,60
 140 -24 140 -24 142 -22 c 2,61,-1
 148 -27 l 1,62,-1
 148 -80 l 1,63,-1
 135 -80 l 1,57,-1
134 146 m 2,64,65
 134 166 134 166 122 174.5 c 128,-1,66
 110 183 110 183 96 183 c 2,67,-1
 56 183 l 2,68,69
 38 183 38 183 27.5 173 c 128,-1,70
 17 163 17 163 17 146 c 2,71,-1
 17 52 l 2,72,73
 17 33 17 33 29 23.5 c 128,-1,74
 41 14 41 14 56 14 c 2,75,-1
 96 14 l 2,76,77
 111 14 111 14 122.5 23.5 c 128,-1,78
 134 33 134 33 134 52 c 2,79,-1
 134 146 l 2,64,65
EndSplineSet
Substitution2: "Single Substitution lookup 21 subtable" uni0C16_uni0C4D.abvs
EndChar

StartChar: uni0C17
Encoding: 3095 3095 130
Width: 306
GlyphClass: 2
Flags: W
LayerCount: 2
Back
Fore
SplineSet
212 439 m 2,0,1
 198 439 198 439 186.5 431 c 128,-1,2
 175 423 175 423 175 404 c 2,3,-1
 173 318 l 1,4,-1
 194 318 l 2,5,6
 217 318 217 318 230.5 303.5 c 128,-1,7
 244 289 244 289 244 265 c 2,8,-1
 244 0 l 1,9,-1
 231 0 l 1,10,-1
 231 266 l 2,11,12
 231 282 231 282 223 292 c 128,-1,13
 215 302 215 302 199 302 c 2,14,-1
 57 302 l 2,15,16
 39 302 39 302 28 293 c 128,-1,17
 17 284 17 284 17 266 c 2,18,-1
 17 0 l 1,19,-1
 4 0 l 1,20,-1
 4 265 l 2,21,22
 4 272 4 272 6 280.5 c 128,-1,23
 8 289 8 289 13.5 296.5 c 128,-1,24
 19 304 19 304 28.5 309.5 c 128,-1,25
 38 315 38 315 53 316 c 1,26,27
 40 324 40 324 32.5 340.5 c 128,-1,28
 25 357 25 357 25 370 c 2,29,-1
 25 374 l 1,30,-1
 40 374 l 1,31,-1
 40 370 l 2,32,33
 41 349 41 349 52.5 333.5 c 128,-1,34
 64 318 64 318 90 318 c 2,35,-1
 159 318 l 1,36,-1
 160 410 l 2,37,38
 160 428 160 428 174 440 c 128,-1,39
 188 452 188 452 203 452 c 2,40,-1
 250 452 l 1,41,-1
 250 439 l 1,42,-1
 212 439 l 2,0,1
EndSplineSet
Substitution2: "Single Substitution lookup 21 subtable" uni0C17_uni0C4D.abvs
EndChar

StartChar: uni0C18
Encoding: 3096 3096 131
Width: 499
GlyphClass: 2
Flags: W
LayerCount: 2
Back
Fore
SplineSet
162 440 m 2,0,1
 146 440 146 440 138.5 429 c 128,-1,2
 131 418 131 418 131 404 c 2,3,-1
 131 351 l 2,4,5
 131 327 131 327 119.5 315.5 c 128,-1,6
 108 304 108 304 90 304 c 2,7,-1
 5 304 l 1,8,-1
 5 316 l 1,9,-1
 82 316 l 2,10,11
 99 316 99 316 108 325.5 c 128,-1,12
 117 335 117 335 117 351 c 2,13,-1
 117 402 l 2,14,15
 117 428 117 428 129.5 440 c 128,-1,16
 142 452 142 452 159 452 c 2,17,-1
 228 452 l 1,18,-1
 228 440 l 1,19,-1
 162 440 l 2,0,1
388 319 m 1,20,21
 407 319 407 319 421 305.5 c 128,-1,22
 435 292 435 292 435 267 c 2,23,-1
 435 52 l 2,24,25
 435 28 435 28 420.5 14 c 128,-1,26
 406 0 406 0 387 0 c 2,27,-1
 334 0 l 2,28,29
 327 0 327 0 311.5 5.5 c 128,-1,30
 296 11 296 11 288 27 c 1,31,32
 281 10 281 10 266 5 c 128,-1,33
 251 0 251 0 243 0 c 2,34,-1
 189 0 l 2,35,36
 183 0 183 0 169.5 4 c 128,-1,37
 156 8 156 8 147 25 c 1,38,39
 143 9 143 9 129 4.5 c 128,-1,40
 115 0 115 0 109 0 c 2,41,-1
 52 0 l 2,42,43
 34 0 34 0 19 14.5 c 128,-1,44
 4 29 4 29 4 52 c 2,45,-1
 4 163 l 2,46,47
 4 186 4 186 18.5 199.5 c 128,-1,48
 33 213 33 213 53 213 c 2,49,-1
 105 213 l 2,50,51
 124 213 124 213 138.5 199.5 c 128,-1,52
 153 186 153 186 153 163 c 2,53,-1
 153 52 l 2,54,55
 153 34 153 34 163.5 23.5 c 128,-1,56
 174 13 174 13 192 13 c 2,57,-1
 242 13 l 2,58,59
 256 13 256 13 266.5 23.5 c 128,-1,60
 277 34 277 34 277 52 c 2,61,-1
 277 268 l 2,62,63
 277 303 277 303 244 306 c 1,64,-1
 244 319 l 1,65,66
 261 319 261 319 276 305.5 c 128,-1,67
 291 292 291 292 291 267 c 2,68,-1
 291 70 l 2,69,70
 291 49 291 49 301.5 31 c 128,-1,71
 312 13 312 13 337 13 c 2,72,-1
 386 13 l 2,73,74
 403 13 403 13 412.5 24 c 128,-1,75
 422 35 422 35 422 52 c 2,76,-1
 422 268 l 2,77,78
 422 303 422 303 388 306 c 1,79,-1
 388 319 l 1,20,21
148 -20 m 1,80,-1
 148 -53 l 1,81,-1
 140 -53 l 1,82,-1
 140 -21 l 2,83,84
 141 -21 141 -21 145 -19 c 2,85,-1
 148 -20 l 1,80,-1
141 162 m 2,86,87
 141 199 141 199 103 199 c 2,88,-1
 55 199 l 2,89,90
 18 199 18 199 18 162 c 2,91,-1
 18 52 l 2,92,93
 18 34 18 34 29.5 23.5 c 128,-1,94
 41 13 41 13 55 13 c 2,95,-1
 103 13 l 2,96,97
 121 13 121 13 130.5 23.5 c 128,-1,98
 140 34 140 34 140 52 c 2,99,-1
 141 162 l 2,86,87
EndSplineSet
Substitution2: "Single Substitution lookup 21 subtable" uni0C18_uni0C4D.abvs
EndChar

StartChar: uni0C19
Encoding: 3097 3097 132
Width: 348
GlyphClass: 2
Flags: W
LayerCount: 2
Back
Fore
SplineSet
150 244 m 1,0,-1
 150 218 l 2,1,2
 150 202 150 202 137.5 190 c 128,-1,3
 125 178 125 178 108 178 c 2,4,-1
 52 178 l 2,5,6
 35 178 35 178 26.5 167 c 128,-1,7
 18 156 18 156 18 140 c 2,8,-1
 18 51 l 2,9,10
 18 35 18 35 27 25 c 128,-1,11
 36 15 36 15 52 15 c 2,12,-1
 98 15 l 2,13,14
 115 15 115 15 125 25.5 c 128,-1,15
 135 36 135 36 135 50 c 2,16,-1
 135 71 l 1,17,-1
 149 71 l 1,18,-1
 149 50 l 2,19,20
 149 33 149 33 158.5 24 c 128,-1,21
 168 15 168 15 185 15 c 2,22,-1
 234 15 l 2,23,24
 251 15 251 15 259.5 25 c 128,-1,25
 268 35 268 35 268 51 c 2,26,-1
 268 105 l 1,27,-1
 282 105 l 1,28,-1
 282 46 l 2,29,30
 282 25 282 25 269 12.5 c 128,-1,31
 256 0 256 0 240 0 c 2,32,-1
 185 0 l 2,33,34
 184 0 184 0 178.5 0.5 c 128,-1,35
 173 1 173 1 166 3.5 c 128,-1,36
 159 6 159 6 152.5 11 c 128,-1,37
 146 16 146 16 142 24 c 1,38,39
 134 9 134 9 122 4.5 c 128,-1,40
 110 0 110 0 97 0 c 2,41,-1
 47 0 l 2,42,43
 30 0 30 0 17 12.5 c 128,-1,44
 4 25 4 25 4 46 c 2,45,-1
 4 145 l 2,46,47
 4 167 4 167 17 179.5 c 128,-1,48
 30 192 30 192 47 192 c 2,49,-1
 101 192 l 2,50,51
 118 192 118 192 127.5 201 c 128,-1,52
 137 210 137 210 137 227 c 2,53,-1
 137 277 l 2,54,55
 137 297 137 297 126 305 c 128,-1,56
 115 313 115 313 101 313 c 2,57,-1
 52 313 l 2,58,59
 36 313 36 313 27 303 c 128,-1,60
 18 293 18 293 18 277 c 2,61,-1
 18 267 l 1,62,-1
 4 267 l 1,63,-1
 4 282 l 2,64,65
 4 303 4 303 17 315.5 c 128,-1,66
 30 328 30 328 47 328 c 2,67,-1
 108 328 l 2,68,69
 122 328 122 328 136 315.5 c 128,-1,70
 150 303 150 303 150 282 c 2,71,-1
 150 259 l 1,72,-1
 230 259 l 1,73,-1
 230 317 l 1,74,-1
 246 317 l 1,75,-1
 246 259 l 1,76,-1
 290 259 l 1,77,-1
 290 244 l 1,78,-1
 150 244 l 1,0,-1
EndSplineSet
Substitution2: "Single Substitution lookup 21 subtable" uni0C19_uni0C4D.abvs
EndChar

StartChar: uni0C1A
Encoding: 3098 3098 133
Width: 388
GlyphClass: 2
Flags: W
LayerCount: 2
Back
Fore
SplineSet
96 194 m 1,0,1
 62 192 62 192 62 159 c 2,2,-1
 62 48 l 2,3,4
 62 32 62 32 71.5 23.5 c 128,-1,5
 81 15 81 15 97 15 c 2,6,-1
 143 15 l 2,7,8
 163 15 163 15 171 26 c 128,-1,9
 179 37 179 37 179 48 c 2,10,-1
 179 79 l 1,11,-1
 193 79 l 1,12,-1
 193 47 l 2,13,14
 193 32 193 32 202.5 23.5 c 128,-1,15
 212 15 212 15 228 15 c 2,16,-1
 275 15 l 2,17,18
 287 15 287 15 298.5 22 c 128,-1,19
 310 29 310 29 310 49 c 2,20,-1
 310 270 l 2,21,22
 310 285 310 285 301 294 c 128,-1,23
 292 303 292 303 275 303 c 2,24,-1
 121 303 l 2,25,26
 93 303 93 303 76 318 c 128,-1,27
 59 333 59 333 59 356 c 2,28,-1
 59 364 l 1,29,-1
 75 364 l 1,30,-1
 75 356 l 2,31,32
 75 339 75 339 89 328.5 c 128,-1,33
 103 318 103 318 120 318 c 2,34,-1
 167 318 l 1,35,-1
 168 410 l 2,36,37
 168 428 168 428 181.5 440 c 128,-1,38
 195 452 195 452 210 452 c 2,39,-1
 324 452 l 1,40,-1
 324 439 l 1,41,-1
 219 439 l 2,42,43
 205 439 205 439 193.5 431 c 128,-1,44
 182 423 182 423 182 404 c 2,45,-1
 182 318 l 1,46,-1
 283 318 l 2,47,48
 299 318 299 318 311.5 306 c 128,-1,49
 324 294 324 294 324 274 c 2,50,-1
 324 44 l 2,51,52
 324 24 324 24 311.5 12 c 128,-1,53
 299 0 299 0 283 0 c 2,54,-1
 223 0 l 2,55,56
 217 0 217 0 203.5 4.5 c 128,-1,57
 190 9 190 9 185 22 c 1,58,59
 181 9 181 9 167 4.5 c 128,-1,60
 153 0 153 0 142 0 c 2,61,-1
 90 0 l 2,62,63
 74 0 74 0 61 12.5 c 128,-1,64
 48 25 48 25 48 44 c 2,65,-1
 48 165 l 2,66,67
 48 166 48 166 48 170 c 128,-1,68
 48 174 48 174 49.5 178.5 c 128,-1,69
 51 183 51 183 55 187.5 c 128,-1,70
 59 192 59 192 67 194 c 2,71,-1
 4 194 l 1,72,-1
 4 207 l 1,73,-1
 96 207 l 1,74,-1
 96 194 l 1,0,1
EndSplineSet
Substitution2: "Single Substitution lookup 21 subtable" uni0C1A_uni0C4D.abvs
EndChar

StartChar: uni0C1B
Encoding: 3099 3099 134
Width: 387
GlyphClass: 2
Flags: W
LayerCount: 2
Back
Fore
SplineSet
186 -20 m 1,0,-1
 186 -54 l 1,1,-1
 178 -54 l 1,2,-1
 178 -22 l 2,3,4
 179 -22 179 -22 183 -20 c 2,5,-1
 186 -20 l 1,0,-1
96 194 m 1,6,7
 62 192 62 192 62 159 c 2,8,-1
 62 48 l 2,9,10
 62 32 62 32 71.5 23.5 c 128,-1,11
 81 15 81 15 97 15 c 2,12,-1
 143 15 l 2,13,14
 163 15 163 15 171 26 c 128,-1,15
 179 37 179 37 179 48 c 2,16,-1
 179 79 l 1,17,-1
 193 79 l 1,18,-1
 193 47 l 2,19,20
 193 32 193 32 202.5 23.5 c 128,-1,21
 212 15 212 15 228 15 c 2,22,-1
 275 15 l 2,23,24
 287 15 287 15 298.5 22 c 128,-1,25
 310 29 310 29 310 49 c 2,26,-1
 310 270 l 2,27,28
 310 285 310 285 301 294 c 128,-1,29
 292 303 292 303 275 303 c 2,30,-1
 121 303 l 2,31,32
 93 303 93 303 76 318 c 128,-1,33
 59 333 59 333 59 356 c 2,34,-1
 59 364 l 1,35,-1
 75 364 l 1,36,-1
 75 356 l 2,37,38
 75 339 75 339 89 328.5 c 128,-1,39
 103 318 103 318 120 318 c 2,40,-1
 167 318 l 1,41,-1
 168 410 l 2,42,43
 168 428 168 428 181.5 440 c 128,-1,44
 195 452 195 452 210 452 c 2,45,-1
 324 452 l 1,46,-1
 324 439 l 1,47,-1
 219 439 l 2,48,49
 205 439 205 439 193.5 431 c 128,-1,50
 182 423 182 423 182 404 c 2,51,-1
 182 318 l 1,52,-1
 283 318 l 2,53,54
 299 318 299 318 311.5 306 c 128,-1,55
 324 294 324 294 324 274 c 2,56,-1
 324 44 l 2,57,58
 324 24 324 24 311.5 12 c 128,-1,59
 299 0 299 0 283 0 c 2,60,-1
 223 0 l 2,61,62
 217 0 217 0 203.5 4.5 c 128,-1,63
 190 9 190 9 185 22 c 1,64,65
 181 9 181 9 167 4.5 c 128,-1,66
 153 0 153 0 142 0 c 2,67,-1
 90 0 l 2,68,69
 74 0 74 0 61 12.5 c 128,-1,70
 48 25 48 25 48 44 c 2,71,-1
 48 165 l 2,72,73
 48 166 48 166 48 170 c 128,-1,74
 48 174 48 174 49.5 178.5 c 128,-1,75
 51 183 51 183 55 187.5 c 128,-1,76
 59 192 59 192 67 194 c 2,77,-1
 4 194 l 1,78,-1
 4 207 l 1,79,-1
 96 207 l 1,80,-1
 96 194 l 1,6,7
EndSplineSet
Substitution2: "Single Substitution lookup 21 subtable" uni0C1B_uni0C4D.abvs
EndChar

StartChar: uni0C1C
Encoding: 3100 3100 135
Width: 347
GlyphClass: 2
Flags: W
LayerCount: 2
Back
Fore
SplineSet
233 313 m 1,0,-1
 233 328 l 1,1,-1
 239 328 l 2,2,3
 256 328 256 328 269 315.5 c 128,-1,4
 282 303 282 303 282 282 c 2,5,-1
 282 226 l 2,6,7
 282 205 282 205 269 192.5 c 128,-1,8
 256 180 256 180 239 180 c 2,9,-1
 181 180 l 2,10,11
 174 180 174 180 162.5 185.5 c 128,-1,12
 151 191 151 191 146 205 c 1,13,14
 141 190 141 190 125 184 c 128,-1,15
 109 178 109 178 98 178 c 2,16,-1
 52 178 l 2,17,18
 35 178 35 178 26.5 167 c 128,-1,19
 18 156 18 156 18 140 c 2,20,-1
 18 51 l 2,21,22
 18 35 18 35 27 25 c 128,-1,23
 36 15 36 15 52 15 c 2,24,-1
 99 15 l 2,25,26
 116 15 116 15 126 25.5 c 128,-1,27
 136 36 136 36 136 50 c 2,28,-1
 136 60 l 1,29,-1
 149 60 l 1,30,-1
 149 50 l 2,31,32
 149 33 149 33 158.5 24 c 128,-1,33
 168 15 168 15 185 15 c 2,34,-1
 235 15 l 2,35,36
 251 15 251 15 260 25 c 128,-1,37
 269 35 269 35 269 51 c 2,38,-1
 269 105 l 1,39,-1
 283 105 l 1,40,-1
 283 46 l 2,41,42
 283 25 283 25 270 12.5 c 128,-1,43
 257 0 257 0 240 0 c 2,44,-1
 185 0 l 2,45,46
 184 0 184 0 178.5 0.5 c 128,-1,47
 173 1 173 1 166 3 c 128,-1,48
 159 5 159 5 152 10 c 128,-1,49
 145 15 145 15 142 24 c 1,50,51
 135 7 135 7 122.5 3.5 c 128,-1,52
 110 0 110 0 98 0 c 2,53,-1
 47 0 l 2,54,55
 30 0 30 0 17 12.5 c 128,-1,56
 4 25 4 25 4 46 c 2,57,-1
 4 145 l 2,58,59
 4 167 4 167 17 179.5 c 128,-1,60
 30 192 30 192 47 192 c 2,61,-1
 101 192 l 2,62,63
 137 192 137 192 137 227 c 2,64,-1
 137 277 l 2,65,66
 137 297 137 297 126 305 c 128,-1,67
 115 313 115 313 101 313 c 2,68,-1
 52 313 l 2,69,70
 36 313 36 313 27 303 c 128,-1,71
 18 293 18 293 18 277 c 2,72,-1
 18 267 l 1,73,-1
 4 267 l 1,74,-1
 4 282 l 2,75,76
 4 303 4 303 17 315.5 c 128,-1,77
 30 328 30 328 47 328 c 2,78,-1
 109 328 l 2,79,80
 123 328 123 328 136.5 315.5 c 128,-1,81
 150 303 150 303 150 282 c 2,82,-1
 150 229 l 2,83,84
 150 212 150 212 161 203 c 128,-1,85
 172 194 172 194 185 194 c 2,86,-1
 233 194 l 2,87,88
 250 194 250 194 259 203.5 c 128,-1,89
 268 213 268 213 268 229 c 2,90,-1
 268 277 l 2,91,92
 268 291 268 291 258.5 302 c 128,-1,93
 249 313 249 313 238 313 c 2,94,-1
 233 313 l 1,0,-1
EndSplineSet
Substitution2: "Single Substitution lookup 21 subtable" uni0C1C_uni0C4D.abvs
EndChar

StartChar: uni0C1D
Encoding: 3101 3101 136
Width: 571
GlyphClass: 2
Flags: W
LayerCount: 2
Back
Fore
SplineSet
468 319 m 1,0,1
 485 319 485 319 499.5 305.5 c 128,-1,2
 514 292 514 292 514 267 c 2,3,-1
 514 52 l 2,4,5
 514 29 514 29 499 14.5 c 128,-1,6
 484 0 484 0 467 0 c 2,7,-1
 414 0 l 2,8,9
 411 0 411 0 404 1.5 c 128,-1,10
 397 3 397 3 389.5 6 c 128,-1,11
 382 9 382 9 376 15 c 128,-1,12
 370 21 370 21 369 30 c 1,13,14
 367 21 367 21 361.5 15 c 128,-1,15
 356 9 356 9 349 6 c 128,-1,16
 342 3 342 3 335.5 1.5 c 128,-1,17
 329 0 329 0 325 0 c 2,18,-1
 273 0 l 2,19,20
 269 0 269 0 262.5 1.5 c 128,-1,21
 256 3 256 3 248.5 6.5 c 128,-1,22
 241 10 241 10 235 15.5 c 128,-1,23
 229 21 229 21 226 29 c 1,24,25
 222 12 222 12 207.5 6 c 128,-1,26
 193 0 193 0 185 0 c 2,27,-1
 51 0 l 2,28,29
 34 0 34 0 19 11.5 c 128,-1,30
 4 23 4 23 4 52 c 2,31,-1
 4 268 l 2,32,33
 4 284 4 284 13.5 299 c 128,-1,34
 23 314 23 314 43 317 c 1,35,36
 35 322 35 322 29 332 c 128,-1,37
 23 342 23 342 23 353 c 2,38,-1
 23 375 l 1,39,-1
 36 375 l 1,40,-1
 36 357 l 2,41,42
 36 342 36 342 44 331 c 128,-1,43
 52 320 52 320 66 319 c 2,44,-1
 136 319 l 1,45,-1
 136 408 l 2,46,47
 136 428 136 428 148.5 440 c 128,-1,48
 161 452 161 452 177 452 c 2,49,-1
 230 452 l 1,50,-1
 230 437 l 1,51,-1
 183 437 l 2,52,53
 170 437 170 437 159.5 430 c 128,-1,54
 149 423 149 423 149 403 c 2,55,-1
 149 319 l 1,56,-1
 183 319 l 2,57,58
 200 319 200 319 215 305 c 128,-1,59
 230 291 230 291 230 268 c 2,60,-1
 230 68 l 2,61,62
 230 42 230 42 243.5 27.5 c 128,-1,63
 257 13 257 13 275 13 c 2,64,-1
 324 13 l 2,65,66
 341 13 341 13 350.5 24 c 128,-1,67
 360 35 360 35 360 52 c 2,68,-1
 360 268 l 2,69,70
 360 304 360 304 326 306 c 1,71,-1
 326 319 l 1,72,73
 344 319 344 319 358.5 306 c 128,-1,74
 373 293 373 293 373 267 c 2,75,-1
 372 60 l 2,76,77
 373 37 373 37 386.5 25 c 128,-1,78
 400 13 400 13 416 13 c 2,79,-1
 465 13 l 2,80,81
 479 13 479 13 490 23.5 c 128,-1,82
 501 34 501 34 501 52 c 2,83,-1
 501 268 l 2,84,85
 501 304 501 304 468 306 c 1,86,-1
 468 319 l 1,0,1
371 -18 m 1,87,-1
 371 -62 l 1,88,-1
 362 -62 l 1,89,-1
 362 -20 l 2,90,91
 364 -19 364 -19 364.5 -18.5 c 128,-1,92
 365 -18 365 -18 367 -17 c 2,93,-1
 371 -18 l 1,87,-1
216 268 m 2,94,95
 216 286 216 286 205.5 296 c 128,-1,96
 195 306 195 306 181 306 c 2,97,-1
 54 306 l 2,98,99
 18 306 18 306 18 268 c 2,100,-1
 18 52 l 2,101,102
 17 32 17 32 27 22.5 c 128,-1,103
 37 13 37 13 54 13 c 2,104,-1
 181 13 l 2,105,106
 195 13 195 13 205.5 23.5 c 128,-1,107
 216 34 216 34 216 52 c 2,108,-1
 216 268 l 2,94,95
EndSplineSet
Substitution2: "Single Substitution lookup 21 subtable" uni0C1D_uni0C4D.abvs
EndChar

StartChar: uni0C1E
Encoding: 3102 3102 137
Width: 445
GlyphClass: 2
Flags: W
LayerCount: 2
Back
Fore
SplineSet
273 245 m 1,0,-1
 273 173 l 1,1,-1
 312 173 l 2,2,3
 329 173 329 173 342 160.5 c 128,-1,4
 355 148 355 148 355 122 c 2,5,-1
 355 -1 l 1,6,-1
 342 -1 l 1,7,-1
 342 117 l 2,8,9
 342 136 342 136 334.5 148 c 128,-1,10
 327 160 327 160 306 160 c 2,11,-1
 273 160 l 1,12,-1
 273 54 l 2,13,14
 273 28 273 28 257.5 14 c 128,-1,15
 242 0 242 0 225 0 c 2,16,-1
 52 0 l 2,17,18
 35 0 35 0 19.5 14 c 128,-1,19
 4 28 4 28 4 54 c 2,20,-1
 4 117 l 2,21,22
 4 143 4 143 19.5 158 c 128,-1,23
 35 173 35 173 52 173 c 2,24,-1
 259 173 l 1,25,-1
 259 273 l 2,26,27
 259 292 259 292 250 303 c 128,-1,28
 241 314 241 314 223 314 c 2,29,-1
 181 314 l 2,30,31
 163 314 163 314 153.5 302 c 128,-1,32
 144 290 144 290 144 273 c 2,33,-1
 144 268 l 1,34,-1
 131 268 l 1,35,-1
 131 273 l 2,36,37
 131 292 131 292 119 303 c 128,-1,38
 107 314 107 314 93 314 c 2,39,-1
 55 314 l 2,40,41
 37 314 37 314 27.5 302 c 128,-1,42
 18 290 18 290 18 273 c 2,43,-1
 18 246 l 1,44,-1
 4 246 l 1,45,-1
 4 273 l 2,46,47
 4 299 4 299 19.5 313.5 c 128,-1,48
 35 328 35 328 52 328 c 2,49,-1
 96 328 l 2,50,51
 100 328 100 328 106 327 c 128,-1,52
 112 326 112 326 118 322.5 c 128,-1,53
 124 319 124 319 129.5 312 c 128,-1,54
 135 305 135 305 138 294 c 1,55,56
 142 317 142 317 155.5 322.5 c 128,-1,57
 169 328 169 328 175 328 c 2,58,-1
 225 328 l 2,59,60
 232 328 232 328 240.5 325.5 c 128,-1,61
 249 323 249 323 256.5 317 c 128,-1,62
 264 311 264 311 268.5 300.5 c 128,-1,63
 273 290 273 290 273 273 c 2,64,-1
 273 258 l 1,65,-1
 327 258 l 1,66,-1
 327 317 l 1,67,-1
 342 317 l 1,68,-1
 342 258 l 1,69,-1
 384 258 l 1,70,-1
 384 245 l 1,71,-1
 273 245 l 1,0,-1
259 160 m 1,72,-1
 55 160 l 2,73,74
 40 160 40 160 29 148 c 128,-1,75
 18 136 18 136 18 117 c 2,76,-1
 18 54 l 2,77,78
 18 36 18 36 29 25 c 128,-1,79
 40 14 40 14 55 14 c 2,80,-1
 224 14 l 2,81,82
 243 14 243 14 251 26 c 128,-1,83
 259 38 259 38 259 54 c 2,84,-1
 259 160 l 1,72,-1
EndSplineSet
Substitution2: "Single Substitution lookup 21 subtable" uni0C1E_uni0C4D.abvs
EndChar

StartChar: uni0C1F
Encoding: 3103 3103 138
Width: 364
GlyphClass: 2
Flags: W
LayerCount: 2
Back
Fore
SplineSet
258 323 m 1,0,1
 275 322 275 322 290.5 308 c 128,-1,2
 306 294 306 294 306 269 c 2,3,-1
 306 54 l 2,4,5
 306 30 306 30 289.5 15 c 128,-1,6
 273 0 273 0 256 0 c 2,7,-1
 190 0 l 2,8,9
 182 0 182 0 170 5.5 c 128,-1,10
 158 11 158 11 154 25 c 1,11,12
 149 11 149 11 138 5.5 c 128,-1,13
 127 0 127 0 114 0 c 2,14,-1
 54 0 l 2,15,16
 35 0 35 0 19.5 15 c 128,-1,17
 4 30 4 30 4 54 c 2,18,-1
 4 269 l 2,19,20
 4 289 4 289 16.5 306.5 c 128,-1,21
 29 324 29 324 53 324 c 2,22,-1
 70 324 l 1,23,-1
 70 391 l 1,24,-1
 84 391 l 1,25,-1
 84 324 l 1,26,-1
 103 324 l 2,27,28
 126 324 126 324 137.5 306.5 c 128,-1,29
 149 289 149 289 149 269 c 2,30,-1
 149 207 l 2,31,32
 149 182 149 182 133.5 167.5 c 128,-1,33
 118 153 118 153 99 153 c 2,34,-1
 18 153 l 1,35,-1
 18 54 l 2,36,37
 18 36 18 36 29.5 25 c 128,-1,38
 41 14 41 14 56 14 c 2,39,-1
 108 14 l 2,40,41
 128 14 128 14 137.5 25.5 c 128,-1,42
 147 37 147 37 147 54 c 2,43,-1
 147 79 l 1,44,-1
 160 79 l 1,45,-1
 160 54 l 2,46,47
 160 37 160 37 170 25.5 c 128,-1,48
 180 14 180 14 199 14 c 2,49,-1
 254 14 l 2,50,51
 269 14 269 14 280.5 25 c 128,-1,52
 292 36 292 36 292 54 c 2,53,-1
 292 270 l 2,54,55
 292 306 292 306 258 308 c 1,56,-1
 258 323 l 1,0,1
136 270 m 2,57,58
 136 288 136 288 126 299.5 c 128,-1,59
 116 311 116 311 97 311 c 2,60,-1
 56 311 l 2,61,62
 38 311 38 311 28 299.5 c 128,-1,63
 18 288 18 288 18 270 c 2,64,-1
 18 166 l 1,65,-1
 97 166 l 2,66,67
 116 166 116 166 126 177.5 c 128,-1,68
 136 189 136 189 136 206 c 2,69,-1
 136 270 l 2,57,58
EndSplineSet
Substitution2: "Single Substitution lookup 21 subtable" uni0C1F_uni0C4D.abvs
EndChar

StartChar: uni0C20
Encoding: 3104 3104 139
Width: 312
GlyphClass: 2
Flags: W
LayerCount: 2
Back
Fore
SplineSet
197 0 m 2,0,-1
 54 0 l 2,1,2
 36 0 36 0 20 14.5 c 128,-1,3
 4 29 4 29 4 53 c 2,4,-1
 4 266 l 2,5,6
 4 273 4 273 6.5 281 c 128,-1,7
 9 289 9 289 14.5 296.5 c 128,-1,8
 20 304 20 304 27.5 309 c 128,-1,9
 35 314 35 314 46 314 c 1,10,11
 39 317 39 317 35 322 c 128,-1,12
 31 327 31 327 28.5 333 c 128,-1,13
 26 339 26 339 25 344 c 128,-1,14
 24 349 24 349 24 351 c 2,15,-1
 24 374 l 1,16,-1
 38 374 l 1,17,-1
 38 356 l 2,18,19
 38 341 38 341 46 329.5 c 128,-1,20
 54 318 54 318 69 318 c 2,21,-1
 84 318 l 1,22,-1
 145 318 l 1,23,-1
 145 408 l 2,24,25
 145 428 145 428 158 440 c 128,-1,26
 171 452 171 452 188 452 c 2,27,-1
 245 452 l 1,28,-1
 245 437 l 1,29,-1
 195 437 l 2,30,31
 181 437 181 437 169.5 429.5 c 128,-1,32
 158 422 158 422 158 403 c 2,33,-1
 158 318 l 1,34,-1
 195 318 l 2,35,36
 213 318 213 318 229 303.5 c 128,-1,37
 245 289 245 289 245 266 c 2,38,-1
 245 53 l 2,39,40
 245 37 245 37 239 27 c 128,-1,41
 233 17 233 17 225 11 c 128,-1,42
 217 5 217 5 209 2.5 c 128,-1,43
 201 0 201 0 197 0 c 2,0,-1
230 266 m 2,44,45
 230 285 230 285 219.5 294.5 c 128,-1,46
 209 304 209 304 194 304 c 2,47,-1
 59 304 l 2,48,49
 41 304 41 304 30 293.5 c 128,-1,50
 19 283 19 283 19 266 c 2,51,-1
 19 53 l 2,52,53
 19 35 19 35 29 24 c 128,-1,54
 39 13 39 13 58 13 c 2,55,-1
 193 13 l 2,56,57
 209 13 209 13 219.5 24 c 128,-1,58
 230 35 230 35 230 53 c 2,59,-1
 230 266 l 2,44,45
120 147 m 1,60,-1
 120 162 l 1,61,-1
 131 162 l 1,62,-1
 131 147 l 1,63,-1
 120 147 l 1,60,-1
EndSplineSet
Substitution2: "Single Substitution lookup 21 subtable" uni0C20_uni0C4D.abvs
EndChar

StartChar: uni0C21
Encoding: 3105 3105 140
Width: 353
GlyphClass: 2
Flags: W
LayerCount: 2
Back
Fore
SplineSet
260 0 m 2,0,-1
 191 0 l 2,1,2
 181 0 181 0 171 3.5 c 128,-1,3
 161 7 161 7 153 23 c 1,4,5
 145 7 145 7 132.5 3.5 c 128,-1,6
 120 0 120 0 109 0 c 2,7,-1
 45 0 l 2,8,9
 31 0 31 0 17.5 12.5 c 128,-1,10
 4 25 4 25 4 44 c 2,11,-1
 4 274 l 2,12,13
 4 282 4 282 9.5 294 c 128,-1,14
 15 306 15 306 30 311 c 1,15,16
 14 318 14 318 9 331 c 128,-1,17
 4 344 4 344 4 352 c 2,18,-1
 4 396 l 1,19,-1
 17 396 l 1,20,-1
 17 356 l 2,21,22
 17 341 17 341 27 329.5 c 128,-1,23
 37 318 37 318 52 318 c 1,24,25
 52 317 52 317 66.5 317.5 c 128,-1,26
 81 318 81 318 98 318 c 2,27,-1
 144 318 l 1,28,-1
 144 403 l 2,29,30
 144 423 144 423 156.5 435 c 128,-1,31
 169 447 169 447 186 447 c 2,32,-1
 297 447 l 1,33,-1
 297 434 l 1,34,-1
 193 434 l 2,35,36
 179 434 179 434 168 427 c 128,-1,37
 157 420 157 420 157 400 c 2,38,-1
 157 318 l 1,39,-1
 249 318 l 2,40,41
 265 318 265 318 278 306 c 128,-1,42
 291 294 291 294 291 274 c 2,43,-1
 291 261 l 1,44,-1
 277 261 l 1,45,-1
 277 270 l 2,46,47
 277 284 277 284 269 293.5 c 128,-1,48
 261 303 261 303 244 303 c 2,49,-1
 52 303 l 2,50,51
 36 303 36 303 27 294 c 128,-1,52
 18 285 18 285 18 270 c 2,53,-1
 18 49 l 2,54,55
 18 34 18 34 26.5 24.5 c 128,-1,56
 35 15 35 15 52 15 c 2,57,-1
 110 15 l 2,58,59
 127 15 127 15 137 25 c 128,-1,60
 147 35 147 35 147 48 c 2,61,-1
 147 79 l 1,62,-1
 160 79 l 1,63,-1
 160 49 l 2,64,65
 160 15 160 15 195 15 c 2,66,-1
 255 15 l 2,67,68
 273 15 273 15 280.5 26 c 128,-1,69
 288 37 288 37 288 51 c 2,70,-1
 288 137 l 2,71,72
 288 151 288 151 280.5 161.5 c 128,-1,73
 273 172 273 172 255 172 c 2,74,-1
 235 172 l 1,75,-1
 235 187 l 1,76,-1
 260 187 l 2,77,78
 276 187 276 187 289 175 c 128,-1,79
 302 163 302 163 302 143 c 2,80,-1
 302 46 l 2,81,82
 302 25 302 25 288.5 12.5 c 128,-1,83
 275 0 275 0 260 0 c 2,0,-1
EndSplineSet
Substitution2: "Single Substitution lookup 21 subtable" uni0C21_uni0C4D.abvs
EndChar

StartChar: uni0C22
Encoding: 3106 3106 141
Width: 353
GlyphClass: 2
Flags: W
LayerCount: 2
Back
Fore
SplineSet
155 -28 m 1,0,-1
 155 -71 l 1,1,-1
 145 -71 l 1,2,-1
 145 -29 l 2,3,4
 147 -28 147 -28 148.5 -27.5 c 128,-1,5
 150 -27 150 -27 152 -26 c 2,6,-1
 155 -28 l 1,0,-1
260 0 m 2,7,-1
 191 0 l 2,8,9
 181 0 181 0 171 3.5 c 128,-1,10
 161 7 161 7 153 23 c 1,11,12
 145 7 145 7 132.5 3.5 c 128,-1,13
 120 0 120 0 109 0 c 2,14,-1
 45 0 l 2,15,16
 31 0 31 0 17.5 12.5 c 128,-1,17
 4 25 4 25 4 44 c 2,18,-1
 4 274 l 2,19,20
 4 282 4 282 9.5 294 c 128,-1,21
 15 306 15 306 30 311 c 1,22,23
 14 318 14 318 9 331 c 128,-1,24
 4 344 4 344 4 352 c 2,25,-1
 4 396 l 1,26,-1
 17 396 l 1,27,-1
 17 356 l 2,28,29
 17 341 17 341 27 329.5 c 128,-1,30
 37 318 37 318 52 318 c 1,31,32
 52 317 52 317 66.5 317.5 c 128,-1,33
 81 318 81 318 98 318 c 2,34,-1
 144 318 l 1,35,-1
 144 403 l 2,36,37
 144 423 144 423 156.5 435 c 128,-1,38
 169 447 169 447 186 447 c 2,39,-1
 297 447 l 1,40,-1
 297 434 l 1,41,-1
 193 434 l 2,42,43
 179 434 179 434 168 427 c 128,-1,44
 157 420 157 420 157 400 c 2,45,-1
 157 318 l 1,46,-1
 249 318 l 2,47,48
 265 318 265 318 278 306 c 128,-1,49
 291 294 291 294 291 274 c 2,50,-1
 291 261 l 1,51,-1
 277 261 l 1,52,-1
 277 270 l 2,53,54
 277 284 277 284 269 293.5 c 128,-1,55
 261 303 261 303 244 303 c 2,56,-1
 52 303 l 2,57,58
 36 303 36 303 27 294 c 128,-1,59
 18 285 18 285 18 270 c 2,60,-1
 18 49 l 2,61,62
 18 34 18 34 26.5 24.5 c 128,-1,63
 35 15 35 15 52 15 c 2,64,-1
 110 15 l 2,65,66
 127 15 127 15 137 25 c 128,-1,67
 147 35 147 35 147 48 c 2,68,-1
 147 79 l 1,69,-1
 160 79 l 1,70,-1
 160 49 l 2,71,72
 160 15 160 15 195 15 c 2,73,-1
 255 15 l 2,74,75
 273 15 273 15 280.5 26 c 128,-1,76
 288 37 288 37 288 51 c 2,77,-1
 288 137 l 2,78,79
 288 151 288 151 280.5 161.5 c 128,-1,80
 273 172 273 172 255 172 c 2,81,-1
 235 172 l 1,82,-1
 235 187 l 1,83,-1
 260 187 l 2,84,85
 276 187 276 187 289 175 c 128,-1,86
 302 163 302 163 302 143 c 2,87,-1
 302 46 l 2,88,89
 302 25 302 25 288.5 12.5 c 128,-1,90
 275 0 275 0 260 0 c 2,7,-1
EndSplineSet
Substitution2: "Single Substitution lookup 21 subtable" uni0C22_uni0C4D.abvs
EndChar

StartChar: uni0C23
Encoding: 3107 3107 142
Width: 363
GlyphClass: 2
Flags: W
LayerCount: 2
Back
Fore
SplineSet
253 0 m 2,0,-1
 195 0 l 2,1,2
 177 0 177 0 161.5 14.5 c 128,-1,3
 146 29 146 29 146 55 c 2,4,-1
 146 116 l 2,5,6
 146 142 146 142 161.5 156 c 128,-1,7
 177 170 177 170 195 170 c 2,8,-1
 257 170 l 2,9,10
 266 170 266 170 276.5 163.5 c 128,-1,11
 287 157 287 157 289 149 c 2,12,-1
 289 274 l 2,13,14
 289 292 289 292 279 303.5 c 128,-1,15
 269 315 269 315 251 315 c 2,16,-1
 197 315 l 2,17,18
 183 315 183 315 171 304.5 c 128,-1,19
 159 294 159 294 159 274 c 2,20,-1
 159 267 l 1,21,-1
 146 267 l 1,22,-1
 146 274 l 2,23,24
 146 295 146 295 133.5 305 c 128,-1,25
 121 315 121 315 107 315 c 2,26,-1
 56 315 l 2,27,28
 38 315 38 315 28 303.5 c 128,-1,29
 18 292 18 292 18 274 c 2,30,-1
 18 209 l 2,31,32
 18 191 18 191 28 180.5 c 128,-1,33
 38 170 38 170 56 170 c 2,34,-1
 62 170 l 1,35,-1
 62 156 l 1,36,-1
 56 156 l 2,37,38
 38 156 38 156 28 145.5 c 128,-1,39
 18 135 18 135 18 117 c 2,40,-1
 18 55 l 2,41,42
 18 37 18 37 29.5 25.5 c 128,-1,43
 41 14 41 14 56 14 c 2,44,-1
 62 14 l 1,45,-1
 62 0 l 1,46,-1
 54 0 l 2,47,48
 34 0 34 0 19 14.5 c 128,-1,49
 4 29 4 29 4 55 c 2,50,-1
 4 117 l 2,51,52
 4 133 4 133 10.5 146 c 128,-1,53
 17 159 17 159 34 163 c 1,54,55
 17 168 17 168 10.5 179.5 c 128,-1,56
 4 191 4 191 4 204 c 2,57,-1
 4 273 l 2,58,59
 4 299 4 299 19 313.5 c 128,-1,60
 34 328 34 328 54 328 c 2,61,-1
 110 328 l 2,62,63
 127 328 127 328 137 320.5 c 128,-1,64
 147 313 147 313 154 302 c 1,65,66
 156 313 156 313 166 320.5 c 128,-1,67
 176 328 176 328 186 328 c 2,68,-1
 253 328 l 2,69,70
 273 328 273 328 288 313.5 c 128,-1,71
 303 299 303 299 303 273 c 2,72,-1
 303 55 l 2,73,74
 303 29 303 29 288 14.5 c 128,-1,75
 273 0 273 0 253 0 c 2,0,-1
289 125 m 1,76,77
 278 156 278 156 250 156 c 2,78,-1
 197 156 l 2,79,80
 183 156 183 156 171 146.5 c 128,-1,81
 159 137 159 137 159 117 c 2,82,-1
 159 55 l 2,83,84
 159 37 159 37 170.5 25.5 c 128,-1,85
 182 14 182 14 197 14 c 2,86,-1
 251 14 l 2,87,88
 266 14 266 14 277.5 25.5 c 128,-1,89
 289 37 289 37 289 55 c 2,90,-1
 289 125 l 1,76,77
EndSplineSet
Substitution2: "Single Substitution lookup 21 subtable" uni0C23_uni0C4D.abvs
EndChar

StartChar: uni0C24
Encoding: 3108 3108 143
Width: 365
GlyphClass: 2
Flags: W
LayerCount: 2
Back
Fore
SplineSet
265 0 m 2,0,-1
 54 0 l 2,1,2
 34 0 34 0 19 14.5 c 128,-1,3
 4 29 4 29 4 53 c 2,4,-1
 4 167 l 2,5,6
 4 192 4 192 15.5 205 c 128,-1,7
 27 218 27 218 44 218 c 2,8,-1
 84 218 l 2,9,10
 102 218 102 218 117.5 204 c 128,-1,11
 133 190 133 190 133 167 c 2,12,-1
 133 147 l 2,13,14
 133 122 133 122 117.5 109 c 128,-1,15
 102 96 102 96 84 96 c 2,16,-1
 18 96 l 1,17,-1
 18 53 l 2,18,19
 18 34 18 34 30 23.5 c 128,-1,20
 42 13 42 13 56 13 c 2,21,-1
 263 13 l 2,22,23
 277 13 277 13 289 23.5 c 128,-1,24
 301 34 301 34 301 53 c 2,25,-1
 301 96 l 1,26,-1
 235 96 l 2,27,28
 217 96 217 96 201 110.5 c 128,-1,29
 185 125 185 125 185 148 c 2,30,-1
 185 167 l 2,31,32
 185 190 185 190 201 204 c 128,-1,33
 217 218 217 218 235 218 c 2,34,-1
 265 218 l 2,35,36
 270 218 270 218 273 221.5 c 128,-1,37
 276 225 276 225 278 229.5 c 128,-1,38
 280 234 280 234 280.5 238 c 128,-1,39
 281 242 281 242 281 243 c 2,40,-1
 281 267 l 2,41,42
 281 273 281 273 280.5 279.5 c 128,-1,43
 280 286 280 286 277 291.5 c 128,-1,44
 274 297 274 297 268 301 c 128,-1,45
 262 305 262 305 250 305 c 2,46,-1
 59 305 l 1,47,-1
 59 318 l 1,48,-1
 153 318 l 1,49,-1
 153 407 l 2,50,51
 153 426 153 426 166 437.5 c 128,-1,52
 179 449 179 449 193 449 c 2,53,-1
 313 449 l 1,54,-1
 313 436 l 1,55,-1
 201 436 l 2,56,57
 188 436 188 436 177 428 c 128,-1,58
 166 420 166 420 166 403 c 2,59,-1
 166 318 l 1,60,-1
 249 318 l 2,61,62
 270 318 270 318 282 308 c 128,-1,63
 294 298 294 298 294 272 c 2,64,-1
 294 238 l 2,65,66
 294 233 294 233 291 223.5 c 128,-1,67
 288 214 288 214 280 212 c 1,68,69
 300 210 300 210 307.5 194.5 c 128,-1,70
 315 179 315 179 315 167 c 2,71,-1
 315 53 l 2,72,73
 315 29 315 29 299 14.5 c 128,-1,74
 283 0 283 0 265 0 c 2,0,-1
301 165 m 2,75,76
 301 184 301 184 289 194.5 c 128,-1,77
 277 205 277 205 263 205 c 2,78,-1
 237 205 l 2,79,80
 221 205 221 205 210.5 194 c 128,-1,81
 200 183 200 183 200 165 c 2,82,-1
 200 147 l 2,83,84
 200 130 200 130 210.5 119.5 c 128,-1,85
 221 109 221 109 237 109 c 2,86,-1
 301 109 l 1,87,-1
 301 165 l 2,75,76
119 165 m 2,88,89
 119 184 119 184 107 194.5 c 128,-1,90
 95 205 95 205 81 205 c 2,91,-1
 46 205 l 2,92,93
 37 205 37 205 29.5 199 c 128,-1,94
 22 193 22 193 20 183 c 0,95,96
 18 179 18 179 18 174.5 c 128,-1,97
 18 170 18 170 18 165 c 2,98,-1
 18 109 l 1,99,-1
 81 109 l 2,100,101
 96 109 96 109 107.5 119 c 128,-1,102
 119 129 119 129 119 147 c 2,103,-1
 119 165 l 2,88,89
EndSplineSet
Substitution2: "Single Substitution lookup 21 subtable" uni0C24_uni0C4D.abvs
EndChar

StartChar: uni0C25
Encoding: 3109 3109 144
Width: 367
GlyphClass: 2
Flags: W
LayerCount: 2
Back
Fore
SplineSet
158 -22 m 1,0,-1
 158 -66 l 1,1,-1
 147 -66 l 1,2,-1
 147 -24 l 2,3,4
 148 -23 148 -23 152 -21 c 2,5,-1
 158 -22 l 1,0,-1
149 173 m 1,6,-1
 149 199 l 1,7,-1
 161 199 l 1,8,-1
 161 173 l 1,9,-1
 149 173 l 1,6,-1
250 438 m 2,10,11
 236 438 236 438 225 430.5 c 128,-1,12
 214 423 214 423 214 404 c 2,13,-1
 212 318 l 1,14,-1
 262 318 l 2,15,16
 278 318 278 318 291 307 c 128,-1,17
 304 296 304 296 304 274 c 2,18,-1
 304 45 l 2,19,20
 304 25 304 25 291 12.5 c 128,-1,21
 278 0 278 0 262 0 c 2,22,-1
 188 0 l 2,23,24
 180 0 180 0 169 6 c 128,-1,25
 158 12 158 12 154 26 c 1,26,27
 146 9 146 9 133 4.5 c 128,-1,28
 120 0 120 0 110 0 c 2,29,-1
 46 0 l 2,30,31
 29 0 29 0 16.5 12.5 c 128,-1,32
 4 25 4 25 4 45 c 2,33,-1
 4 271 l 2,34,35
 4 288 4 288 16.5 303 c 128,-1,36
 29 318 29 318 60 318 c 1,37,38
 51 322 51 322 50 335.5 c 128,-1,39
 49 349 49 349 49 350 c 2,40,-1
 49 395 l 1,41,-1
 62 395 l 1,42,-1
 62 355 l 2,43,44
 62 341 62 341 65.5 333.5 c 128,-1,45
 69 326 69 326 73 322.5 c 128,-1,46
 77 319 77 319 81 318.5 c 128,-1,47
 85 318 85 318 87 318 c 2,48,-1
 199 318 l 1,49,-1
 201 408 l 2,50,51
 201 428 201 428 213.5 439.5 c 128,-1,52
 226 451 226 451 243 451 c 2,53,-1
 305 451 l 1,54,-1
 305 438 l 1,55,-1
 250 438 l 2,10,11
290 269 m 2,56,57
 290 284 290 284 281 294.5 c 128,-1,58
 272 305 272 305 255 305 c 2,59,-1
 55 305 l 2,60,61
 37 305 37 305 27.5 293 c 128,-1,62
 18 281 18 281 18 267 c 2,63,-1
 18 48 l 2,64,65
 18 34 18 34 26 23.5 c 128,-1,66
 34 13 34 13 51 13 c 2,67,-1
 111 13 l 2,68,69
 127 13 127 13 137 23 c 128,-1,70
 147 33 147 33 147 48 c 2,71,-1
 147 80 l 1,72,-1
 160 80 l 1,73,-1
 160 48 l 2,74,75
 160 33 160 33 169.5 23 c 128,-1,76
 179 13 179 13 195 13 c 2,77,-1
 255 13 l 2,78,79
 271 13 271 13 280.5 23 c 128,-1,80
 290 33 290 33 290 48 c 2,81,-1
 290 269 l 2,56,57
EndSplineSet
Substitution2: "Single Substitution lookup 21 subtable" uni0C25_uni0C4D.abvs
EndChar

StartChar: uni0C26
Encoding: 3110 3110 145
Width: 367
GlyphClass: 2
Flags: W
LayerCount: 2
Back
Fore
SplineSet
250 438 m 2,0,1
 236 438 236 438 225 430.5 c 128,-1,2
 214 423 214 423 214 404 c 2,3,-1
 212 318 l 1,4,-1
 262 318 l 2,5,6
 278 318 278 318 291 307 c 128,-1,7
 304 296 304 296 304 274 c 2,8,-1
 304 45 l 2,9,10
 304 25 304 25 291 12.5 c 128,-1,11
 278 0 278 0 262 0 c 2,12,-1
 188 0 l 2,13,14
 180 0 180 0 169 6 c 128,-1,15
 158 12 158 12 154 26 c 1,16,17
 146 9 146 9 133 4.5 c 128,-1,18
 120 0 120 0 110 0 c 2,19,-1
 46 0 l 2,20,21
 29 0 29 0 16.5 12.5 c 128,-1,22
 4 25 4 25 4 45 c 2,23,-1
 4 271 l 2,24,25
 4 288 4 288 16.5 303 c 128,-1,26
 29 318 29 318 60 318 c 1,27,28
 51 322 51 322 50 335.5 c 128,-1,29
 49 349 49 349 49 350 c 2,30,-1
 49 395 l 1,31,-1
 62 395 l 1,32,-1
 62 355 l 2,33,34
 62 341 62 341 65.5 333.5 c 128,-1,35
 69 326 69 326 73 322.5 c 128,-1,36
 77 319 77 319 81 318.5 c 128,-1,37
 85 318 85 318 87 318 c 2,38,-1
 199 318 l 1,39,-1
 201 408 l 2,40,41
 201 428 201 428 213.5 439.5 c 128,-1,42
 226 451 226 451 243 451 c 2,43,-1
 305 451 l 1,44,-1
 305 438 l 1,45,-1
 250 438 l 2,0,1
290 269 m 2,46,47
 290 284 290 284 281 294.5 c 128,-1,48
 272 305 272 305 255 305 c 2,49,-1
 55 305 l 2,50,51
 37 305 37 305 27.5 293 c 128,-1,52
 18 281 18 281 18 267 c 2,53,-1
 18 48 l 2,54,55
 18 34 18 34 26 23.5 c 128,-1,56
 34 13 34 13 51 13 c 2,57,-1
 111 13 l 2,58,59
 127 13 127 13 137 23 c 128,-1,60
 147 33 147 33 147 48 c 2,61,-1
 147 80 l 1,62,-1
 160 80 l 1,63,-1
 160 48 l 2,64,65
 160 33 160 33 169.5 23 c 128,-1,66
 179 13 179 13 195 13 c 2,67,-1
 255 13 l 2,68,69
 271 13 271 13 280.5 23 c 128,-1,70
 290 33 290 33 290 48 c 2,71,-1
 290 269 l 2,46,47
EndSplineSet
Substitution2: "Single Substitution lookup 21 subtable" uni0C26_uni0C4D.abvs
EndChar

StartChar: uni0C27
Encoding: 3111 3111 146
Width: 367
GlyphClass: 2
Flags: W
LayerCount: 2
Back
Fore
SplineSet
158 -22 m 1,0,-1
 158 -66 l 1,1,-1
 147 -66 l 1,2,-1
 147 -24 l 2,3,4
 148 -23 148 -23 152 -21 c 2,5,-1
 158 -22 l 1,0,-1
250 438 m 2,6,7
 236 438 236 438 225 430.5 c 128,-1,8
 214 423 214 423 214 404 c 2,9,-1
 212 318 l 1,10,-1
 262 318 l 2,11,12
 278 318 278 318 291 307 c 128,-1,13
 304 296 304 296 304 274 c 2,14,-1
 304 45 l 2,15,16
 304 25 304 25 291 12.5 c 128,-1,17
 278 0 278 0 262 0 c 2,18,-1
 188 0 l 2,19,20
 180 0 180 0 169 6 c 128,-1,21
 158 12 158 12 154 26 c 1,22,23
 146 9 146 9 133 4.5 c 128,-1,24
 120 0 120 0 110 0 c 2,25,-1
 46 0 l 2,26,27
 29 0 29 0 16.5 12.5 c 128,-1,28
 4 25 4 25 4 45 c 2,29,-1
 4 271 l 2,30,31
 4 288 4 288 16.5 303 c 128,-1,32
 29 318 29 318 60 318 c 1,33,34
 51 322 51 322 50 335.5 c 128,-1,35
 49 349 49 349 49 350 c 2,36,-1
 49 395 l 1,37,-1
 62 395 l 1,38,-1
 62 355 l 2,39,40
 62 341 62 341 65.5 333.5 c 128,-1,41
 69 326 69 326 73 322.5 c 128,-1,42
 77 319 77 319 81 318.5 c 128,-1,43
 85 318 85 318 87 318 c 2,44,-1
 199 318 l 1,45,-1
 201 408 l 2,46,47
 201 428 201 428 213.5 439.5 c 128,-1,48
 226 451 226 451 243 451 c 2,49,-1
 305 451 l 1,50,-1
 305 438 l 1,51,-1
 250 438 l 2,6,7
290 269 m 2,52,53
 290 284 290 284 281 294.5 c 128,-1,54
 272 305 272 305 255 305 c 2,55,-1
 55 305 l 2,56,57
 37 305 37 305 27.5 293 c 128,-1,58
 18 281 18 281 18 267 c 2,59,-1
 18 48 l 2,60,61
 18 34 18 34 26 23.5 c 128,-1,62
 34 13 34 13 51 13 c 2,63,-1
 111 13 l 2,64,65
 127 13 127 13 137 23 c 128,-1,66
 147 33 147 33 147 48 c 2,67,-1
 147 80 l 1,68,-1
 160 80 l 1,69,-1
 160 48 l 2,70,71
 160 33 160 33 169.5 23 c 128,-1,72
 179 13 179 13 195 13 c 2,73,-1
 255 13 l 2,74,75
 271 13 271 13 280.5 23 c 128,-1,76
 290 33 290 33 290 48 c 2,77,-1
 290 269 l 2,52,53
EndSplineSet
Substitution2: "Single Substitution lookup 21 subtable" uni0C27_uni0C4D.abvs
EndChar

StartChar: uni0C28
Encoding: 3112 3112 147
Width: 364
GlyphClass: 2
Flags: W
LayerCount: 2
Back
Fore
SplineSet
253 0 m 2,0,-1
 196 0 l 2,1,2
 178 0 178 0 162 14.5 c 128,-1,3
 146 29 146 29 146 53 c 2,4,-1
 146 147 l 2,5,6
 146 167 146 167 134.5 176.5 c 128,-1,7
 123 186 123 186 110 186 c 2,8,-1
 57 186 l 2,9,10
 39 186 39 186 28.5 175.5 c 128,-1,11
 18 165 18 165 18 147 c 2,12,-1
 18 0 l 1,13,-1
 4 0 l 1,14,-1
 4 148 l 2,15,16
 4 171 4 171 19 185 c 128,-1,17
 34 199 34 199 54 199 c 2,18,-1
 110 199 l 2,19,20
 128 199 128 199 144 185 c 128,-1,21
 160 171 160 171 160 148 c 2,22,-1
 160 53 l 2,23,24
 160 34 160 34 172 23.5 c 128,-1,25
 184 13 184 13 198 13 c 2,26,-1
 251 13 l 2,27,28
 266 13 266 13 277 24 c 128,-1,29
 288 35 288 35 288 53 c 2,30,-1
 288 266 l 2,31,32
 288 285 288 285 276.5 294.5 c 128,-1,33
 265 304 265 304 251 304 c 2,34,-1
 41 304 l 1,35,-1
 41 318 l 1,36,-1
 132 318 l 1,37,-1
 132 413 l 2,38,39
 132 432 132 432 144.5 443.5 c 128,-1,40
 157 455 157 455 172 455 c 2,41,-1
 302 455 l 1,42,-1
 302 442 l 1,43,-1
 179 442 l 2,44,45
 167 442 167 442 156 434 c 128,-1,46
 145 426 145 426 145 409 c 2,47,-1
 145 318 l 1,48,-1
 253 318 l 2,49,50
 273 318 273 318 287.5 303.5 c 128,-1,51
 302 289 302 289 302 266 c 2,52,-1
 302 53 l 2,53,54
 302 27 302 27 286.5 13.5 c 128,-1,55
 271 0 271 0 253 0 c 2,0,-1
EndSplineSet
Substitution2: "Single Substitution lookup 21 subtable" uni0C28_uni0C4D.abvs
EndChar

StartChar: uni0C2A
Encoding: 3114 3114 148
Width: 360
GlyphClass: 2
Flags: W
LayerCount: 2
Back
Fore
SplineSet
167 439 m 2,0,1
 150 439 150 439 142.5 428.5 c 128,-1,2
 135 418 135 418 135 404 c 2,3,-1
 135 350 l 2,4,5
 135 324 135 324 123 313 c 128,-1,6
 111 302 111 302 93 302 c 2,7,-1
 5 302 l 1,8,-1
 5 315 l 1,9,-1
 85 315 l 2,10,11
 102 315 102 315 111.5 324.5 c 128,-1,12
 121 334 121 334 121 350 c 2,13,-1
 121 401 l 2,14,15
 121 427 121 427 134 439.5 c 128,-1,16
 147 452 147 452 164 452 c 2,17,-1
 235 452 l 1,18,-1
 235 439 l 1,19,-1
 167 439 l 2,0,1
252 318 m 1,20,21
 269 318 269 318 284.5 303.5 c 128,-1,22
 300 289 300 289 300 265 c 2,23,-1
 300 53 l 2,24,25
 300 29 300 29 284 14.5 c 128,-1,26
 268 0 268 0 251 0 c 2,27,-1
 195 0 l 2,28,29
 191 0 191 0 184 1.5 c 128,-1,30
 177 3 177 3 170.5 6 c 128,-1,31
 164 9 164 9 158 15 c 128,-1,32
 152 21 152 21 151 30 c 1,33,34
 147 12 147 12 132.5 6 c 128,-1,35
 118 0 118 0 112 0 c 2,36,-1
 54 0 l 2,37,38
 34 0 34 0 19 14.5 c 128,-1,39
 4 29 4 29 4 53 c 2,40,-1
 4 159 l 2,41,42
 4 182 4 182 19 196 c 128,-1,43
 34 210 34 210 54 210 c 2,44,-1
 108 210 l 2,45,46
 128 210 128 210 143 196 c 128,-1,47
 158 182 158 182 158 159 c 2,48,-1
 158 53 l 2,49,50
 158 35 158 35 168 24 c 128,-1,51
 178 13 178 13 197 13 c 2,52,-1
 249 13 l 2,53,54
 264 13 264 13 275 24 c 128,-1,55
 286 35 286 35 286 53 c 2,56,-1
 286 266 l 2,57,58
 286 301 286 301 252 303 c 1,59,-1
 252 318 l 1,20,21
145 158 m 2,60,61
 145 176 145 176 134.5 186 c 128,-1,62
 124 196 124 196 106 196 c 2,63,-1
 56 196 l 2,64,65
 38 196 38 196 28 185.5 c 128,-1,66
 18 175 18 175 18 158 c 2,67,-1
 18 53 l 2,68,69
 18 34 18 34 30 23.5 c 128,-1,70
 42 13 42 13 56 13 c 2,71,-1
 106 13 l 2,72,73
 124 13 124 13 134.5 24 c 128,-1,74
 145 35 145 35 145 53 c 2,75,-1
 145 158 l 2,60,61
EndSplineSet
Substitution2: "Single Substitution lookup 21 subtable" uni0C2A_uni0C4D.abvs
EndChar

StartChar: uni0C2B
Encoding: 3115 3115 149
Width: 360
GlyphClass: 2
Flags: W
LayerCount: 2
Back
Fore
SplineSet
156 -19 m 1,0,-1
 156 -53 l 1,1,-1
 146 -53 l 1,2,-1
 146 -21 l 2,3,4
 147 -21 147 -21 151 -19 c 2,5,-1
 156 -19 l 1,0,-1
167 439 m 2,6,7
 150 439 150 439 142.5 428.5 c 128,-1,8
 135 418 135 418 135 404 c 2,9,-1
 135 350 l 2,10,11
 135 324 135 324 123 313 c 128,-1,12
 111 302 111 302 93 302 c 2,13,-1
 5 302 l 1,14,-1
 5 315 l 1,15,-1
 85 315 l 2,16,17
 102 315 102 315 111.5 324.5 c 128,-1,18
 121 334 121 334 121 350 c 2,19,-1
 121 401 l 2,20,21
 121 427 121 427 134 439.5 c 128,-1,22
 147 452 147 452 164 452 c 2,23,-1
 235 452 l 1,24,-1
 235 439 l 1,25,-1
 167 439 l 2,6,7
252 318 m 1,26,27
 269 318 269 318 284.5 303.5 c 128,-1,28
 300 289 300 289 300 265 c 2,29,-1
 300 53 l 2,30,31
 300 29 300 29 284 14.5 c 128,-1,32
 268 0 268 0 251 0 c 2,33,-1
 195 0 l 2,34,35
 191 0 191 0 184 1.5 c 128,-1,36
 177 3 177 3 170.5 6 c 128,-1,37
 164 9 164 9 158 15 c 128,-1,38
 152 21 152 21 151 30 c 1,39,40
 147 12 147 12 132.5 6 c 128,-1,41
 118 0 118 0 112 0 c 2,42,-1
 54 0 l 2,43,44
 34 0 34 0 19 14.5 c 128,-1,45
 4 29 4 29 4 53 c 2,46,-1
 4 159 l 2,47,48
 4 182 4 182 19 196 c 128,-1,49
 34 210 34 210 54 210 c 2,50,-1
 108 210 l 2,51,52
 128 210 128 210 143 196 c 128,-1,53
 158 182 158 182 158 159 c 2,54,-1
 158 53 l 2,55,56
 158 35 158 35 168 24 c 128,-1,57
 178 13 178 13 197 13 c 2,58,-1
 249 13 l 2,59,60
 264 13 264 13 275 24 c 128,-1,61
 286 35 286 35 286 53 c 2,62,-1
 286 266 l 2,63,64
 286 301 286 301 252 303 c 1,65,-1
 252 318 l 1,26,27
145 158 m 2,66,67
 145 176 145 176 134.5 186 c 128,-1,68
 124 196 124 196 106 196 c 2,69,-1
 56 196 l 2,70,71
 38 196 38 196 28 185.5 c 128,-1,72
 18 175 18 175 18 158 c 2,73,-1
 18 53 l 2,74,75
 18 34 18 34 30 23.5 c 128,-1,76
 42 13 42 13 56 13 c 2,77,-1
 106 13 l 2,78,79
 124 13 124 13 134.5 24 c 128,-1,80
 145 35 145 35 145 53 c 2,81,-1
 145 158 l 2,66,67
EndSplineSet
Substitution2: "Single Substitution lookup 21 subtable" uni0C2B_uni0C4D.abvs
EndChar

StartChar: uni0C2C
Encoding: 3116 3116 150
Width: 350
GlyphClass: 2
Flags: W
LayerCount: 2
Back
Fore
SplineSet
237 328 m 1,0,1
 255 327 255 327 270.5 313 c 128,-1,2
 286 299 286 299 286 273 c 2,3,-1
 286 55 l 2,4,5
 286 29 286 29 270 14.5 c 128,-1,6
 254 0 254 0 236 0 c 2,7,-1
 183 0 l 2,8,9
 178 0 178 0 164.5 5 c 128,-1,10
 151 10 151 10 143 28 c 1,11,12
 136 10 136 10 123 5 c 128,-1,13
 110 0 110 0 101 0 c 2,14,-1
 54 0 l 2,15,16
 35 0 35 0 19.5 14.5 c 128,-1,17
 4 29 4 29 4 55 c 2,18,-1
 4 139 l 2,19,20
 4 165 4 165 19.5 179.5 c 128,-1,21
 35 194 35 194 54 194 c 2,22,-1
 97 194 l 2,23,24
 137 194 137 194 137 233 c 2,25,-1
 137 274 l 2,26,27
 137 293 137 293 126.5 304 c 128,-1,28
 116 315 116 315 97 315 c 2,29,-1
 57 315 l 2,30,31
 38 315 38 315 28 303.5 c 128,-1,32
 18 292 18 292 18 274 c 2,33,-1
 18 257 l 1,34,-1
 4 257 l 1,35,-1
 4 273 l 2,36,37
 4 299 4 299 19.5 313.5 c 128,-1,38
 35 328 35 328 54 328 c 2,39,-1
 100 328 l 2,40,41
 123 328 123 328 136.5 313.5 c 128,-1,42
 150 299 150 299 150 273 c 2,43,-1
 150 234 l 2,44,45
 150 208 150 208 134.5 194 c 128,-1,46
 119 180 119 180 100 180 c 2,47,-1
 57 180 l 2,48,49
 41 180 41 180 29.5 168.5 c 128,-1,50
 18 157 18 157 18 139 c 2,51,-1
 18 55 l 2,52,53
 18 37 18 37 29 25 c 128,-1,54
 40 13 40 13 56 13 c 2,55,-1
 96 13 l 2,56,57
 116 13 116 13 126.5 25.5 c 128,-1,58
 137 38 137 38 137 55 c 2,59,-1
 137 82 l 1,60,-1
 150 82 l 1,61,-1
 150 55 l 2,62,63
 150 38 150 38 159 25.5 c 128,-1,64
 168 13 168 13 188 13 c 2,65,-1
 232 13 l 2,66,67
 248 13 248 13 260 25 c 128,-1,68
 272 37 272 37 272 55 c 2,69,-1
 272 274 l 2,70,71
 272 310 272 310 237 313 c 1,72,-1
 237 328 l 1,0,1
EndSplineSet
Substitution2: "Single Substitution lookup 21 subtable" uni0C2C_uni0C4D.abvs
EndChar

StartChar: uni0C2D
Encoding: 3117 3117 151
Width: 350
GlyphClass: 2
Flags: W
LayerCount: 2
Back
Fore
SplineSet
154 354 m 1,0,-1
 154 348 l 2,1,2
 154 334 154 334 166.5 326.5 c 128,-1,3
 179 319 179 319 189 319 c 2,4,-1
 226 319 l 1,5,-1
 226 409 l 2,6,7
 226 429 226 429 239 440.5 c 128,-1,8
 252 452 252 452 269 452 c 2,9,-1
 299 452 l 1,10,-1
 299 441 l 1,11,-1
 275 441 l 2,12,13
 259 441 259 441 249 431 c 128,-1,14
 239 421 239 421 239 405 c 2,15,-1
 239 319 l 1,16,17
 260 319 260 319 272.5 305 c 128,-1,18
 285 291 285 291 285 271 c 2,19,-1
 285 52 l 2,20,21
 285 29 285 29 268.5 14.5 c 128,-1,22
 252 0 252 0 235 0 c 2,23,-1
 186 0 l 2,24,25
 176 0 176 0 162.5 5 c 128,-1,26
 149 10 149 10 143 23 c 1,27,28
 138 9 138 9 123.5 4.5 c 128,-1,29
 109 0 109 0 100 0 c 2,30,-1
 54 0 l 2,31,32
 34 0 34 0 19 14.5 c 128,-1,33
 4 29 4 29 4 52 c 2,34,-1
 4 118 l 2,35,36
 4 141 4 141 19 155 c 128,-1,37
 34 169 34 169 54 169 c 2,38,-1
 97 169 l 2,39,40
 115 169 115 169 125.5 179 c 128,-1,41
 136 189 136 189 136 206 c 2,42,-1
 136 237 l 2,43,44
 136 274 136 274 98 274 c 2,45,-1
 57 274 l 2,46,47
 40 274 40 274 29 264 c 128,-1,48
 18 254 18 254 18 237 c 2,49,-1
 18 227 l 1,50,-1
 4 227 l 1,51,-1
 4 236 l 2,52,53
 4 259 4 259 19 273.5 c 128,-1,54
 34 288 34 288 54 288 c 2,55,-1
 99 288 l 2,56,57
 119 288 119 288 134 273.5 c 128,-1,58
 149 259 149 259 149 236 c 2,59,-1
 149 207 l 2,60,61
 149 184 149 184 134 169.5 c 128,-1,62
 119 155 119 155 99 155 c 2,63,-1
 56 155 l 2,64,65
 42 155 42 155 30 145.5 c 128,-1,66
 18 136 18 136 18 118 c 2,67,-1
 18 52 l 2,68,69
 18 34 18 34 30 23.5 c 128,-1,70
 42 13 42 13 56 13 c 2,71,-1
 97 13 l 2,72,73
 116 13 116 13 126 23.5 c 128,-1,74
 136 34 136 34 136 52 c 2,75,-1
 136 85 l 1,76,-1
 149 85 l 1,77,-1
 149 52 l 2,78,79
 149 34 149 34 159.5 23.5 c 128,-1,80
 170 13 170 13 188 13 c 2,81,-1
 232 13 l 2,82,83
 247 13 247 13 258.5 23.5 c 128,-1,84
 270 34 270 34 270 52 c 2,85,-1
 270 268 l 2,86,87
 270 285 270 285 260.5 296 c 128,-1,88
 251 307 251 307 232 307 c 2,89,-1
 195 307 l 2,90,91
 194 307 194 307 185.5 307.5 c 128,-1,92
 177 308 177 308 167.5 312 c 128,-1,93
 158 316 158 316 150 325 c 128,-1,94
 142 334 142 334 142 350 c 2,95,-1
 142 354 l 1,96,-1
 154 354 l 1,0,-1
148 -22 m 1,97,-1
 148 -56 l 1,98,-1
 137 -56 l 1,99,-1
 137 -24 l 2,100,101
 138 -24 138 -24 142 -22 c 2,102,-1
 148 -22 l 1,97,-1
EndSplineSet
Substitution2: "Single Substitution lookup 21 subtable" uni0C2D_uni0C4D.abvs
EndChar

StartChar: uni0C2E
Encoding: 3118 3118 152
Width: 484
GlyphClass: 2
Flags: W
LayerCount: 2
Back
Fore
SplineSet
380 318 m 1,0,1
 398 318 398 318 412.5 303.5 c 128,-1,2
 427 289 427 289 427 265 c 2,3,-1
 427 53 l 2,4,5
 427 29 427 29 412.5 14.5 c 128,-1,6
 398 0 398 0 379 0 c 2,7,-1
 315 0 l 2,8,9
 307 0 307 0 292 3.5 c 128,-1,10
 277 7 277 7 268 26 c 1,11,12
 262 7 262 7 247.5 3.5 c 128,-1,13
 233 0 233 0 225 0 c 2,14,-1
 180 0 l 2,15,16
 171 0 171 0 157 3.5 c 128,-1,17
 143 7 143 7 136 25 c 1,18,19
 129 7 129 7 116.5 3.5 c 128,-1,20
 104 0 104 0 99 0 c 2,21,-1
 51 0 l 2,22,23
 34 0 34 0 18.5 15 c 128,-1,24
 3 30 3 30 3 54 c 2,25,-1
 3 159 l 2,26,27
 3 182 3 182 18.5 197 c 128,-1,28
 34 212 34 212 51 212 c 2,29,-1
 94 212 l 2,30,31
 111 212 111 212 126.5 197 c 128,-1,32
 142 182 142 182 142 159 c 2,33,-1
 142 54 l 2,34,35
 142 35 142 35 152.5 24 c 128,-1,36
 163 13 163 13 182 13 c 2,37,-1
 222 13 l 2,38,39
 238 13 238 13 248 25 c 128,-1,40
 258 37 258 37 258 54 c 2,41,-1
 258 267 l 2,42,43
 258 284 258 284 248.5 295.5 c 128,-1,44
 239 307 239 307 222 307 c 2,45,-1
 4 307 l 1,46,-1
 4 320 l 1,47,-1
 86 320 l 1,48,-1
 86 398 l 2,49,50
 86 422 86 422 101 437 c 128,-1,51
 116 452 116 452 135 452 c 2,52,-1
 240 452 l 1,53,-1
 240 440 l 1,54,-1
 137 440 l 2,55,56
 119 440 119 440 109.5 427.5 c 128,-1,57
 100 415 100 415 100 398 c 2,58,-1
 100 320 l 1,59,-1
 225 320 l 2,60,61
 242 320 242 320 257 305 c 128,-1,62
 272 290 272 290 272 266 c 2,63,-1
 272 71 l 2,64,65
 272 41 272 41 285 27 c 128,-1,66
 298 13 298 13 318 13 c 2,67,-1
 377 13 l 2,68,69
 395 13 395 13 404.5 24 c 128,-1,70
 414 35 414 35 414 53 c 2,71,-1
 414 266 l 2,72,73
 414 283 414 283 405 293.5 c 128,-1,74
 396 304 396 304 380 305 c 1,75,-1
 380 318 l 1,0,1
129 160 m 2,76,77
 129 180 129 180 117.5 189 c 128,-1,78
 106 198 106 198 92 198 c 2,79,-1
 52 198 l 2,80,81
 35 198 35 198 26 187.5 c 128,-1,82
 17 177 17 177 17 160 c 2,83,-1
 17 54 l 2,84,85
 17 37 17 37 27 25 c 128,-1,86
 37 13 37 13 53 13 c 2,87,-1
 92 13 l 2,88,89
 107 13 107 13 118 24.5 c 128,-1,90
 129 36 129 36 129 54 c 2,91,-1
 129 160 l 2,76,77
EndSplineSet
Substitution2: "Single Substitution lookup 21 subtable" uni0C2E_uni0C4D.abvs
EndChar

StartChar: uni0C2F
Encoding: 3119 3119 153
Width: 623
GlyphClass: 2
Flags: W
LayerCount: 2
Back
Fore
SplineSet
516 318 m 1,0,1
 533 318 533 318 547.5 303.5 c 128,-1,2
 562 289 562 289 562 265 c 2,3,-1
 562 53 l 2,4,5
 562 29 562 29 547 14.5 c 128,-1,6
 532 0 532 0 515 0 c 2,7,-1
 452 0 l 2,8,9
 443 0 443 0 428 4 c 128,-1,10
 413 8 413 8 404 29 c 1,11,12
 401 18 401 18 395 12.5 c 128,-1,13
 389 7 389 7 382 4 c 128,-1,14
 375 1 375 1 369.5 0.5 c 128,-1,15
 364 0 364 0 363 0 c 2,16,-1
 253 0 l 2,17,18
 242 0 242 0 229.5 5 c 128,-1,19
 217 10 217 10 209 30 c 1,20,21
 203 9 203 9 189.5 4.5 c 128,-1,22
 176 0 176 0 167 0 c 2,23,-1
 52 0 l 2,24,25
 33 0 33 0 18.5 14.5 c 128,-1,26
 4 29 4 29 4 53 c 2,27,-1
 4 266 l 2,28,29
 4 289 4 289 18.5 303.5 c 128,-1,30
 33 318 33 318 52 318 c 2,31,-1
 168 318 l 2,32,33
 185 318 185 318 200.5 303.5 c 128,-1,34
 216 289 216 289 216 266 c 2,35,-1
 216 53 l 2,36,37
 216 35 216 35 226.5 24 c 128,-1,38
 237 13 237 13 251 13 c 2,39,-1
 359 13 l 2,40,41
 376 13 376 13 385.5 24 c 128,-1,42
 395 35 395 35 395 53 c 2,43,-1
 395 266 l 2,44,45
 395 283 395 283 385.5 294 c 128,-1,46
 376 305 376 305 359 305 c 2,47,-1
 289 305 l 1,48,-1
 289 318 l 1,49,-1
 307 318 l 1,50,-1
 307 410 l 2,51,52
 307 429 307 429 321 440.5 c 128,-1,53
 335 452 335 452 349 452 c 2,54,-1
 407 452 l 1,55,-1
 407 440 l 1,56,-1
 351 440 l 2,57,58
 340 440 340 440 329.5 431 c 128,-1,59
 319 422 319 422 319 405 c 2,60,-1
 319 318 l 1,61,-1
 361 318 l 2,62,63
 379 318 379 318 394 303.5 c 128,-1,64
 409 289 409 289 409 266 c 2,65,-1
 409 62 l 2,66,67
 409 32 409 32 424 22.5 c 128,-1,68
 439 13 439 13 454 13 c 2,69,-1
 513 13 l 2,70,71
 527 13 527 13 538 23.5 c 128,-1,72
 549 34 549 34 549 53 c 2,73,-1
 549 266 l 2,74,75
 549 283 549 283 540.5 293.5 c 128,-1,76
 532 304 532 304 516 305 c 1,77,-1
 516 318 l 1,0,1
202 266 m 2,78,79
 202 283 202 283 192.5 294 c 128,-1,80
 183 305 183 305 166 305 c 2,81,-1
 55 305 l 2,82,83
 38 305 38 305 28 294.5 c 128,-1,84
 18 284 18 284 18 266 c 2,85,-1
 18 53 l 2,86,87
 18 35 18 35 27.5 24 c 128,-1,88
 37 13 37 13 55 13 c 2,89,-1
 166 13 l 2,90,91
 181 13 181 13 191.5 24 c 128,-1,92
 202 35 202 35 202 53 c 2,93,-1
 202 266 l 2,78,79
EndSplineSet
Substitution2: "Single Substitution lookup 21 subtable" uni0C2F_uni0C4D.abvs
EndChar

StartChar: uni0C30
Encoding: 3120 3120 154
Width: 312
GlyphClass: 2
Flags: W
LayerCount: 2
Back
Fore
SplineSet
197 0 m 2,0,-1
 54 0 l 2,1,2
 36 0 36 0 20 14.5 c 128,-1,3
 4 29 4 29 4 53 c 2,4,-1
 4 266 l 2,5,6
 4 273 4 273 6.5 281 c 128,-1,7
 9 289 9 289 14.5 296.5 c 128,-1,8
 20 304 20 304 27.5 309 c 128,-1,9
 35 314 35 314 46 314 c 1,10,11
 39 317 39 317 35 322 c 128,-1,12
 31 327 31 327 28.5 333 c 128,-1,13
 26 339 26 339 25 344 c 128,-1,14
 24 349 24 349 24 351 c 2,15,-1
 24 374 l 1,16,-1
 38 374 l 1,17,-1
 38 356 l 2,18,19
 38 341 38 341 46 329.5 c 128,-1,20
 54 318 54 318 69 318 c 2,21,-1
 84 318 l 1,22,-1
 145 318 l 1,23,-1
 145 408 l 2,24,25
 145 428 145 428 158 440 c 128,-1,26
 171 452 171 452 188 452 c 2,27,-1
 245 452 l 1,28,-1
 245 437 l 1,29,-1
 195 437 l 2,30,31
 181 437 181 437 169.5 429.5 c 128,-1,32
 158 422 158 422 158 403 c 2,33,-1
 158 318 l 1,34,-1
 195 318 l 2,35,36
 213 318 213 318 229 303.5 c 128,-1,37
 245 289 245 289 245 266 c 2,38,-1
 245 53 l 2,39,40
 245 37 245 37 239 27 c 128,-1,41
 233 17 233 17 225 11 c 128,-1,42
 217 5 217 5 209 2.5 c 128,-1,43
 201 0 201 0 197 0 c 2,0,-1
230 266 m 2,44,45
 230 285 230 285 219.5 294.5 c 128,-1,46
 209 304 209 304 194 304 c 2,47,-1
 59 304 l 2,48,49
 41 304 41 304 30 293.5 c 128,-1,50
 19 283 19 283 19 266 c 2,51,-1
 19 53 l 2,52,53
 19 35 19 35 29 24 c 128,-1,54
 39 13 39 13 58 13 c 2,55,-1
 193 13 l 2,56,57
 209 13 209 13 219.5 24 c 128,-1,58
 230 35 230 35 230 53 c 2,59,-1
 230 266 l 2,44,45
EndSplineSet
Substitution2: "Single Substitution lookup 21 subtable" uni0C30_uni0C4D.abvs
EndChar

StartChar: uni0C31
Encoding: 3121 3121 155
Width: 370
GlyphClass: 2
Flags: W
LayerCount: 2
Back
Fore
SplineSet
266 0 m 2,0,-1
 197 0 l 2,1,2
 189 0 189 0 175.5 4.5 c 128,-1,3
 162 9 162 9 155 29 c 1,4,5
 153 19 153 19 146.5 13.5 c 128,-1,6
 140 8 140 8 132.5 5 c 128,-1,7
 125 2 125 2 118.5 1 c 128,-1,8
 112 0 112 0 111 0 c 2,9,-1
 54 0 l 2,10,11
 34 0 34 0 19 14.5 c 128,-1,12
 4 29 4 29 4 55 c 2,13,-1
 4 273 l 2,14,15
 4 299 4 299 19 313.5 c 128,-1,16
 34 328 34 328 54 328 c 2,17,-1
 82 328 l 2,18,19
 102 328 102 328 117 313.5 c 128,-1,20
 132 299 132 299 132 273 c 2,21,-1
 132 234 l 2,22,23
 132 208 132 208 117 193.5 c 128,-1,24
 102 179 102 179 82 179 c 2,25,-1
 18 179 l 1,26,-1
 18 55 l 2,27,28
 18 37 18 37 30.5 25 c 128,-1,29
 43 13 43 13 58 13 c 2,30,-1
 110 13 l 2,31,32
 129 13 129 13 137.5 25 c 128,-1,33
 146 37 146 37 146 55 c 1,34,-1
 161 55 l 1,35,36
 161 37 161 37 173 25 c 128,-1,37
 185 13 185 13 201 13 c 2,38,-1
 266 13 l 2,39,40
 281 13 281 13 291.5 25 c 128,-1,41
 302 37 302 37 302 55 c 2,42,-1
 302 274 l 2,43,44
 302 292 302 292 292.5 303 c 128,-1,45
 283 314 283 314 265 314 c 2,46,-1
 242 314 l 2,47,48
 225 314 225 314 214.5 303 c 128,-1,49
 204 292 204 292 204 274 c 2,50,-1
 204 132 l 1,51,-1
 222 132 l 1,52,-1
 222 119 l 1,53,-1
 74 119 l 1,54,-1
 74 132 l 1,55,-1
 190 132 l 1,56,-1
 190 273 l 2,57,58
 190 299 190 299 206 313.5 c 128,-1,59
 222 328 222 328 239 328 c 2,60,-1
 266 328 l 2,61,62
 286 328 286 328 301 313.5 c 128,-1,63
 316 299 316 299 316 273 c 2,64,-1
 316 55 l 2,65,66
 316 29 316 29 301 14.5 c 128,-1,67
 286 0 286 0 266 0 c 2,0,-1
118 274 m 2,68,69
 118 292 118 292 108.5 303 c 128,-1,70
 99 314 99 314 81 314 c 2,71,-1
 57 314 l 2,72,73
 39 314 39 314 28.5 303 c 128,-1,74
 18 292 18 292 18 274 c 2,75,-1
 18 192 l 1,76,-1
 80 192 l 2,77,78
 99 192 99 192 108.5 204.5 c 128,-1,79
 118 217 118 217 118 234 c 2,80,-1
 118 274 l 2,68,69
EndSplineSet
Substitution2: "Single Substitution lookup 21 subtable" uni0C31_uni0C4D.abvs
EndChar

StartChar: uni0C32
Encoding: 3122 3122 156
Width: 349
GlyphClass: 2
Flags: W
LayerCount: 2
Back
Fore
SplineSet
243 328 m 1,0,1
 260 325 260 325 273 311 c 128,-1,2
 286 297 286 297 286 273 c 2,3,-1
 286 55 l 2,4,5
 286 29 286 29 270 14.5 c 128,-1,6
 254 0 254 0 237 0 c 2,7,-1
 54 0 l 2,8,9
 35 0 35 0 19.5 14.5 c 128,-1,10
 4 29 4 29 4 55 c 2,11,-1
 4 273 l 2,12,13
 4 299 4 299 19.5 313.5 c 128,-1,14
 35 328 35 328 54 328 c 2,15,-1
 102 328 l 2,16,17
 120 328 120 328 136 313.5 c 128,-1,18
 152 299 152 299 152 273 c 2,19,-1
 152 209 l 2,20,21
 152 183 152 183 136 168.5 c 128,-1,22
 120 154 120 154 102 154 c 2,23,-1
 18 154 l 1,24,-1
 18 55 l 2,25,26
 18 37 18 37 29.5 26 c 128,-1,27
 41 15 41 15 57 15 c 2,28,-1
 235 15 l 2,29,30
 251 15 251 15 261.5 26 c 128,-1,31
 272 37 272 37 272 55 c 2,32,-1
 272 274 l 2,33,34
 272 307 272 307 243 312 c 1,35,-1
 243 328 l 1,0,1
138 274 m 2,36,37
 138 294 138 294 126 303.5 c 128,-1,38
 114 313 114 313 100 313 c 2,39,-1
 57 313 l 2,40,41
 38 313 38 313 28 302.5 c 128,-1,42
 18 292 18 292 18 274 c 2,43,-1
 18 168 l 1,44,-1
 100 168 l 2,45,46
 116 168 116 168 127 179.5 c 128,-1,47
 138 191 138 191 138 209 c 2,48,-1
 138 274 l 2,36,37
EndSplineSet
Substitution2: "Single Substitution lookup 21 subtable" uni0C32_uni0C4D.abvs
EndChar

StartChar: uni0C33
Encoding: 3123 3123 157
Width: 358
GlyphClass: 2
Flags: W
LayerCount: 2
Back
Fore
SplineSet
253 427 m 2,0,1
 240 427 240 427 229 419 c 128,-1,2
 218 411 218 411 218 394 c 2,3,-1
 218 319 l 1,4,-1
 244 319 l 2,5,6
 264 319 264 319 279 304.5 c 128,-1,7
 294 290 294 290 294 267 c 2,8,-1
 294 182 l 2,9,10
 294 166 294 166 281.5 148.5 c 128,-1,11
 269 131 269 131 242 131 c 2,12,-1
 234 131 l 2,13,14
 239 131 239 131 244.5 120.5 c 128,-1,15
 250 110 250 110 250 102 c 2,16,-1
 250 52 l 2,17,18
 250 29 250 29 235.5 14.5 c 128,-1,19
 221 0 221 0 189 0 c 2,20,-1
 107 0 l 2,21,22
 87 0 87 0 73 13 c 128,-1,23
 59 26 59 26 59 52 c 2,24,-1
 59 92 l 2,25,26
 59 94 59 94 60 100.5 c 128,-1,27
 61 107 61 107 63 113.5 c 128,-1,28
 65 120 65 120 68.5 125.5 c 128,-1,29
 72 131 72 131 78 131 c 2,30,-1
 57 131 l 2,31,32
 33 131 33 131 18.5 145 c 128,-1,33
 4 159 4 159 4 179 c 2,34,-1
 4 266 l 2,35,36
 4 290 4 290 16.5 304.5 c 128,-1,37
 29 319 29 319 46 319 c 2,38,-1
 86 319 l 2,39,40
 112 319 112 319 121 303 c 128,-1,41
 130 287 130 287 130 275 c 2,42,-1
 130 249 l 2,43,44
 130 238 130 238 125.5 230.5 c 128,-1,45
 121 223 121 223 114 218.5 c 128,-1,46
 107 214 107 214 99 212.5 c 128,-1,47
 91 211 91 211 85 211 c 2,48,-1
 47 211 l 2,49,50
 33 211 33 211 25 216 c 0,51,52
 21 219 21 219 18 222 c 2,53,-1
 18 176 l 2,54,55
 18 166 18 166 23 159.5 c 128,-1,56
 28 153 28 153 35 149.5 c 128,-1,57
 42 146 42 146 50 144.5 c 128,-1,58
 58 143 58 143 64 143 c 2,59,-1
 233 143 l 2,60,61
 239 143 239 143 247.5 145 c 128,-1,62
 256 147 256 147 263 151.5 c 128,-1,63
 270 156 270 156 275 164.5 c 128,-1,64
 280 173 280 173 280 187 c 2,65,-1
 280 267 l 2,66,67
 280 284 280 284 269.5 294.5 c 128,-1,68
 259 305 259 305 242 305 c 2,69,-1
 188 305 l 1,70,-1
 188 319 l 1,71,-1
 205 319 l 1,72,-1
 205 398 l 2,73,74
 205 417 205 417 218 428.5 c 128,-1,75
 231 440 231 440 245 440 c 2,76,-1
 295 440 l 1,77,-1
 295 427 l 1,78,-1
 253 427 l 2,0,1
116 276 m 2,79,80
 116 292 116 292 105 298.5 c 128,-1,81
 94 305 94 305 85 305 c 2,82,-1
 51 305 l 2,83,84
 34 305 34 305 26 294.5 c 128,-1,85
 18 284 18 284 18 269 c 2,86,-1
 18 255 l 2,87,88
 18 247 18 247 24.5 235.5 c 128,-1,89
 31 224 31 224 52 224 c 2,90,-1
 83 224 l 2,91,92
 96 224 96 224 106 231 c 128,-1,93
 116 238 116 238 116 253 c 2,94,-1
 116 276 l 2,79,80
236 94 m 2,95,96
 236 109 236 109 226 120 c 128,-1,97
 216 131 216 131 199 131 c 2,98,-1
 113 131 l 2,99,100
 99 131 99 131 86 123.5 c 128,-1,101
 73 116 73 116 73 93 c 2,102,-1
 73 53 l 2,103,104
 73 30 73 30 85 21.5 c 128,-1,105
 97 13 97 13 111 13 c 2,106,-1
 196 13 l 2,107,108
 216 13 216 13 226 25.5 c 128,-1,109
 236 38 236 38 236 56 c 2,110,-1
 236 94 l 2,95,96
EndSplineSet
Substitution2: "Single Substitution lookup 21 subtable" uni0C33_uni0C4D.abvs
EndChar

StartChar: uni0C34
Encoding: 3124 3124 158
Width: 382
GlyphClass: 2
Flags: W
LayerCount: 2
Back
Fore
SplineSet
276 0 m 2,0,-1
 204 0 l 2,1,2
 197 0 197 0 184 4 c 128,-1,3
 171 8 171 8 163 22 c 1,4,5
 155 9 155 9 142 4.5 c 128,-1,6
 129 0 129 0 118 0 c 2,7,-1
 54 0 l 2,8,9
 34 0 34 0 19 14.5 c 128,-1,10
 4 29 4 29 4 55 c 2,11,-1
 4 273 l 2,12,13
 4 299 4 299 19 313.5 c 128,-1,14
 34 328 34 328 54 328 c 2,15,-1
 82 328 l 2,16,17
 101 328 101 328 116.5 313.5 c 128,-1,18
 132 299 132 299 132 273 c 2,19,-1
 132 234 l 2,20,21
 132 208 132 208 116.5 193.5 c 128,-1,22
 101 179 101 179 82 179 c 2,23,-1
 18 179 l 1,24,-1
 18 55 l 2,25,26
 18 37 18 37 29.5 26 c 128,-1,27
 41 15 41 15 56 15 c 2,28,-1
 118 15 l 2,29,30
 137 15 137 15 147 26 c 128,-1,31
 157 37 157 37 157 55 c 2,32,-1
 157 77 l 1,33,-1
 171 77 l 1,34,-1
 171 55 l 2,35,36
 171 37 171 37 182.5 26 c 128,-1,37
 194 15 194 15 209 15 c 2,38,-1
 274 15 l 2,39,40
 292 15 292 15 302 29.5 c 128,-1,41
 312 44 312 44 312 55 c 2,42,-1
 312 180 l 1,43,-1
 248 180 l 2,44,45
 229 180 229 180 213.5 194.5 c 128,-1,46
 198 209 198 209 198 235 c 2,47,-1
 198 273 l 2,48,49
 198 299 198 299 213.5 314 c 128,-1,50
 229 329 229 329 248 329 c 2,51,-1
 275 329 l 2,52,53
 295 329 295 329 310.5 314 c 128,-1,54
 326 299 326 299 326 273 c 2,55,-1
 326 56 l 2,56,57
 326 32 326 32 312.5 16 c 128,-1,58
 299 0 299 0 276 0 c 2,0,-1
312 274 m 2,59,60
 312 292 312 292 302 303 c 128,-1,61
 292 314 292 314 273 314 c 2,62,-1
 250 314 l 2,63,64
 231 314 231 314 221 303 c 128,-1,65
 211 292 211 292 211 274 c 2,66,-1
 211 234 l 2,67,68
 211 215 211 215 221.5 205 c 128,-1,69
 232 195 232 195 250 195 c 2,70,-1
 312 195 l 1,71,-1
 312 274 l 2,59,60
118 274 m 2,72,73
 118 292 118 292 108 302.5 c 128,-1,74
 98 313 98 313 80 313 c 2,75,-1
 56 313 l 2,76,77
 38 313 38 313 28 302.5 c 128,-1,78
 18 292 18 292 18 274 c 2,79,-1
 18 194 l 1,80,-1
 80 194 l 2,81,82
 99 194 99 194 108.5 205.5 c 128,-1,83
 118 217 118 217 118 234 c 2,84,-1
 118 274 l 2,72,73
EndSplineSet
EndChar

StartChar: uni0C35
Encoding: 3125 3125 159
Width: 346
GlyphClass: 2
Flags: W
LayerCount: 2
Back
Fore
SplineSet
233 0 m 2,0,-1
 186 0 l 2,1,2
 181 0 181 0 174.5 1 c 128,-1,3
 168 2 168 2 161 5.5 c 128,-1,4
 154 9 154 9 148.5 15 c 128,-1,5
 143 21 143 21 140 30 c 1,6,7
 133 12 133 12 120 6 c 128,-1,8
 107 0 107 0 96 0 c 2,9,-1
 52 0 l 2,10,11
 35 0 35 0 19 15 c 128,-1,12
 3 30 3 30 3 54 c 2,13,-1
 3 159 l 2,14,15
 3 182 3 182 19 197 c 128,-1,16
 35 212 35 212 52 212 c 2,17,-1
 98 212 l 2,18,19
 115 212 115 212 131 197 c 128,-1,20
 147 182 147 182 147 159 c 2,21,-1
 147 54 l 2,22,23
 147 35 147 35 158 24 c 128,-1,24
 169 13 169 13 188 13 c 2,25,-1
 231 13 l 2,26,27
 247 13 247 13 257.5 25 c 128,-1,28
 268 37 268 37 268 54 c 2,29,-1
 268 267 l 2,30,31
 268 284 268 284 258 295.5 c 128,-1,32
 248 307 248 307 231 307 c 2,33,-1
 4 307 l 1,34,-1
 4 320 l 1,35,-1
 89 320 l 1,36,-1
 89 398 l 2,37,38
 89 422 89 422 104.5 437 c 128,-1,39
 120 452 120 452 140 452 c 2,40,-1
 249 452 l 1,41,-1
 249 440 l 1,42,-1
 142 440 l 2,43,44
 123 440 123 440 113.5 427.5 c 128,-1,45
 104 415 104 415 104 398 c 2,46,-1
 104 320 l 1,47,-1
 233 320 l 2,48,49
 250 320 250 320 266 305 c 128,-1,50
 282 290 282 290 282 266 c 2,51,-1
 282 54 l 2,52,53
 282 30 282 30 266 15 c 128,-1,54
 250 0 250 0 233 0 c 2,0,-1
134 160 m 2,55,56
 134 180 134 180 121.5 188.5 c 128,-1,57
 109 197 109 197 95 197 c 2,58,-1
 54 197 l 2,59,60
 37 197 37 197 27 187 c 128,-1,61
 17 177 17 177 17 160 c 2,62,-1
 17 54 l 2,63,64
 17 37 17 37 27.5 25 c 128,-1,65
 38 13 38 13 54 13 c 2,66,-1
 95 13 l 2,67,68
 111 13 111 13 122.5 24.5 c 128,-1,69
 134 36 134 36 134 54 c 2,70,-1
 134 160 l 2,55,56
EndSplineSet
Substitution2: "Single Substitution lookup 21 subtable" uni0C35_uni0C4D.abvs
EndChar

StartChar: uni0C36
Encoding: 3126 3126 160
Width: 348
GlyphClass: 2
Flags: W
LayerCount: 2
Back
Fore
SplineSet
181 426 m 2,0,1
 169 426 169 426 158 418 c 128,-1,2
 147 410 147 410 147 393 c 2,3,-1
 147 319 l 1,4,-1
 242 319 l 2,5,6
 258 319 258 319 271.5 306.5 c 128,-1,7
 285 294 285 294 285 273 c 2,8,-1
 285 237 l 2,9,10
 285 232 285 232 281 218.5 c 128,-1,11
 277 205 277 205 264 202 c 1,12,13
 276 200 276 200 280.5 187 c 128,-1,14
 285 174 285 174 285 165 c 2,15,-1
 285 46 l 2,16,17
 285 25 285 25 271.5 12.5 c 128,-1,18
 258 0 258 0 242 0 c 2,19,-1
 157 0 l 2,20,21
 141 0 141 0 128 12.5 c 128,-1,22
 115 25 115 25 115 46 c 2,23,-1
 115 156 l 2,24,25
 115 158 115 158 115.5 164 c 128,-1,26
 116 170 116 170 118 177 c 128,-1,27
 120 184 120 184 124 189 c 128,-1,28
 128 194 128 194 136 194 c 2,29,-1
 52 194 l 2,30,31
 36 194 36 194 27 184.5 c 128,-1,32
 18 175 18 175 18 159 c 2,33,-1
 18 42 l 1,34,-1
 4 42 l 1,35,-1
 4 165 l 2,36,37
 4 184 4 184 17.5 196 c 128,-1,38
 31 208 31 208 45 208 c 2,39,-1
 236 208 l 2,40,41
 247 208 247 208 254 212.5 c 128,-1,42
 261 217 261 217 264.5 223 c 128,-1,43
 268 229 268 229 269 235 c 128,-1,44
 270 241 270 241 270 245 c 2,45,-1
 270 270 l 2,46,47
 270 285 270 285 261.5 294.5 c 128,-1,48
 253 304 253 304 237 304 c 2,49,-1
 92 304 l 1,50,-1
 92 319 l 1,51,-1
 133 319 l 1,52,-1
 133 397 l 2,53,54
 133 416 133 416 146 427.5 c 128,-1,55
 159 439 159 439 174 439 c 2,56,-1
 288 439 l 1,57,-1
 288 426 l 1,58,-1
 181 426 l 2,0,1
270 159 m 2,59,60
 270 175 270 175 261.5 184.5 c 128,-1,61
 253 194 253 194 237 194 c 2,62,-1
 165 194 l 2,63,64
 148 194 148 194 138 185 c 128,-1,65
 128 176 128 176 128 159 c 2,66,-1
 128 48 l 2,67,68
 128 31 128 31 138.5 23 c 128,-1,69
 149 15 149 15 165 15 c 2,70,-1
 237 15 l 2,71,72
 253 15 253 15 261.5 24 c 128,-1,73
 270 33 270 33 270 48 c 2,74,-1
 270 159 l 2,59,60
EndSplineSet
Substitution2: "Single Substitution lookup 21 subtable" uni0C36_uni0C4D.abvs
EndChar

StartChar: uni0C37
Encoding: 3127 3127 161
Width: 353
GlyphClass: 2
Flags: W
LayerCount: 2
Back
Fore
SplineSet
166 437 m 2,0,1
 149 437 149 437 141.5 427.5 c 128,-1,2
 134 418 134 418 134 404 c 2,3,-1
 134 351 l 2,4,5
 134 326 134 326 122 314.5 c 128,-1,6
 110 303 110 303 92 303 c 2,7,-1
 5 303 l 1,8,-1
 5 318 l 1,9,-1
 84 318 l 2,10,11
 101 318 101 318 110.5 326.5 c 128,-1,12
 120 335 120 335 120 351 c 2,13,-1
 120 402 l 2,14,15
 120 428 120 428 133 440 c 128,-1,16
 146 452 146 452 163 452 c 2,17,-1
 234 452 l 1,18,-1
 234 437 l 1,19,-1
 166 437 l 2,0,1
314 -55 m 2,20,21
 297 -55 297 -55 290.5 -42 c 128,-1,22
 284 -29 284 -29 284 -18 c 2,23,-1
 284 20 l 2,24,25
 282 14 282 14 278 10 c 0,26,27
 269 1 269 1 252 1 c 2,28,-1
 183 1 l 2,29,30
 177 1 177 1 160.5 6.5 c 128,-1,31
 144 12 144 12 138 29 c 1,32,33
 133 11 133 11 120 6 c 128,-1,34
 107 1 107 1 101 1 c 2,35,-1
 53 1 l 2,36,37
 35 1 35 1 19.5 15 c 128,-1,38
 4 29 4 29 4 54 c 2,39,-1
 4 159 l 2,40,41
 4 184 4 184 19 196.5 c 128,-1,42
 34 209 34 209 53 209 c 2,43,-1
 96 209 l 2,44,45
 116 209 116 209 131 196.5 c 128,-1,46
 146 184 146 184 146 159 c 2,47,-1
 146 54 l 2,48,49
 146 36 146 36 157 25.5 c 128,-1,50
 168 15 168 15 184 15 c 2,51,-1
 246 15 l 2,52,53
 266 15 266 15 275 26 c 128,-1,54
 284 37 284 37 284 54 c 2,55,-1
 284 267 l 2,56,57
 284 284 284 284 274 293.5 c 128,-1,58
 264 303 264 303 246 303 c 2,59,-1
 241 303 l 1,60,-1
 241 318 l 1,61,-1
 249 318 l 2,62,63
 268 318 268 318 283 303.5 c 128,-1,64
 298 289 298 289 298 267 c 0,65,66
 298 234 298 234 298 189.5 c 128,-1,67
 298 145 298 145 297.5 103.5 c 128,-1,68
 297 62 297 62 297 31 c 128,-1,69
 297 0 297 0 297 -4 c 0,70,71
 297 -9 297 -9 297.5 -16 c 128,-1,72
 298 -23 298 -23 300 -29.5 c 128,-1,73
 302 -36 302 -36 305 -40.5 c 128,-1,74
 308 -45 308 -45 314 -45 c 1,75,76
 314 -46 314 -46 315.5 -45 c 128,-1,77
 317 -44 317 -44 318 -45 c 2,78,-1
 318 -55 l 1,79,-1
 314 -55 l 2,20,21
132 159 m 2,80,81
 132 196 132 196 95 196 c 2,82,-1
 57 196 l 2,83,84
 18 196 18 196 18 159 c 2,85,-1
 18 54 l 2,86,87
 18 37 18 37 27.5 26 c 128,-1,88
 37 15 37 15 57 15 c 2,89,-1
 95 15 l 2,90,91
 112 15 112 15 122 26 c 128,-1,92
 132 37 132 37 132 54 c 2,93,-1
 132 159 l 2,80,81
EndSplineSet
Substitution2: "Single Substitution lookup 21 subtable" uni0C37_uni0C4D.abvs
EndChar

